<?xml version="1.0" encoding="utf-8"?>
<!-- Generator: Adobe Illustrator 13.0.0, SVG Export Plug-In . SVG Version: 6.00 Build 14948)  -->
<!DOCTYPE svg PUBLIC "-//W3C//DTD SVG 1.0//EN" "http://www.w3.org/TR/2001/REC-SVG-20010904/DTD/svg10.dtd">
<svg version="1.0" id="Layer_1" xmlns="http://www.w3.org/2000/svg" xmlns:xlink="http://www.w3.org/1999/xlink" x="0px" y="0px"
	 width="256px" height="256px" viewBox="0 0 256 256" enable-background="new 0 0 256 256" xml:space="preserve">
<linearGradient id="SVGID_1_" gradientUnits="userSpaceOnUse" x1="-6.6592" y1="124.6597" x2="210.8589" y2="202.0322">
	<stop  offset="0" style="stop-color:#EEAACA"/>
	<stop  offset="0.5" style="stop-color:#FFF592"/>
	<stop  offset="1" style="stop-color:#9BCCEC"/>
</linearGradient>
<path fill="url(#SVGID_1_)" d="M51.118,151.329c0,5.61,0.255,11.093,0.892,14.918H37.857l-1.02-6.885h-0.383
	c-3.825,4.845-10.328,8.287-18.36,8.287c-12.495,0-19.508-9.053-19.508-18.487c0-15.684,13.898-23.588,36.848-23.461v-1.02
	c0-4.08-1.658-10.837-12.623-10.837c-6.12,0-12.495,1.912-16.703,4.59l-3.06-10.2c4.59-2.805,12.623-5.482,22.44-5.482
	c19.891,0,25.628,12.623,25.628,26.138V151.329z M35.817,135.901c-11.092-0.255-21.675,2.168-21.675,11.603
	c0,6.12,3.953,8.926,8.925,8.926c6.248,0,10.838-4.08,12.24-8.543c0.382-1.147,0.51-2.423,0.51-3.442V135.901z"/>
<linearGradient id="SVGID_2_" gradientUnits="userSpaceOnUse" x1="3.7046" y1="95.5244" x2="221.2227" y2="172.897">
	<stop  offset="0" style="stop-color:#EEAACA"/>
	<stop  offset="0.5" style="stop-color:#FFF592"/>
	<stop  offset="1" style="stop-color:#9BCCEC"/>
</linearGradient>
<path fill="url(#SVGID_2_)" d="M67.691,75.72h15.683v36.976h0.255c3.825-5.993,10.583-9.945,19.89-9.945
	c15.173,0,26.01,12.623,25.883,31.493c0,22.312-14.153,33.405-28.178,33.405c-8.033,0-15.173-3.06-19.635-10.71h-0.255l-0.765,9.308
	H67.181c0.255-4.208,0.51-11.093,0.51-17.468V75.72z M83.374,140.619c0,1.275,0.127,2.55,0.382,3.697
	c1.658,6.248,7.14,10.966,13.898,10.966c9.817,0,15.81-7.905,15.81-20.4c0-10.966-5.228-19.891-15.683-19.891
	c-6.375,0-12.113,4.59-13.898,11.475c-0.255,1.147-0.51,2.55-0.51,4.081V140.619z"/>
<linearGradient id="SVGID_3_" gradientUnits="userSpaceOnUse" x1="10.0532" y1="77.6763" x2="227.5713" y2="155.0488">
	<stop  offset="0" style="stop-color:#EEAACA"/>
	<stop  offset="0.5" style="stop-color:#FFF592"/>
	<stop  offset="1" style="stop-color:#9BCCEC"/>
</linearGradient>
<path fill="url(#SVGID_3_)" d="M187.924,164.335c-3.315,1.529-9.818,3.314-17.596,3.314c-19.381,0-32.003-12.495-32.003-31.748
	c0-18.615,12.75-33.15,34.553-33.15c5.737,0,11.603,1.275,15.173,2.933l-2.805,11.73c-2.551-1.147-6.248-2.422-11.858-2.422
	c-11.985,0-19.125,8.797-18.997,20.146c0,12.75,8.287,20.018,18.997,20.018c5.483,0,9.308-1.147,12.368-2.423L187.924,164.335z"/>
<linearGradient id="SVGID_4_" gradientUnits="userSpaceOnUse" x1="21.5488" y1="45.3579" x2="239.0669" y2="122.7305">
	<stop  offset="0" style="stop-color:#EEAACA"/>
	<stop  offset="0.5" style="stop-color:#FFF592"/>
	<stop  offset="1" style="stop-color:#9BCCEC"/>
</linearGradient>
<path fill="url(#SVGID_4_)" d="M255.626,75.72v73.059c0,6.375,0.255,13.26,0.51,17.468H242.11l-0.638-9.817h-0.255
	c-3.697,6.885-11.22,11.22-20.272,11.22c-14.791,0-26.521-12.622-26.521-31.748c-0.128-20.783,12.878-33.15,27.795-33.15
	c8.543,0,14.663,3.57,17.468,8.16h0.256V75.72H255.626z M239.943,130.036c0-1.274-0.128-2.805-0.383-4.08
	c-1.402-6.12-6.375-11.092-13.516-11.092c-10.072,0-15.683,8.925-15.683,20.528c0,11.348,5.61,19.636,15.556,19.636
	c6.375,0,11.984-4.336,13.515-11.093c0.383-1.403,0.511-2.933,0.511-4.591V130.036z"/>
</svg>
