<?xml version="1.0" encoding="UTF-8" standalone="no"?><!DOCTYPE svg PUBLIC "-//W3C//DTD SVG 1.1//EN" "http://www.w3.org/Graphics/SVG/1.1/DTD/svg11.dtd"><!--Generated by Intaglio, www.PurgatoryDesign.com--><svg version="1.1" viewBox="126,76,335,448" xmlns="http://www.w3.org/2000/svg" xmlns:xlink="http://www.w3.org/1999/xlink"><defs><linearGradient id="17a13bc0" gradientUnits="userSpaceOnUse"><stop offset="0" stop-color="#ffe877"></stop><stop offset="1" stop-color="#8b3e69"></stop></linearGradient></defs><linearGradient id="18297830" xlink:href="#17a13bc0" x1="208.343" y1="76.7112" x2="441.657" y2="338.289"></linearGradient><path fill="url(#18297830)" stroke="#000" d="M345.262,76.7112 L441.657,270.009 L304.738,338.289 L208.343,144.991 Z"></path><path fill="#708b3a" fill-opacity="0.72" stroke="#000" d="M269,225.098 C282.861,225.098,294.098,213.861,294.098,200 C294.098,200,294.098,200,294.098,200 L371.902,200 C371.902,213.861,383.139,225.098,397,225.098 C397,225.098,397,225.098,397,225.098 L397,404.902 C383.139,404.902,371.902,416.139,371.902,430 L294.098,430 C294.098,416.139,282.861,404.902,269,404.902 Z"></path><path fill="none" stroke="#000" d="M229,395.39 C196.45,360.04,160.588,333.279,136,294.39 C126.288,279.029,123.435,255.926,131,240.39 C143.035,215.676,165.315,189.106,192,179.39 C233.565,164.256,282.959,183.476,326,169.39 C359.959,158.276,386.296,105.457,412,107.39 C432.846,108.957,457.546,150.464,459,179.39 C464.196,282.764,451.034,383.428,431,485.39 C427.584,502.778,408.359,517.034,392,520.39 C367.409,525.434,336.757,522.102,314,509.39 C286.007,493.752,265.183,466.78,247,439.39 C237.533,425.129,239.2,407.54,235,390.39"></path><path fill="#fff" stroke="#000" d="M360,331 C345.796,354.108,332.083,313.84,266.621,329.461 C201.16,345.083,207.108,387.204,184,373 C160.892,358.796,201.16,345.083,185.539,279.621 C169.917,214.16,127.796,220.108,142,197 C156.204,173.892,169.917,214.16,235.379,198.539 C300.84,182.917,294.892,140.796,318,155 C341.108,169.204,300.84,182.917,316.461,248.379 C332.083,313.84,374.204,307.892,360,331 Z"></path></svg>