<?xml version="1.0" encoding="utf-8"?>
<!-- Generator: Adobe Illustrator 13.0.0, SVG Export Plug-In . SVG Version: 6.00 Build 14948)  -->
<!DOCTYPE svg PUBLIC "-//W3C//DTD SVG 1.0//EN" "http://www.w3.org/TR/2001/REC-SVG-20010904/DTD/svg10.dtd">
<svg version="1.0" id="Layer_1" xmlns="http://www.w3.org/2000/svg" xmlns:xlink="http://www.w3.org/1999/xlink" x="0px" y="0px"
	 width="256px" height="256px" viewBox="0 0 256 256" enable-background="new 0 0 256 256" xml:space="preserve">
<line fill="none" stroke="#000000" x1="76.463" y1="80.522" x2="147.174" y2="9.812"/>
<path fill="#229A8A" stroke="#000000" d="M160.668,104.704c0,27.614-22.387,50-50,50c-22.091,0-40-17.908-40-40
	c0-17.673,14.327-32,32-32c14.139,0,25.6,11.461,25.6,25.6c0,11.311-9.168,20.48-20.479,20.48c-9.049,0-16.384-7.335-16.384-16.384
	c0-7.239,5.869-13.107,13.107-13.107c5.792,0,10.486,4.694,10.486,10.486c0,4.632-3.756,8.388-8.389,8.388
	c-3.708,0-6.711-3.004-6.711-6.711"/>
<g>
	<rect x="196.536" y="73.223" fill="none" stroke="#000000" width="100" height="100"/>
	<line fill="none" stroke="#000000" x1="196.536" y1="156.572" x2="296.536" y2="156.572"/>
	<line fill="none" stroke="#000000" x1="196.536" y1="139.873" x2="296.536" y2="139.873"/>
	<line fill="none" stroke="#000000" x1="196.536" y1="123.223" x2="296.536" y2="123.223"/>
	<line fill="none" stroke="#000000" x1="196.536" y1="106.572" x2="296.536" y2="106.572"/>
	<line fill="none" stroke="#000000" x1="196.536" y1="89.873" x2="296.536" y2="89.873"/>
	<line fill="none" stroke="#000000" x1="279.861" y1="73.223" x2="279.861" y2="173.223"/>
	<line fill="none" stroke="#000000" x1="263.211" y1="73.223" x2="263.211" y2="173.223"/>
	<line fill="none" stroke="#000000" x1="246.536" y1="73.223" x2="246.536" y2="173.223"/>
	<line fill="none" stroke="#000000" x1="229.861" y1="73.223" x2="229.861" y2="173.223"/>
	<line fill="none" stroke="#000000" x1="213.211" y1="73.223" x2="213.211" y2="173.223"/>
</g>
<g opacity="0.55">
	<g>
		<path fill="#EE7E0A" stroke="#000000" d="M43.252,170.303c-27.637,0-50-22.363-50-50c0-27.636,22.363-50,50-50
			c27.637,0,50,22.363,50,50S70.889,170.303,43.252,170.303z"/>
		<path fill="#EE7E0A" stroke="#000000" d="M84.927,120.303c0-23.046-18.652-41.65-41.675-41.65S1.577,97.256,1.577,120.303
			s18.652,41.65,41.675,41.65S84.927,143.35,84.927,120.303z"/>
		<path fill="#EE7E0A" stroke="#000000" d="M43.252,153.652c-18.433,0-33.325-14.941-33.325-33.351
			c0-18.408,14.893-33.349,33.325-33.349s33.325,14.941,33.325,33.349C76.577,138.711,61.685,153.652,43.252,153.652z"/>
		<path fill="#EE7E0A" stroke="#000000" d="M68.252,120.303c0-13.818-11.182-25-25-25s-25,11.182-25,25c0,13.818,11.182,25,25,25
			S68.252,134.121,68.252,120.303z"/>
		<path fill="#EE7E0A" stroke="#000000" d="M43.252,136.953c-9.204,0-16.675-7.422-16.675-16.65c0-9.228,7.471-16.65,16.675-16.65
			s16.675,7.421,16.675,16.65C59.927,129.532,52.456,136.953,43.252,136.953z"/>
		<path fill="#EE7E0A" stroke="#000000" d="M51.577,120.303c0-4.59-3.711-8.35-8.325-8.35c-4.614,0-8.325,3.76-8.325,8.35
			c0,4.59,3.711,8.35,8.325,8.35C47.866,128.652,51.577,124.893,51.577,120.303z"/>
	</g>
	<g>
		<line fill="none" stroke="#000000" x1="43.252" y1="120.303" x2="43.252" y2="170.303"/>
		<line fill="none" stroke="#000000" x1="43.252" y1="120.303" x2="90.811" y2="135.732"/>
		<line fill="none" stroke="#000000" x1="43.252" y1="120.303" x2="72.646" y2="79.874"/>
		<line fill="none" stroke="#000000" x1="43.252" y1="120.303" x2="13.857" y2="79.874"/>
		<line fill="none" stroke="#000000" x1="43.252" y1="120.303" x2="-4.307" y2="135.732"/>
	</g>
</g>
<rect x="149.456" y="34.537" fill="none" stroke="#000000" width="39.78" height="20.073"/>
<path fill="none" stroke="#000000" d="M70.259,28.741c0,6.627-5.373,12-12,12H38.463c-6.627,0-12-5.373-12-12v-4.832
	c0-6.627,5.373-12,12-12h19.796c6.627,0,12,5.373,12,12V28.741z"/>
<linearGradient id="SVGID_1_" gradientUnits="userSpaceOnUse" x1="43.248" y1="241.7285" x2="86.417" y2="241.7285">
	<stop  offset="0" style="stop-color:#FFEC00"/>
	<stop  offset="0.0425" style="stop-color:#FDDE00"/>
	<stop  offset="0.1187" style="stop-color:#FBCB00"/>
	<stop  offset="0.1972" style="stop-color:#F9C000"/>
	<stop  offset="0.2809" style="stop-color:#F9BC00"/>
	<stop  offset="0.6685" style="stop-color:#E67D23"/>
	<stop  offset="0.8876" style="stop-color:#DA4A24"/>
	<stop  offset="1" style="stop-color:#D21823"/>
</linearGradient>
<path fill="url(#SVGID_1_)" stroke="#000000" d="M44.762,237.868c4.377-22.763,16.911-39.487,27.996-37.356
	c11.084,2.132,16.522,22.312,12.145,45.075s-16.912,39.488-27.995,37.357C45.822,280.812,40.385,260.631,44.762,237.868z"/>
<polygon fill="none" stroke="#000000" points="168.436,206.799 140.213,211.155 122.329,188.893 132.667,162.273 160.889,157.917 
	178.771,180.18 "/>
<polygon fill="none" stroke="#000000" points="245.441,216.652 225.561,225.655 221.704,247.136 206.999,231.009 185.378,233.979 
	196.172,215.012 186.665,195.366 208.04,199.77 223.786,184.658 226.203,206.348 "/>
<circle fill="#0000FF" stroke="#000000" cx="226.1" cy="31.617" r="21.168"/>
<path opacity="0.55" fill="#F300FF" stroke="#000000" d="M76.611,175.141c32.367,44.805,94.814,54.87,139.62,22.503"/>
</svg>
