<?xml version="1.0" encoding="UTF-8" standalone="no"?>
<!-- Generator: Adobe Illustrator 13.0.0, SVG Export Plug-In . SVG Version: 6.00 Build 14948)  -->
<svg
   xmlns:dc="http://purl.org/dc/elements/1.1/"
   xmlns:cc="http://web.resource.org/cc/"
   xmlns:rdf="http://www.w3.org/1999/02/22-rdf-syntax-ns#"
   xmlns:svg="http://www.w3.org/2000/svg"
   xmlns="http://www.w3.org/2000/svg"
   xmlns:sodipodi="http://sodipodi.sourceforge.net/DTD/sodipodi-0.dtd"
   xmlns:inkscape="http://www.inkscape.org/namespaces/inkscape"
   version="1.0"
   id="Layer_1"
   x="0px"
   y="0px"
   width="256px"
   height="256px"
   viewBox="0 0 256 256"
   enable-background="new 0 0 256 256"
   xml:space="preserve"
   sodipodi:version="0.32"
   inkscape:version="0.45.1"
   sodipodi:docname="test.svg"
   inkscape:output_extension="org.inkscape.output.svg.inkscape"
   sodipodi:docbase="C:\Documents and Settings\Personal\Desktop\pystuff\squirtle-trunk"><metadata
   id="metadata93"><rdf:RDF><cc:Work
       rdf:about=""><dc:format>image/svg+xml</dc:format><dc:type
         rdf:resource="http://purl.org/dc/dcmitype/StillImage" /></cc:Work></rdf:RDF></metadata><defs
   id="defs91" /><sodipodi:namedview
   inkscape:window-height="897"
   inkscape:window-width="1139"
   inkscape:pageshadow="2"
   inkscape:pageopacity="0.0"
   guidetolerance="10.0"
   gridtolerance="10.0"
   objecttolerance="10.0"
   borderopacity="1.0"
   bordercolor="#666666"
   pagecolor="#ffffff"
   id="base"
   inkscape:zoom="1.5351563"
   inkscape:cx="128"
   inkscape:cy="128"
   inkscape:window-x="22"
   inkscape:window-y="29"
   inkscape:current-layer="Layer_1" />






<linearGradient
   id="SVGID_1_"
   gradientUnits="userSpaceOnUse"
   x1="43.248"
   y1="241.7285"
   x2="86.417"
   y2="241.7285">
	<stop
   offset="0"
   style="stop-color:#FFEC00"
   id="stop64" />
	<stop
   offset="0.0425"
   style="stop-color:#FDDE00"
   id="stop66" />
	<stop
   offset="0.1187"
   style="stop-color:#FBCB00"
   id="stop68" />
	<stop
   offset="0.1972"
   style="stop-color:#F9C000"
   id="stop70" />
	<stop
   offset="0.2809"
   style="stop-color:#F9BC00"
   id="stop72" />
	<stop
   offset="0.6685"
   style="stop-color:#E67D23"
   id="stop74" />
	<stop
   offset="0.8876"
   style="stop-color:#DA4A24"
   id="stop76" />
	<stop
   offset="1"
   style="stop-color:#D21823"
   id="stop78" />
</linearGradient>





<path
   style="fill:#ff0000;fill-opacity:1;stroke:#000000;stroke-opacity:1"
   d="M 132.6875,141.53125 C 126.24973,143.74223 122.27884,147.22439 124.76953,154.38538 C 125.45848,166.41575 125.20526,178.57338 122.9375,190.4375 C 118.95851,191.5822 108.7847,199.66637 118.42795,195.42582 C 125.84535,195.90315 117.18988,207.17313 116.7356,212.18068 C 114.37687,218.21927 111.52269,224.07016 108.125,229.59375 C 115.61777,228.00157 119.48106,222.27232 121.84972,215.40254 C 124.88488,208.61695 127.29219,201.55438 129.09375,194.34375 C 137.51952,196.9253 132.29023,209.60941 137.48333,215.6455 C 137.83327,221.458 141.49373,229.19575 147.65324,222.92989 C 149.37973,214.71646 141.10826,203.97908 141.03525,194.25137 C 140.41829,191.07738 150.67233,186.60419 141.64048,188.49319 C 136.00317,182.30358 138.69133,172.72442 136.51172,165.1353 C 135.69221,159.64537 139.13562,148.50303 132.70037,148.61274 C 132.38986,146.25805 133.39074,143.84574 132.6875,141.53125 z M 36.375,152.84375 C 32.127551,156.05681 26.540109,157.88579 30.622907,163.55065 C 30.367581,174.25119 28.768227,185.13759 25.666839,195.40381 C 23.508159,200.62353 20.055983,211.09659 28.694687,204.69915 C 34.778788,199.57598 29.928608,181.83795 41.903703,185.28353 C 52.148124,191.01723 49.877022,205.5732 41.598687,211.91701 C 34.577439,218.2728 26.303986,208.74238 21.059672,209.02284 C 8.4582145,212.71612 24.828542,221.83731 31.601986,219.33606 C 42.657733,216.02961 53.05885,207.86521 57.073241,196.77091 C 58.942052,188.32733 52.21837,177.07546 42.560157,179.49208 C 36.732965,178.40739 51.875893,175.34936 52.009548,170.63202 C 58.125944,163.28077 51.749208,151.55005 42.265353,152.81934 C 40.302543,152.84214 38.335559,153.04289 36.375,152.84375 z M 38.65625,158.71875 C 50.590072,159.59638 45.352462,180.5921 36.899572,176.97799 C 36.434171,170.84432 39.071252,164.86714 38.65625,158.71875 z M 175.71875,164.625 C 163.1679,165.94377 171.19104,184.57558 162.31186,186.43553 C 153.59143,186.88483 143.96377,205.29486 155.41735,206.80418 C 159.64373,204.37833 166.21499,202.38825 162.06762,209.9948 C 168.46751,212.73503 173.27192,202.3477 171.57873,196.09644 C 173.09575,185.7238 176.46155,175.50853 176.48419,164.9267 C 176.21375,164.87093 176.09185,164.38001 175.71875,164.625 z M 228.9375,184.6875 C 224.15926,188.49045 219.86171,188.27662 215.00191,186.03177 C 207.50369,186.68783 202.55046,191.10334 203.47299,198.7945 C 201.55844,202.19836 196.44807,208.51797 204.05484,204.11635 C 209.55792,204.48698 212.91835,187.77856 212.25241,198.84566 C 217.83527,198.66693 221.23859,193.98507 222.80469,189.43533 C 225.4496,194.72565 219.97673,209.53825 230.54994,201.34024 C 232.81955,197.19936 233.79636,187.79936 228.9375,184.6875 z M 130.9375,185.03125 C 133.07025,191.22473 128.48022,190.38996 130.9375,185.03125 z M 188,186.5 C 179.06883,187.9961 169.3971,197.67905 173.61727,207.13159 C 178.30996,215.24086 188.41998,201.18696 191.69753,212.04696 C 199.15281,211.05118 199.29214,205.68316 195.21133,200.59877 C 194.64479,195.05435 193.57735,187.82299 187.17827,194.40424 C 184.01079,196.17365 185.01136,207.96635 181.40196,200.88829 C 179.61873,195.29191 184.04336,189.96343 189.06212,192.52443 C 194.45846,188.68698 199.36773,187.51401 188,186.5 z M 70.65625,187.96875 C 60.358692,189.74359 58.548364,200.50611 58.524322,209.48814 C 63.823741,219.59954 72.693149,207.0141 79.428615,206.182 C 82.995542,211.69323 91.093591,225.23686 82.013932,228.72188 C 71.599492,229.54475 61.156831,228.07135 50.742021,228.87386 C 47.591283,231.41207 39.930643,235.40299 48.330583,233.94588 C 61.254358,233.47492 75.173517,236.68093 87.245066,230.7441 C 98.326938,225.88916 94.117849,213.40939 89.945468,205.23223 C 88.539247,197.43128 78.271503,189.05706 74.700186,200.16695 C 74.302358,205.52828 67.169692,211.59227 66.735622,202.90963 C 66.813644,197.66669 69.839419,193.06387 70.65625,187.96875 z M 221.8125,190.0625 L 221.0207,190.47362 L 221.8125,190.0625 z M 160.09375,191.875 C 168.83601,191.64639 156.3865,206.83729 158.875,195.78125 C 159.22152,194.46269 159.51846,193.11909 160.09375,191.875 z "
   id="path2271" /><path
   style="fill:#ffff00;fill-opacity:1;stroke:#000000;stroke-opacity:1"
   d="M 117.25,13.625 C 107.34509,10.824644 97.860386,24.397285 104.78433,32.423559 C 109.77915,39.810389 108.388,50.076882 114.67535,56.729325 C 124.03268,57.843117 135.67179,52.540081 136.90864,42.332221 C 139.37538,34.507044 146.826,27.633321 144.66041,18.826565 C 139.44718,9.5125034 127.22281,16.368002 118.87885,13.712787 L 117.25,13.625 z M 111.25,19.15625 C 119.18199,21.768544 134.20624,14.023478 136.01736,26.215445 C 136.07915,34.254639 131.09281,41.086211 127.82803,48.075183 C 119.89932,55.773341 117.36039,40.276338 115.75082,34.958675 C 113.69999,29.882005 111.53438,24.695977 111.25,19.15625 z M 80.34375,23.5 C 69.643956,29.778897 60.293578,37.999379 50.404207,45.422954 C 49.21488,53.648313 57.836322,57.953077 64.401977,60.052145 C 71.172881,61.402581 75.191563,68.067967 82.129454,69.199105 C 91.007771,71.517667 97.303147,59.987368 93.897446,52.590947 C 91.173293,46.379872 86.598968,40.94273 85.564712,34.067785 C 84.22487,30.370161 82.664686,26.701093 80.34375,23.5 z M 181.5,23.9375 C 167.56137,29.222464 163.66046,44.988447 155.6932,56.035593 C 146.73765,60.291024 156.94318,69.491666 163.37118,68.911581 C 169.78161,67.872761 175.20955,63.45765 181.42843,61.460018 C 187.08773,58.997281 193.18839,57.935812 199.20625,56.912169 C 210.31651,52.166242 202.86578,39.688975 195.47838,35.409251 C 191.31466,31.069455 187.3197,26.095845 181.5,23.9375 z M 173.65625,29.65625 L 173.25,29.75 L 173.65625,29.65625 z M 177.28125,30.5625 C 183.87435,37.589694 192.93776,42.788565 196.74304,52.051923 C 187.5817,55.278141 179.08362,62.349772 169.37748,62.86566 C 158.54592,59.008248 165.96646,46.334849 171.2564,40.804102 C 173.34256,37.436789 175.33727,34.013587 177.28125,30.5625 z M 74.21875,30.75 C 77.584368,41.284524 83.332589,50.960791 85.830227,61.788591 C 76.786126,57.531628 67.639011,53.337656 59.384607,47.642612 C 55.963506,37.757327 69.38296,36.16452 74.21875,30.75 z M 124.9375,67.53125 C 114.9322,67.670177 109.18167,77.436811 100.29334,80.46612 C 91.666781,87.367078 86.599146,101.22782 93.765444,110.85692 C 104.12746,121.43012 120.57222,124.50298 134.65586,121.32963 C 149.50864,117.3296 161.89438,101.28264 157.3942,85.679325 C 152.77484,72.822258 137.75267,66.756635 124.9375,67.53125 z M 123.28125,73.1875 C 134.90947,74.266943 148.51917,81.349975 149.62886,94.246158 C 150.19048,103.44616 146.25529,114.60097 136.58204,117.40338 C 124.63879,117.47581 111.43395,115.30522 102.46428,106.8477 C 94.951343,97.634297 99.416487,79.881478 112.14646,78.370206 C 116.164,77.574678 120.77695,76.832454 123.28125,73.1875 z M 42.15625,83.90625 C 32.380021,82.586373 25.751956,93.828824 27.481768,102.52341 C 25.997816,111.18497 36.177239,115.6563 43.420314,113.94927 C 52.577135,110.80711 64.048639,115.61332 71.902267,108.16109 C 79.394188,104.07149 79.745617,89.288727 69.104009,90.282313 C 60.460451,91.339797 53.261525,84.367551 44.66582,84.10538 L 43.413685,83.973659 L 42.15625,83.90625 z M 208.59375,88.25 C 197.14956,92.957373 183.78928,86.791546 172.84165,93.364877 C 164.80451,99.856736 169.83702,116.56368 181.38772,112.48776 C 189.22214,112.35915 197.89667,115.15322 205.05807,110.95743 C 202.85407,104.66984 214.26877,104.0908 212.9686,96.160762 C 213.19883,92.948819 211.47479,89.734143 208.59375,88.25 z M 36.84375,89.59375 C 47.222988,91.292386 56.876248,95.793884 67.183027,97.797764 C 70.944604,106.84832 58.972661,107.92517 52.832883,107.97567 C 43.224289,112.49799 33.417859,103.33093 36.063998,93.385084 C 36.232685,92.099764 37.041137,90.931172 36.84375,89.59375 z M 201.78125,93.90625 C 208.87009,101.25875 197.94206,111.59935 189.74397,109.18645 C 179.83737,111.37891 173.15853,95.383019 185.53722,94.953947 C 190.97972,94.825038 196.66936,96.716899 201.78125,93.90625 z "
   id="path2325" /></svg>