<?xml version="1.0" encoding="utf-8"?>
<!-- Generator: Adobe Illustrator 13.0.0, SVG Export Plug-In . SVG Version: 6.00 Build 14576)  -->
<!DOCTYPE svg PUBLIC "-//W3C//DTD SVG 1.1//EN" "http://www.w3.org/Graphics/SVG/1.1/DTD/svg11.dtd">
<svg version="1.1" id="Layer_1" xmlns="http://www.w3.org/2000/svg" xmlns:xlink="http://www.w3.org/1999/xlink" x="0px" y="0px"
	 width="55px" height="55px" viewBox="0 0 55 55" enable-background="new 0 0 55 55" xml:space="preserve">
<polygon fill="none" stroke="#FFFFFF" stroke-width="2" points="10.793,6.769 10.793,49.501 44.012,49.501 44.126,15.444 
	35.45,6.996 "/>
<polyline fill="#E6E3E1" stroke="#5D6060" stroke-width="2" points="35.334,7.042 35.334,15.753 44.166,15.753 "/>
<g>
	<path fill="#FFFFFF" d="M20.719,26.395h-0.036l-2.232,1.062l-0.449-2.053l3.097-1.439h2.27v11.704h-2.646v-9.273H20.719z"/>
	<path fill="#FFFFFF" d="M35.858,29.762c0,3.619-1.458,6.104-4.447,6.104c-3.023,0-4.356-2.719-4.375-6.031
		c0-3.386,1.44-6.067,4.467-6.067C34.635,23.766,35.858,26.557,35.858,29.762z M29.791,29.834c-0.018,2.683,0.631,3.962,1.692,3.962
		c1.062,0,1.639-1.333,1.639-3.998c0-2.593-0.559-3.961-1.655-3.961C30.457,25.836,29.773,27.114,29.791,29.834z"/>
</g>
</svg>
