<?xml version="1.0" encoding="utf-8"?>
<!-- Generator: Adobe Illustrator 13.0.0, SVG Export Plug-In . SVG Version: 6.00 Build 14576)  -->
<!DOCTYPE svg PUBLIC "-//W3C//DTD SVG 1.1//EN" "http://www.w3.org/Graphics/SVG/1.1/DTD/svg11.dtd">
<svg version="1.1" id="Layer_1" xmlns="http://www.w3.org/2000/svg" xmlns:xlink="http://www.w3.org/1999/xlink" x="0px" y="0px"
	 width="55px" height="55px" viewBox="0 0 55 55" enable-background="new 0 0 55 55" xml:space="preserve">
<polygon fill="none" stroke="#FFFFFF" stroke-width="2" points="10.793,6.769 10.793,49.501 44.012,49.501 44.126,15.444 
	35.45,6.996 "/>
<polyline fill="#E6E3E1" stroke="#5D6060" stroke-width="2" points="35.334,7.042 35.334,15.753 44.166,15.753 "/>
<g>
	<path fill="#FFFFFF" d="M24.793,34.164c0.343,0.036,0.647,0.036,1.188,0c0.828-0.055,1.675-0.287,2.305-0.721
		c0.758-0.521,1.262-1.276,1.478-2.16l-0.054-0.018c-0.522,0.539-1.278,0.846-2.342,0.846c-1.979,0-3.654-1.387-3.654-3.655
		c0-2.286,1.837-4.213,4.41-4.213c3.008,0,4.431,2.306,4.431,5.042c0,2.431-0.774,4.213-2.053,5.384
		c-1.116,1.009-2.646,1.565-4.466,1.639c-0.469,0.036-0.937,0.018-1.242,0V34.164z M28.033,26.241c-0.918,0-1.603,0.828-1.584,2.053
		c0,1.009,0.54,1.873,1.656,1.873c0.738,0,1.261-0.36,1.513-0.774c0.091-0.162,0.145-0.342,0.145-0.684
		c0-1.243-0.468-2.468-1.71-2.468H28.033z"/>
</g>
</svg>
