<?xml version="1.0" encoding="utf-8"?>
<!-- Generator: Adobe Illustrator 13.0.0, SVG Export Plug-In . SVG Version: 6.00 Build 14576)  -->
<!DOCTYPE svg PUBLIC "-//W3C//DTD SVG 1.1//EN" "http://www.w3.org/Graphics/SVG/1.1/DTD/svg11.dtd">
<svg version="1.1" id="Layer_1" xmlns="http://www.w3.org/2000/svg" xmlns:xlink="http://www.w3.org/1999/xlink" x="0px" y="0px"
	 width="55px" height="55px" viewBox="0 0 55 55" enable-background="new 0 0 55 55" xml:space="preserve">
<polygon fill="none" stroke="#FFFFFF" stroke-width="2" points="10.793,6.769 10.793,49.501 44.012,49.501 44.126,15.444 
	35.45,6.996 "/>
<polyline fill="#E6E3E1" stroke="#5D6060" stroke-width="2" points="35.334,7.042 35.334,15.753 44.166,15.753 "/>
<g>
	<path fill="#FFFFFF" d="M22.922,35.168v-1.656l1.513-1.368c2.557-2.287,3.799-3.602,3.835-4.97c0-0.955-0.576-1.711-1.927-1.711
		c-1.008,0-1.891,0.504-2.502,0.973l-0.774-1.963c0.882-0.666,2.251-1.206,3.835-1.206c2.646,0,4.105,1.548,4.105,3.673
		c0,1.963-1.423,3.529-3.115,5.042l-1.08,0.9v0.035h4.411v2.251H22.922z"/>
</g>
</svg>
