<?xml version="1.0" encoding="utf-8"?>
<!-- Generator: Adobe Illustrator 13.0.0, SVG Export Plug-In . SVG Version: 6.00 Build 14576)  -->
<!DOCTYPE svg PUBLIC "-//W3C//DTD SVG 1.1//EN" "http://www.w3.org/Graphics/SVG/1.1/DTD/svg11.dtd">
<svg version="1.1" id="Layer_1" xmlns="http://www.w3.org/2000/svg" xmlns:xlink="http://www.w3.org/1999/xlink" x="0px" y="0px"
	 width="55px" height="55px" viewBox="0 0 55 55" enable-background="new 0 0 55 55" xml:space="preserve">
<polygon fill="none" stroke="#FFFFFF" stroke-width="2" points="10.793,6.769 10.793,49.501 44.012,49.501 44.126,15.444 
	35.45,6.996 "/>
<polyline fill="#E6E3E1" stroke="#5D6060" stroke-width="2" points="35.334,7.042 35.334,15.753 44.166,15.753 "/>
<g>
	<path fill="#FFFFFF" d="M23.909,32.65c0.486,0.252,1.604,0.72,2.72,0.72c1.423,0,2.143-0.684,2.143-1.565
		c0-1.152-1.152-1.674-2.358-1.674h-1.115v-1.963h1.062c0.918-0.019,2.088-0.36,2.088-1.352c0-0.702-0.576-1.224-1.729-1.224
		c-0.954,0-1.962,0.414-2.448,0.702l-0.559-1.981c0.701-0.45,2.106-0.882,3.618-0.882c2.504,0,3.891,1.313,3.891,2.917
		c0,1.243-0.702,2.215-2.144,2.719v0.035c1.404,0.253,2.538,1.314,2.538,2.846c0,2.07-1.817,3.583-4.789,3.583
		c-1.513,0-2.791-0.396-3.475-0.828L23.909,32.65z"/>
</g>
</svg>
