<?xml version="1.0" encoding="utf-8"?>
<!-- Generator: Adobe Illustrator 13.0.0, SVG Export Plug-In . SVG Version: 6.00 Build 14576)  -->
<!DOCTYPE svg PUBLIC "-//W3C//DTD SVG 1.1//EN" "http://www.w3.org/Graphics/SVG/1.1/DTD/svg11.dtd">
<svg version="1.1" id="Layer_1" xmlns="http://www.w3.org/2000/svg" xmlns:xlink="http://www.w3.org/1999/xlink" x="0px" y="0px"
	 width="55px" height="55px" viewBox="0 0 55 55" enable-background="new 0 0 55 55" xml:space="preserve">
<polygon fill="none" stroke="#FFFFFF" stroke-width="2" points="11.793,6.769 11.793,49.501 45.012,49.501 45.126,15.444 
	36.45,6.996 "/>
<polyline fill="#E6E3E1" stroke="#5D6060" stroke-width="2" points="36.334,7.042 36.334,15.753 45.166,15.753 "/>
<g>
	<path fill="#FFFFFF" d="M26.164,29.784c-1.135-0.575-1.691-1.529-1.691-2.557c0-1.98,1.782-3.295,4.123-3.295
		c2.735,0,3.871,1.584,3.871,3.007c0,1.008-0.54,1.999-1.692,2.574v0.055c1.134,0.433,2.144,1.404,2.144,2.916
		c0,2.125-1.783,3.548-4.503,3.548c-2.971,0-4.339-1.675-4.339-3.259c0-1.404,0.812-2.377,2.089-2.936L26.164,29.784L26.164,29.784z
		 M30.126,32.684c0-1.027-0.757-1.639-1.838-1.928c-0.898,0.253-1.422,0.899-1.422,1.747c-0.019,0.847,0.63,1.639,1.656,1.639
		C29.495,34.142,30.126,33.512,30.126,32.684z M27.046,27.138c0,0.792,0.721,1.296,1.655,1.584c0.631-0.18,1.188-0.756,1.188-1.494
		c0-0.72-0.414-1.44-1.422-1.44C27.532,25.787,27.046,26.399,27.046,27.138z"/>
</g>
</svg>
