<?xml version="1.0" encoding="utf-8"?>
<!-- Generator: Adobe Illustrator 13.0.0, SVG Export Plug-In . SVG Version: 6.00 Build 14576)  -->
<!DOCTYPE svg PUBLIC "-//W3C//DTD SVG 1.1//EN" "http://www.w3.org/Graphics/SVG/1.1/DTD/svg11.dtd">
<svg version="1.1" id="Layer_1" xmlns="http://www.w3.org/2000/svg" xmlns:xlink="http://www.w3.org/1999/xlink" x="0px" y="0px"
	 width="55px" height="55px" viewBox="0 0 55 55" enable-background="new 0 0 55 55" xml:space="preserve">
<polygon fill="none" stroke="#FFFFFF" stroke-width="2" points="10.793,5.769 10.793,49.834 44.012,49.834 44.126,14.444 
	35.45,5.996 "/>
<polyline fill="#E6E3E1" stroke="#5D6060" stroke-width="2" points="35.334,6.042 35.334,14.753 44.166,14.753 "/>
<path fill="#FFFFFF" d="M31.025,25.407h-4.537l-0.252,1.8c0.252-0.035,0.468-0.035,0.756-0.035c1.117,0,2.251,0.252,3.08,0.846
	c0.883,0.594,1.422,1.566,1.422,2.936c0,2.179-1.873,4.105-5.022,4.105c-1.423,0-2.611-0.324-3.259-0.666l0.485-2.053
	c0.522,0.252,1.585,0.575,2.647,0.575c1.134,0,2.34-0.541,2.34-1.782c0-1.207-0.955-1.945-3.295-1.945
	c-0.648,0-1.098,0.037-1.584,0.109l0.773-6.142h6.445V25.407z"/>
</svg>
