<?xml version="1.0" encoding="utf-8"?>
<!-- Generator: Adobe Illustrator 13.0.0, SVG Export Plug-In . SVG Version: 6.00 Build 14576)  -->
<!DOCTYPE svg PUBLIC "-//W3C//DTD SVG 1.1//EN" "http://www.w3.org/Graphics/SVG/1.1/DTD/svg11.dtd">
<svg version="1.1" id="Layer_1" xmlns="http://www.w3.org/2000/svg" xmlns:xlink="http://www.w3.org/1999/xlink" x="0px" y="0px"
	 width="55px" height="55px" viewBox="0 0 55 55" enable-background="new 0 0 55 55" xml:space="preserve">
<polygon fill="none" stroke="#FFFFFF" stroke-width="2" points="10.793,6.769 10.793,49.501 44.012,49.501 44.126,15.444 
	35.45,6.996 "/>
<polyline fill="#E6E3E1" stroke="#5D6060" stroke-width="2" points="35.334,7.043 35.334,15.753 44.168,15.753 "/>
<g>
	<path fill="#FFFFFF" d="M30.562,26.575c-0.307,0-0.63,0-1.062,0.036c-2.431,0.198-3.511,1.44-3.815,2.811h0.055
		c0.576-0.596,1.386-0.938,2.484-0.938c1.963,0,3.619,1.387,3.619,3.817c0,2.32-1.782,4.229-4.321,4.229
		c-3.115,0-4.646-2.321-4.646-5.112c0-2.196,0.812-4.033,2.07-5.203c1.171-1.062,2.686-1.64,4.521-1.729
		c0.505-0.036,0.828-0.036,1.099-0.018L30.562,26.575L30.562,26.575z M27.501,34.516c0.952,0,1.564-0.883,1.564-2.07
		c0-1.081-0.576-2.018-1.747-2.018c-0.738,0-1.351,0.451-1.62,1.045c-0.07,0.145-0.106,0.357-0.106,0.684
		c0.054,1.242,0.646,2.359,1.891,2.359H27.501z"/>
</g>
</svg>
