<?xml version="1.0" encoding="utf-8"?>
<!-- Generator: Adobe Illustrator 13.0.0, SVG Export Plug-In . SVG Version: 6.00 Build 14576)  -->
<!DOCTYPE svg PUBLIC "-//W3C//DTD SVG 1.1//EN" "http://www.w3.org/Graphics/SVG/1.1/DTD/svg11.dtd">
<svg version="1.1" id="Layer_1" xmlns="http://www.w3.org/2000/svg" xmlns:xlink="http://www.w3.org/1999/xlink" x="0px" y="0px"
	 width="55px" height="55px" viewBox="0 0 55 55" enable-background="new 0 0 55 55" xml:space="preserve">
<circle fill="#808284" cx="27.501" cy="27.408" r="22.5"/>
<circle fill="none" stroke="#4C4D4F" stroke-width="2.25" cx="27.499" cy="27.5" r="21.572"/>
<g>
	<path fill="#FFFFFF" d="M31.522,23.832H26.48l-0.279,2c0.279-0.039,0.521-0.039,0.841-0.039c1.239,0,2.501,0.279,3.421,0.939
		c0.979,0.66,1.58,1.74,1.58,3.261c0,2.42-2.08,4.562-5.581,4.562c-1.58,0-2.9-0.359-3.621-0.74l0.54-2.281
		c0.58,0.281,1.761,0.642,2.94,0.642c1.26,0,2.602-0.601,2.602-1.98c0-1.34-1.062-2.16-3.661-2.16c-0.72,0-1.222,0.04-1.761,0.12
		l0.859-6.822h7.162V23.832z"/>
</g>
</svg>
