<?xml version="1.0" encoding="utf-8"?>
<!-- Generator: Adobe Illustrator 13.0.0, SVG Export Plug-In . SVG Version: 6.00 Build 14576)  -->
<!DOCTYPE svg PUBLIC "-//W3C//DTD SVG 1.1//EN" "http://www.w3.org/Graphics/SVG/1.1/DTD/svg11.dtd">
<svg version="1.1" id="Layer_1" xmlns="http://www.w3.org/2000/svg" xmlns:xlink="http://www.w3.org/1999/xlink" x="0px" y="0px"
	 width="55px" height="55px" viewBox="0 0 55 55" enable-background="new 0 0 55 55" xml:space="preserve">
<circle fill="#808284" cx="27.501" cy="27.408" r="22.5"/>
<circle fill="none" stroke="#4C4D4F" stroke-width="2.25" cx="27.499" cy="27.5" r="21.572"/>
<g>
	<path fill="#FFFFFF" d="M30.809,23.825c-0.34,0-0.7,0-1.18,0.04c-2.701,0.221-3.901,1.601-4.241,3.121h0.061
		c0.641-0.66,1.54-1.04,2.761-1.04c2.181,0,4.021,1.54,4.021,4.241c0,2.58-1.98,4.7-4.801,4.7c-3.461,0-5.161-2.58-5.161-5.682
		c0-2.44,0.899-4.48,2.3-5.78c1.301-1.182,2.98-1.821,5.021-1.92c0.56-0.04,0.92-0.04,1.22-0.021V23.825z M27.408,32.647
		c1.062,0,1.74-0.979,1.74-2.3c0-1.201-0.64-2.241-1.939-2.241c-0.82,0-1.5,0.5-1.801,1.16c-0.08,0.16-0.12,0.4-0.12,0.761
		c0.061,1.38,0.721,2.62,2.102,2.62H27.408z"/>
</g>
</svg>
