<?xml version="1.0" encoding="utf-8"?>
<!-- Generator: Adobe Illustrator 13.0.0, SVG Export Plug-In . SVG Version: 6.00 Build 14576)  -->
<!DOCTYPE svg PUBLIC "-//W3C//DTD SVG 1.1//EN" "http://www.w3.org/Graphics/SVG/1.1/DTD/svg11.dtd">
<svg version="1.1" id="Layer_1" xmlns="http://www.w3.org/2000/svg" xmlns:xlink="http://www.w3.org/1999/xlink" x="0px" y="0px"
	 width="80px" height="80px" viewBox="0 0 80 80" enable-background="new 0 0 80 80" xml:space="preserve">
<path fill="#51A425" stroke="#333333" stroke-linecap="square" d="M9.667,16.825c0-3.389,4.911-7.559,8.889-7.559h42.222
	c3.979,0,8.89,4.171,8.89,7.559v28.048c0,14.1-13.424,25.528-30,25.528c-16.577,0-30-11.429-30-25.528V16.825z"/>
<line fill="none" stroke="#333333" stroke-linecap="round" stroke-linejoin="round" x1="21.547" y1="20.02" x2="21.547" y2="57.384"/>
<line fill="none" stroke="#333333" stroke-linecap="round" stroke-linejoin="round" x1="22.115" y1="44.357" x2="62.88" y2="44.357"/>
<line fill="none" stroke="#333333" stroke-width="2" stroke-linecap="round" stroke-linejoin="round" x1="27.208" y1="25.669" x2="27.208" y2="43.778"/>
<line fill="none" stroke="#333333" stroke-width="2" stroke-linecap="round" stroke-linejoin="round" x1="42.99" y1="31.717" x2="43.064" y2="43.778"/>
<line fill="none" stroke="#333333" stroke-width="2" stroke-linecap="round" stroke-linejoin="round" x1="35.057" y1="28.82" x2="35.142" y2="43.778"/>
<line fill="none" stroke="#333333" stroke-width="2" stroke-linecap="round" stroke-linejoin="round" x1="50.925" y1="34.182" x2="50.989" y2="43.778"/>
<line fill="none" stroke="#333333" stroke-width="2" stroke-linecap="round" stroke-linejoin="round" x1="60.039" y1="37.505" x2="60.048" y2="43.778"/>
</svg>
