<?xml version="1.0" encoding="utf-8"?>
<!-- Generator: Adobe Illustrator 13.0.0, SVG Export Plug-In . SVG Version: 6.00 Build 14576)  -->
<!DOCTYPE svg PUBLIC "-//W3C//DTD SVG 1.1//EN" "http://www.w3.org/Graphics/SVG/1.1/DTD/svg11.dtd">
<svg version="1.1" id="Layer_1" xmlns="http://www.w3.org/2000/svg" xmlns:xlink="http://www.w3.org/1999/xlink" x="0px" y="0px"
	 width="80px" height="80px" viewBox="0 0 80 80" enable-background="new 0 0 80 80" xml:space="preserve">
<path fill="#51A425" stroke="#333333" stroke-linecap="square" d="M10.224,17.252c0-3.326,4.82-7.418,8.724-7.418h41.438
	c3.905,0,8.725,4.093,8.725,7.418v27.527c0,13.838-13.175,25.055-29.443,25.055c-16.269,0-29.443-11.217-29.443-25.055V17.252z"/>
<line fill="none" stroke="#333333" stroke-linecap="round" stroke-linejoin="round" x1="21.884" y1="20.388" x2="21.884" y2="57.058"/>
<line fill="none" stroke="#333333" stroke-linecap="round" stroke-linejoin="round" x1="22.014" y1="47.906" x2="62.021" y2="47.906"/>
<line fill="none" stroke="#000000" stroke-width="2" stroke-linecap="round" stroke-linejoin="round" x1="26.03" y1="30.357" x2="26.03" y2="47.452"/>
<line fill="none" stroke="#000000" stroke-width="2" stroke-linecap="round" stroke-linejoin="round" x1="42.555" y1="30.357" x2="42.555" y2="47.452"/>
<line fill="none" stroke="#000000" stroke-width="2" stroke-linecap="round" stroke-linejoin="round" x1="34.293" y1="30.357" x2="34.293" y2="47.452"/>
<line fill="none" stroke="#000000" stroke-width="2" stroke-linecap="round" stroke-linejoin="round" x1="50.794" y1="30.357" x2="50.794" y2="47.452"/>
<line fill="none" stroke="#000000" stroke-width="2" stroke-linecap="round" stroke-linejoin="round" x1="60.22" y1="30.357" x2="60.22" y2="47.452"/>
</svg>
