<?xml version="1.0" encoding="utf-8"?>
<!-- Generator: Adobe Illustrator 14.0.0, SVG Export Plug-In . SVG Version: 6.00 Build 43363)  -->
<!DOCTYPE svg PUBLIC "-//W3C//DTD SVG 1.1//EN" "http://www.w3.org/Graphics/SVG/1.1/DTD/svg11.dtd">
<svg version="1.1" id="Layer_1" xmlns="http://www.w3.org/2000/svg" xmlns:xlink="http://www.w3.org/1999/xlink" x="0px" y="0px"
	 width="80px" height="80px" viewBox="0 0 80 80" enable-background="new 0 0 80 80" xml:space="preserve">
<g>
	<path fill="#3399FF" stroke="#333333" stroke-linecap="round" stroke-linejoin="round" d="M5.598,23.098
		c0-9.332,7.571-16.902,16.902-16.902h33.805c9.332,0,16.889,7.571,16.889,16.902v33.806c0,9.33-7.557,16.9-16.889,16.9H22.5
		c-9.332,0-16.902-7.57-16.902-16.9V23.098L5.598,23.098z"/>
</g>
<path fill="#F5D04E" stroke="#333333" stroke-linecap="round" stroke-linejoin="round" d="M68,20.5c0-2.869,2.326-5.195,5.193-5.195
	c2.882,0,5.209,2.327,5.209,5.195s-2.327,5.194-5.209,5.194C70.326,25.695,68,23.369,68,20.5z"/>
<path fill="#F5D04E" stroke="#333333" stroke-linecap="round" stroke-linejoin="round" d="M68,33.5c0-2.869,2.326-5.195,5.193-5.195
	c2.882,0,5.209,2.327,5.209,5.195s-2.327,5.194-5.209,5.194C70.326,38.695,68,36.368,68,33.5z"/>
<path fill="#F5D04E" stroke="#333333" stroke-linecap="round" stroke-linejoin="round" d="M68,46.499
	c0-2.867,2.326-5.192,5.193-5.192c2.882,0,5.209,2.325,5.209,5.192c0,2.868-2.327,5.196-5.209,5.196
	C70.326,51.695,68,49.367,68,46.499z"/>
<path fill="#F5D04E" stroke="#333333" stroke-linecap="round" stroke-linejoin="round" d="M68,59.5c0-2.869,2.326-5.195,5.193-5.195
	c2.882,0,5.209,2.326,5.209,5.195c0,2.868-2.327,5.195-5.209,5.195C70.326,64.695,68,62.368,68,59.5z"/>
<path fill="#DF3800" stroke="#333333" stroke-linecap="round" stroke-linejoin="round" d="M34.299,6.195
	C34.299,3.327,36.638,1,39.507,1c2.868,0,5.194,2.327,5.194,5.194c0,2.88-2.326,5.208-5.194,5.208
	C36.638,11.402,34.299,9.076,34.299,6.195z"/>
<path fill="#DF3800" stroke="#333333" stroke-linecap="round" stroke-linejoin="round" d="M34.299,73.854
	c0-2.881,2.339-5.207,5.208-5.207c2.868,0,5.194,2.326,5.194,5.207c0,2.868-2.326,5.194-5.194,5.194
	C36.638,79.049,34.299,76.723,34.299,73.854z"/>
<line fill="none" stroke="#333333" stroke-linecap="square" stroke-linejoin="round" x1="9.008" y1="42.13" x2="68.1" y2="42.13"/>
<g>
	<g>
		<g>
			<path fill="none" stroke="#333333" stroke-linecap="square" stroke-linejoin="round" d="M11.778,41.12
				c6.118-46.263,11.806,0,11.806,0"/>
			<path fill="none" stroke="#333333" stroke-linecap="square" stroke-linejoin="round" d="M34.712,37.907
				c-6.119,46.263-11.794,0-11.794,0"/>
		</g>
		<g>
			<path fill="none" stroke="#333333" stroke-linecap="square" stroke-linejoin="round" d="M11.778,41.896
				c3.065-23.131,5.909,0,5.909,0"/>
			<path fill="none" stroke="#333333" stroke-linecap="square" stroke-linejoin="round" d="M23.251,40.283
				c-3.065,23.131-5.896,0-5.896,0"/>
		</g>
		<g>
			<path fill="none" stroke="#333333" stroke-linecap="square" stroke-linejoin="round" d="M34.712,40.283
				c-3.053,23.131-5.897,0-5.897,0"/>
			<path fill="none" stroke="#333333" stroke-linecap="square" stroke-linejoin="round" d="M23.251,41.896
				c3.053-23.131,5.897,0,5.897,0"/>
		</g>
	</g>
	<g>
		<g>
			<path fill="none" stroke="#333333" stroke-linecap="square" stroke-linejoin="round" d="M34.528,42.45
				c6.119-46.263,11.805,0,11.805,0"/>
			<path fill="none" stroke="#333333" stroke-linecap="square" stroke-linejoin="round" d="M57.463,39.237
				c-6.119,46.263-11.794,0-11.794,0"/>
		</g>
		<g>
			<path fill="none" stroke="#333333" stroke-linecap="square" stroke-linejoin="round" d="M34.528,43.227
				c3.065-23.133,5.909,0,5.909,0"/>
			<path fill="none" stroke="#333333" stroke-linecap="square" stroke-linejoin="round" d="M46.001,41.613
				c-3.065,23.131-5.897,0-5.897,0"/>
		</g>
		<g>
			<path fill="none" stroke="#333333" stroke-linecap="square" stroke-linejoin="round" d="M57.463,41.613
				c-3.054,23.131-5.898,0-5.898,0"/>
			<path fill="none" stroke="#333333" stroke-linecap="square" stroke-linejoin="round" d="M46.001,43.227
				c3.054-23.133,5.896,0,5.896,0"/>
		</g>
	</g>
</g>
<g>
	<g>
		<g>
			<path fill="none" stroke="#333333" stroke-linecap="square" stroke-linejoin="round" d="M17.687,41.12
				c6.119-46.263,11.806,0,11.806,0"/>
			<path fill="none" stroke="#333333" stroke-linecap="square" stroke-linejoin="round" d="M40.621,37.907
				c-6.118,46.263-11.793,0-11.793,0"/>
		</g>
		<g>
			<path fill="none" stroke="#333333" stroke-linecap="square" stroke-linejoin="round" d="M17.687,41.896
				c3.066-23.131,5.909,0,5.909,0"/>
			<path fill="none" stroke="#333333" stroke-linecap="square" stroke-linejoin="round" d="M29.16,40.283
				c-3.065,23.131-5.896,0-5.896,0"/>
		</g>
		<g>
			<path fill="none" stroke="#333333" stroke-linecap="square" stroke-linejoin="round" d="M40.621,40.283
				c-3.053,23.131-5.897,0-5.897,0"/>
			<path fill="none" stroke="#333333" stroke-linecap="square" stroke-linejoin="round" d="M29.16,41.896
				c3.053-23.131,5.897,0,5.897,0"/>
		</g>
	</g>
	<g>
		<g>
			<path fill="none" stroke="#333333" stroke-linecap="square" stroke-linejoin="round" d="M40.437,42.45
				c6.118-46.263,11.806,0,11.806,0"/>
			<path fill="none" stroke="#333333" stroke-linecap="square" stroke-linejoin="round" d="M63.37,39.237
				c-6.116,46.263-11.793,0-11.793,0"/>
		</g>
		<g>
			<path fill="none" stroke="#333333" stroke-linecap="square" stroke-linejoin="round" d="M40.437,43.227
				c3.066-23.133,5.909,0,5.909,0"/>
			<path fill="none" stroke="#333333" stroke-linecap="square" stroke-linejoin="round" d="M51.91,41.613
				c-3.064,23.131-5.896,0-5.896,0"/>
		</g>
		<g>
			<path fill="none" stroke="#333333" stroke-linecap="square" stroke-linejoin="round" d="M63.37,41.613
				c-3.052,23.131-5.896,0-5.896,0"/>
			<path fill="none" stroke="#333333" stroke-linecap="square" stroke-linejoin="round" d="M51.91,43.227
				c3.052-23.133,5.896,0,5.896,0"/>
		</g>
	</g>
</g>
</svg>
