<?xml version="1.0" encoding="utf-8"?>
<!-- Generator: Adobe Illustrator 13.0.0, SVG Export Plug-In . SVG Version: 6.00 Build 14576)  -->
<!DOCTYPE svg PUBLIC "-//W3C//DTD SVG 1.1//EN" "http://www.w3.org/Graphics/SVG/1.1/DTD/svg11.dtd">
<svg version="1.1" id="Layer_1" xmlns="http://www.w3.org/2000/svg" xmlns:xlink="http://www.w3.org/1999/xlink" x="0px" y="0px"
	 width="80px" height="80px" viewBox="0 0 80 80" enable-background="new 0 0 80 80" xml:space="preserve">
<g>
	<g>
		<path fill="#3399FF" stroke="#333333" stroke-linecap="round" stroke-linejoin="round" d="M9.396,25c0-8.282,6.72-15,15.003-15
			h30.006c8.284,0,14.991,6.719,14.991,15v30.001c0,8.28-6.707,14.998-14.991,14.998H24.398c-8.283,0-15.003-6.718-15.003-14.998V25
			z"/>
	</g>
	
		<line fill="none" stroke="#333333" stroke-linecap="square" stroke-linejoin="round" x1="14.783" y1="41.923" x2="60.792" y2="41.923"/>
	<g>
		<g>
			<g>
				<g>
					<path fill="none" stroke="#333333" stroke-linecap="square" stroke-linejoin="round" d="M17.807,40.903
						c4.737-36.621,9.141,0,9.141,0"/>
					<path fill="none" stroke="#333333" stroke-linecap="square" stroke-linejoin="round" d="M35.563,38.361
						c-4.738,36.62-9.131,0-9.131,0"/>
				</g>
				<g>
					<path fill="none" stroke="#333333" stroke-linecap="square" stroke-linejoin="round" d="M17.807,41.52
						c2.373-18.312,4.575,0,4.575,0"/>
					<path fill="none" stroke="#333333" stroke-linecap="square" stroke-linejoin="round" d="M26.689,40.241
						c-2.373,18.31-4.564,0-4.564,0"/>
				</g>
				<g>
					<path fill="none" stroke="#333333" stroke-linecap="square" stroke-linejoin="round" d="M35.563,40.241
						c-2.364,18.31-4.565,0-4.565,0"/>
					<path fill="none" stroke="#333333" stroke-linecap="square" stroke-linejoin="round" d="M26.689,41.52
						c2.364-18.312,4.565,0,4.565,0"/>
				</g>
			</g>
			<g>
				<g>
					<path fill="none" stroke="#333333" stroke-linecap="square" stroke-linejoin="round" d="M35.42,41.957
						c4.737-36.622,9.14,0,9.14,0"/>
					<path fill="none" stroke="#333333" stroke-linecap="square" stroke-linejoin="round" d="M53.178,39.413
						c-4.737,36.62-9.133,0-9.133,0"/>
				</g>
				<g>
					<path fill="none" stroke="#333333" stroke-linecap="square" stroke-linejoin="round" d="M35.42,42.571
						c2.373-18.312,4.575,0,4.575,0"/>
					<path fill="none" stroke="#333333" stroke-linecap="square" stroke-linejoin="round" d="M44.303,41.295
						c-2.373,18.309-4.565,0-4.565,0"/>
				</g>
				<g>
					<path fill="none" stroke="#333333" stroke-linecap="square" stroke-linejoin="round" d="M53.178,41.295
						c-2.364,18.309-4.567,0-4.567,0"/>
					<path fill="none" stroke="#333333" stroke-linecap="square" stroke-linejoin="round" d="M44.303,42.571
						c2.364-18.312,4.565,0,4.565,0"/>
				</g>
			</g>
		</g>
		<g>
			<g>
				<g>
					<path fill="none" stroke="#333333" stroke-linecap="square" stroke-linejoin="round" d="M22.382,40.903
						c4.737-36.621,9.141,0,9.141,0"/>
					<path fill="none" stroke="#333333" stroke-linecap="square" stroke-linejoin="round" d="M40.138,38.361
						c-4.737,36.62-9.13,0-9.13,0"/>
				</g>
				<g>
					<path fill="none" stroke="#333333" stroke-linecap="square" stroke-linejoin="round" d="M22.382,41.52
						c2.374-18.312,4.575,0,4.575,0"/>
					<path fill="none" stroke="#333333" stroke-linecap="square" stroke-linejoin="round" d="M31.265,40.241
						c-2.373,18.31-4.565,0-4.565,0"/>
				</g>
				<g>
					<path fill="none" stroke="#333333" stroke-linecap="square" stroke-linejoin="round" d="M40.138,40.241
						c-2.364,18.31-4.566,0-4.566,0"/>
					<path fill="none" stroke="#333333" stroke-linecap="square" stroke-linejoin="round" d="M31.265,41.52
						c2.363-18.312,4.565,0,4.565,0"/>
				</g>
			</g>
			<g>
				<g>
					<path fill="none" stroke="#333333" stroke-linecap="square" stroke-linejoin="round" d="M39.996,41.957
						c4.737-36.622,9.14,0,9.14,0"/>
					<path fill="none" stroke="#333333" stroke-linecap="square" stroke-linejoin="round" d="M57.751,39.413
						c-4.735,36.62-9.131,0-9.131,0"/>
				</g>
				<g>
					<path fill="none" stroke="#333333" stroke-linecap="square" stroke-linejoin="round" d="M39.996,42.571
						c2.375-18.312,4.574,0,4.574,0"/>
					<path fill="none" stroke="#333333" stroke-linecap="square" stroke-linejoin="round" d="M48.878,41.295
						c-2.373,18.309-4.565,0-4.565,0"/>
				</g>
				<g>
					<path fill="none" stroke="#333333" stroke-linecap="square" stroke-linejoin="round" d="M57.751,41.295
						c-2.362,18.309-4.565,0-4.565,0"/>
					<path fill="none" stroke="#333333" stroke-linecap="square" stroke-linejoin="round" d="M48.878,42.571
						c2.363-18.312,4.565,0,4.565,0"/>
				</g>
			</g>
		</g>
	</g>
</g>
</svg>
