<?xml version="1.0" encoding="utf-8"?>
<!-- Generator: Adobe Illustrator 13.0.0, SVG Export Plug-In . SVG Version: 6.00 Build 14576)  -->
<!DOCTYPE svg PUBLIC "-//W3C//DTD SVG 1.1//EN" "http://www.w3.org/Graphics/SVG/1.1/DTD/svg11.dtd">
<svg version="1.1" id="Layer_1" xmlns="http://www.w3.org/2000/svg" xmlns:xlink="http://www.w3.org/1999/xlink" x="0px" y="0px"
	 width="80px" height="80px" viewBox="0 0 80 80" enable-background="new 0 0 80 80" xml:space="preserve">
<g>
	<path fill="#3399FF" stroke="#333333" stroke-linecap="round" stroke-linejoin="round" d="M3.598,23.098
		c0-9.332,7.571-16.902,16.902-16.902h33.805c9.332,0,16.889,7.571,16.889,16.902v33.806c0,9.33-7.557,16.9-16.889,16.9H20.5
		c-9.332,0-16.902-7.57-16.902-16.9V23.098z"/>
</g>
<path fill="#F5D04E" stroke="#333333" stroke-linecap="round" stroke-linejoin="round" d="M66,20.5c0-2.869,2.326-5.195,5.193-5.195
	c2.882,0,5.209,2.327,5.209,5.195s-2.327,5.194-5.209,5.194C68.326,25.695,66,23.369,66,20.5z"/>
<path fill="#F5D04E" stroke="#333333" stroke-linecap="round" stroke-linejoin="round" d="M66,33.5c0-2.869,2.326-5.195,5.193-5.195
	c2.882,0,5.209,2.327,5.209,5.195s-2.327,5.194-5.209,5.194C68.326,38.695,66,36.368,66,33.5z"/>
<path fill="#F5D04E" stroke="#333333" stroke-linecap="round" stroke-linejoin="round" d="M66,46.499
	c0-2.867,2.326-5.192,5.193-5.192c2.882,0,5.209,2.325,5.209,5.192c0,2.868-2.327,5.196-5.209,5.196
	C68.326,51.695,66,49.367,66,46.499z"/>
<path fill="#F5D04E" stroke="#333333" stroke-linecap="round" stroke-linejoin="round" d="M66,59.5c0-2.869,2.326-5.195,5.193-5.195
	c2.882,0,5.209,2.326,5.209,5.195c0,2.868-2.327,5.195-5.209,5.195C68.326,64.695,66,62.368,66,59.5z"/>
<path fill="#DF0040" stroke="#333333" stroke-linecap="round" stroke-linejoin="round" d="M32.299,6.195
	C32.299,3.327,34.638,1,37.507,1c2.868,0,5.194,2.327,5.194,5.195c0,2.88-2.326,5.208-5.194,5.208
	C34.638,11.403,32.299,9.076,32.299,6.195z"/>
<path fill="#DF0040" stroke="#333333" stroke-linecap="round" stroke-linejoin="round" d="M32.299,73.805
	c0-2.881,2.339-5.207,5.208-5.207c2.868,0,5.194,2.326,5.194,5.207c0,2.868-2.326,5.194-5.194,5.194
	C34.638,78.999,32.299,76.673,32.299,73.805z"/>
<line fill="none" stroke="#333333" stroke-linecap="square" stroke-linejoin="round" x1="14.054" y1="41.664" x2="59.055" y2="41.664"/>
<line fill="none" stroke="#333333" stroke-width="2" stroke-linecap="round" stroke-linejoin="round" x1="37.712" y1="29.043" x2="37.712" y2="54.624"/>
<line fill="none" stroke="#333333" stroke-width="2" stroke-linecap="round" stroke-linejoin="round" x1="37.232" y1="28.376" x2="16.055" y2="28.376"/>
<line fill="none" stroke="#333333" stroke-width="2" stroke-linecap="round" stroke-linejoin="round" x1="59.055" y1="54.874" x2="37.878" y2="54.874"/>
</svg>
