<?xml version="1.0" encoding="utf-8"?>
<!-- Generator: Adobe Illustrator 13.0.0, SVG Export Plug-In . SVG Version: 6.00 Build 14576)  -->
<!DOCTYPE svg PUBLIC "-//W3C//DTD SVG 1.1//EN" "http://www.w3.org/Graphics/SVG/1.1/DTD/svg11.dtd">
<svg version="1.1" id="Layer_1" xmlns="http://www.w3.org/2000/svg" xmlns:xlink="http://www.w3.org/1999/xlink" x="0px" y="0px"
	 width="80px" height="80px" viewBox="0 0 80 80" enable-background="new 0 0 80 80" xml:space="preserve">
<g>
	<g>
		<path fill="#3399FF" stroke="#333333" stroke-linecap="round" stroke-linejoin="round" d="M10.006,25c0-8.282,6.72-15,15-15h30
			c8.283,0,14.988,6.719,14.988,15v30.001C69.994,63.282,63.289,70,55.006,70h-30c-8.281,0-15-6.718-15-14.999V25z"/>
	</g>
	
		<line fill="none" stroke="#333333" stroke-linecap="square" stroke-linejoin="round" x1="17.021" y1="53.014" x2="56.957" y2="53.014"/>
	<g>
		<path fill="none" stroke="#333333" stroke-width="2" stroke-linecap="round" stroke-linejoin="round" d="M18.693,53.876
			c4.095,0,3.258-24.79,6.252-23.952"/>
		<path fill="none" stroke="#333333" stroke-width="2" stroke-linecap="round" stroke-linejoin="round" d="M31.241,53.876
			c-4.117,0-3.258-24.79-6.251-23.952"/>
	</g>
	<g>
		<path fill="none" stroke="#333333" stroke-width="2" stroke-linecap="round" stroke-linejoin="round" d="M27.808,53.876
			c4.116,0,3.259-29.5,6.274-28.51"/>
		<path fill="none" stroke="#333333" stroke-width="2" stroke-linecap="round" stroke-linejoin="round" d="M40.381,53.876
			c-4.119,0-3.261-29.5-6.276-28.51"/>
	</g>
	<g>
		<path fill="none" stroke="#333333" stroke-width="2" stroke-linecap="round" stroke-linejoin="round" d="M36.944,53.876
			c4.116,0,3.261-16.511,6.272-15.96"/>
		<path fill="none" stroke="#333333" stroke-width="2" stroke-linecap="round" stroke-linejoin="round" d="M49.492,53.876
			c-4.095,0-3.257-16.511-6.25-15.96"/>
	</g>
	<g>
		<path fill="none" stroke="#333333" stroke-width="2" stroke-linecap="round" stroke-linejoin="round" d="M46.082,53.876
			c4.115,0,3.258-22.434,6.252-21.663"/>
		<path fill="none" stroke="#333333" stroke-width="2" stroke-linecap="round" stroke-linejoin="round" d="M58.629,53.876
			c-4.115,0-3.26-22.434-6.252-21.663"/>
	</g>
</g>
</svg>
