<?xml version="1.0" encoding="utf-8"?>
<!-- Generator: Adobe Illustrator 13.0.0, SVG Export Plug-In . SVG Version: 6.00 Build 14576)  -->
<!DOCTYPE svg PUBLIC "-//W3C//DTD SVG 1.1//EN" "http://www.w3.org/Graphics/SVG/1.1/DTD/svg11.dtd">
<svg version="1.1" id="Layer_1" xmlns="http://www.w3.org/2000/svg" xmlns:xlink="http://www.w3.org/1999/xlink" x="0px" y="0px"
	 width="80px" height="80px" viewBox="0 0 80 80" enable-background="new 0 0 80 80" xml:space="preserve">
<g>
	<path fill="#51A425" stroke="#333333" stroke-linecap="square" d="M9.667,17.252c0-3.326,4.911-7.418,8.889-7.418h42.222
		c3.979,0,8.89,4.093,8.89,7.418v27.527c0,13.838-13.424,25.055-30,25.055c-16.577,0-30-11.217-30-25.055V17.252z"/>
	
		<line fill="none" stroke="#333333" stroke-linecap="round" stroke-linejoin="round" x1="21.547" y1="20.388" x2="21.547" y2="57.058"/>
	
		<line fill="none" stroke="#333333" stroke-linecap="round" stroke-linejoin="round" x1="21.68" y1="39.358" x2="62.444" y2="39.358"/>
	<g>
		<path fill="none" stroke="#2D3238" stroke-width="2" stroke-linecap="round" d="M22.521,40.253c10.451-41.732,20.181,0,20.181,0"
			/>
		<path fill="none" stroke="#2D3238" stroke-width="2" stroke-linecap="round" d="M61.712,37.348c-10.448,41.731-20.144,0-20.144,0"
			/>
	</g>
	<g>
		<path fill="none" stroke="#2D3238" stroke-width="2" stroke-linecap="round" d="M22.521,40.943c5.226-20.865,10.073,0,10.073,0"/>
		<path fill="none" stroke="#2D3238" stroke-width="2" stroke-linecap="round" d="M42.117,39.503c-5.226,20.868-10.073,0-10.073,0"
			/>
	</g>
	<g>
		<path fill="none" stroke="#2D3238" stroke-width="2" stroke-linecap="round" d="M61.712,39.503c-5.225,20.868-10.071,0-10.071,0"
			/>
		<path fill="none" stroke="#2D3238" stroke-width="2" stroke-linecap="round" d="M42.117,40.943c5.224-20.865,10.106,0,10.106,0"/>
	</g>
</g>
</svg>
