<?xml version="1.0" encoding="utf-8"?>
<!-- Generator: Adobe Illustrator 13.0.0, SVG Export Plug-In . SVG Version: 6.00 Build 14576)  -->
<!DOCTYPE svg PUBLIC "-//W3C//DTD SVG 1.1//EN" "http://www.w3.org/Graphics/SVG/1.1/DTD/svg11.dtd">
<svg version="1.1" id="Layer_1" xmlns="http://www.w3.org/2000/svg" xmlns:xlink="http://www.w3.org/1999/xlink" x="0px" y="0px"
	 width="80px" height="80px" viewBox="0 0 80 80" enable-background="new 0 0 80 80" xml:space="preserve">
<path fill="#51A425" stroke="#333333" stroke-linecap="square" d="M9.667,16.825c0-3.389,4.911-7.559,8.888-7.559h42.222
	c3.979,0,8.89,4.171,8.89,7.559v28.048c0,14.099-13.424,25.528-30,25.528c-16.577,0-30-11.43-30-25.528V16.825z"/>
<line fill="none" stroke="#333333" stroke-linecap="round" stroke-linejoin="round" x1="21.547" y1="20.02" x2="21.547" y2="57.383"/>
<line fill="none" stroke="#333333" stroke-linecap="round" stroke-linejoin="round" x1="21.68" y1="39.35" x2="62.444" y2="39.35"/>
<g>
	<g>
		<g id="XMLID_1_">
			<g>
				<path fill="#0A0A0A" d="M27.903,35.58c2.909-0.087,2.073,2.77,6.053,2.77v0.131c-3.98,0-3.144,2.856-6.053,2.77H27.86
					c-2.9,0.087-2.073-2.77-6.053-2.77V38.35c3.98,0,3.153-2.856,6.053-2.77H27.903z"/>
			</g>
			<g>
				<path fill="none" stroke="#666666" stroke-width="0.36" stroke-linecap="square" stroke-linejoin="round" d="M21.807,38.35
					c3.98,0,3.153-2.856,6.053-2.77"/>
				<path fill="none" stroke="#666666" stroke-width="0.36" stroke-linecap="square" stroke-linejoin="round" d="M33.956,38.35
					c-3.98,0-3.144-2.856-6.053-2.77"/>
				<path fill="none" stroke="#666666" stroke-width="0.36" stroke-linecap="square" stroke-linejoin="round" d="M33.956,38.48
					c-3.98,0-3.144,2.856-6.053,2.77"/>
				<path fill="none" stroke="#666666" stroke-width="0.36" stroke-linecap="square" stroke-linejoin="round" d="M21.807,38.48
					c3.98,0,3.153,2.856,6.053,2.77"/>
			</g>
		</g>
	</g>
</g>
<g>
	<g>
		<g id="XMLID_2_">
			<g>
				<path fill="#0A0A0A" d="M40.053,35.882v0.13c-3.98,0-3.144,2.857-6.053,2.77h-0.044c-2.9,0.087-2.073-2.77-6.053-2.77v-0.13
					c3.98,0,3.153-2.857,6.053-2.77H34C36.909,33.025,36.073,35.882,40.053,35.882z"/>
			</g>
			<g>
				<path fill="none" stroke="#666666" stroke-width="0.36" stroke-linecap="square" stroke-linejoin="round" d="M27.903,35.882
					c3.98,0,3.153-2.857,6.053-2.77"/>
				<path fill="none" stroke="#666666" stroke-width="0.36" stroke-linecap="square" stroke-linejoin="round" d="M40.053,35.882
					c-3.98,0-3.144-2.857-6.053-2.77"/>
				<path fill="none" stroke="#666666" stroke-width="0.36" stroke-linecap="square" stroke-linejoin="round" d="M40.053,36.012
					c-3.98,0-3.144,2.857-6.053,2.77"/>
				<path fill="none" stroke="#666666" stroke-width="0.36" stroke-linecap="square" stroke-linejoin="round" d="M27.903,36.012
					c3.98,0,3.153,2.857,6.053,2.77"/>
			</g>
		</g>
	</g>
</g>
<g>
	<g>
		<g id="XMLID_3_">
			<g>
				<path fill="#0A0A0A" d="M42.193,40.962v0.131c-3.98,0-3.144,2.856-6.053,2.77h-0.043c-2.9,0.087-2.073-2.77-6.053-2.77v-0.131
					c3.98,0,3.153-2.857,6.053-2.77h0.043C39.049,38.105,38.213,40.962,42.193,40.962z"/>
			</g>
			<g>
				<path fill="none" stroke="#666666" stroke-width="0.36" stroke-linecap="square" stroke-linejoin="round" d="M30.044,40.962
					c3.98,0,3.153-2.857,6.053-2.77"/>
				<path fill="none" stroke="#666666" stroke-width="0.36" stroke-linecap="square" stroke-linejoin="round" d="M42.193,40.962
					c-3.98,0-3.144-2.857-6.053-2.77"/>
				<path fill="none" stroke="#666666" stroke-width="0.36" stroke-linecap="square" stroke-linejoin="round" d="M42.193,41.093
					c-3.98,0-3.144,2.856-6.053,2.77"/>
				<path fill="none" stroke="#666666" stroke-width="0.36" stroke-linecap="square" stroke-linejoin="round" d="M30.044,41.093
					c3.98,0,3.153,2.856,6.053,2.77"/>
			</g>
		</g>
	</g>
</g>
<g>
	<g>
		<g id="XMLID_4_">
			<g>
				<path fill="#0A0A0A" d="M48.326,37.26v0.131c-3.979,0-3.144,2.856-6.053,2.77H42.23c-2.9,0.087-2.073-2.77-6.053-2.77V37.26
					c3.98,0,3.153-2.856,6.053-2.77h0.043C45.183,34.404,44.347,37.26,48.326,37.26z"/>
			</g>
			<g>
				<path fill="none" stroke="#666666" stroke-width="0.36" stroke-linecap="square" stroke-linejoin="round" d="M36.177,37.26
					c3.98,0,3.153-2.856,6.053-2.77"/>
				<path fill="none" stroke="#666666" stroke-width="0.36" stroke-linecap="square" stroke-linejoin="round" d="M48.326,37.26
					c-3.979,0-3.144-2.856-6.053-2.77"/>
				<path fill="none" stroke="#666666" stroke-width="0.36" stroke-linecap="square" stroke-linejoin="round" d="M48.326,37.391
					c-3.979,0-3.144,2.856-6.053,2.77"/>
				<path fill="none" stroke="#666666" stroke-width="0.36" stroke-linecap="square" stroke-linejoin="round" d="M36.177,37.391
					c3.98,0,3.153,2.856,6.053,2.77"/>
			</g>
		</g>
	</g>
</g>
<g>
	<g>
		<g id="XMLID_5_">
			<g>
				<path fill="#0A0A0A" d="M51.811,42.377v0.131c-3.98,0-3.145,2.856-6.054,2.77h-0.043c-2.9,0.087-2.073-2.77-6.053-2.77v-0.131
					c3.98,0,3.153-2.856,6.053-2.77h0.043C48.666,39.521,47.83,42.377,51.811,42.377z"/>
			</g>
			<g>
				<path fill="none" stroke="#666666" stroke-width="0.36" stroke-linecap="square" stroke-linejoin="round" d="M39.661,42.377
					c3.98,0,3.153-2.856,6.053-2.77"/>
				<path fill="none" stroke="#666666" stroke-width="0.36" stroke-linecap="square" stroke-linejoin="round" d="M51.811,42.377
					c-3.98,0-3.145-2.856-6.054-2.77"/>
				<path fill="none" stroke="#666666" stroke-width="0.36" stroke-linecap="square" stroke-linejoin="round" d="M51.811,42.508
					c-3.98,0-3.145,2.856-6.054,2.77"/>
				<path fill="none" stroke="#666666" stroke-width="0.36" stroke-linecap="square" stroke-linejoin="round" d="M39.661,42.508
					c3.98,0,3.153,2.856,6.053,2.77"/>
			</g>
		</g>
	</g>
</g>
<g>
	<g>
		<g id="XMLID_6_">
			<g>
				<path fill="#0A0A0A" d="M48.073,33.559v0.13c-3.98,0-3.145,2.857-6.053,2.77h-0.044c-2.9,0.087-2.073-2.77-6.053-2.77v-0.13
					c3.98,0,3.152-2.857,6.053-2.77h0.044C44.929,30.702,44.093,33.559,48.073,33.559z"/>
			</g>
			<g>
				<path fill="none" stroke="#666666" stroke-width="0.36" stroke-linecap="square" stroke-linejoin="round" d="M35.924,33.559
					c3.98,0,3.152-2.857,6.053-2.77"/>
				<path fill="none" stroke="#666666" stroke-width="0.36" stroke-linecap="square" stroke-linejoin="round" d="M48.073,33.559
					c-3.98,0-3.145-2.857-6.053-2.77"/>
				<path fill="none" stroke="#666666" stroke-width="0.36" stroke-linecap="square" stroke-linejoin="round" d="M48.073,33.689
					c-3.98,0-3.145,2.857-6.053,2.77"/>
				<path fill="none" stroke="#666666" stroke-width="0.36" stroke-linecap="square" stroke-linejoin="round" d="M35.924,33.689
					c3.98,0,3.152,2.857,6.053,2.77"/>
			</g>
		</g>
	</g>
</g>
<g>
	<g>
		<g id="XMLID_7_">
			<g>
				<path fill="#0A0A0A" d="M56.201,37.514v0.131c-3.979,0-3.144,2.856-6.053,2.77h-0.044c-2.899,0.087-2.072-2.77-6.053-2.77
					v-0.131c3.98,0,3.153-2.856,6.053-2.77h0.044C53.058,34.657,52.222,37.514,56.201,37.514z"/>
			</g>
			<g>
				<path fill="none" stroke="#666666" stroke-width="0.36" stroke-linecap="square" stroke-linejoin="round" d="M44.052,37.514
					c3.98,0,3.153-2.856,6.053-2.77"/>
				<path fill="none" stroke="#666666" stroke-width="0.36" stroke-linecap="square" stroke-linejoin="round" d="M56.201,37.514
					c-3.979,0-3.144-2.856-6.053-2.77"/>
				<path fill="none" stroke="#666666" stroke-width="0.36" stroke-linecap="square" stroke-linejoin="round" d="M56.201,37.645
					c-3.979,0-3.144,2.856-6.053,2.77"/>
				<path fill="none" stroke="#666666" stroke-width="0.36" stroke-linecap="square" stroke-linejoin="round" d="M44.052,37.645
					c3.98,0,3.153,2.856,6.053,2.77"/>
			</g>
		</g>
	</g>
</g>
<g>
	<g>
		<g id="XMLID_8_">
			<g>
				<path fill="#0A0A0A" d="M61.101,41.36v0.131c-3.98,0-3.145,2.856-6.053,2.77h-0.044c-2.9,0.087-2.073-2.77-6.053-2.77V41.36
					c3.979,0,3.152-2.856,6.053-2.769h0.044C57.956,38.504,57.12,41.36,61.101,41.36z"/>
			</g>
			<g>
				<path fill="none" stroke="#666666" stroke-width="0.36" stroke-linecap="square" stroke-linejoin="round" d="M48.951,41.36
					c3.979,0,3.152-2.856,6.053-2.769"/>
				<path fill="none" stroke="#666666" stroke-width="0.36" stroke-linecap="square" stroke-linejoin="round" d="M61.101,41.36
					c-3.98,0-3.145-2.856-6.053-2.769"/>
				<path fill="none" stroke="#666666" stroke-width="0.36" stroke-linecap="square" stroke-linejoin="round" d="M61.101,41.491
					c-3.98,0-3.145,2.856-6.053,2.77"/>
				<path fill="none" stroke="#666666" stroke-width="0.36" stroke-linecap="square" stroke-linejoin="round" d="M48.951,41.491
					c3.979,0,3.152,2.856,6.053,2.77"/>
			</g>
		</g>
	</g>
</g>
<g>
	<g>
		<g id="XMLID_9_">
			<g>
				<path fill="#0A0A0A" d="M57.798,34.466v0.131c-3.98,0-3.144,2.856-6.053,2.77h-0.044c-2.9,0.087-2.072-2.77-6.053-2.77v-0.131
					c3.98,0,3.152-2.856,6.053-2.77h0.044C54.654,31.61,53.817,34.466,57.798,34.466z"/>
			</g>
			<g>
				<path fill="none" stroke="#666666" stroke-width="0.36" stroke-linecap="square" stroke-linejoin="round" d="M45.648,34.466
					c3.98,0,3.152-2.856,6.053-2.77"/>
				<path fill="none" stroke="#666666" stroke-width="0.36" stroke-linecap="square" stroke-linejoin="round" d="M57.798,34.466
					c-3.98,0-3.144-2.856-6.053-2.77"/>
				<path fill="none" stroke="#666666" stroke-width="0.36" stroke-linecap="square" stroke-linejoin="round" d="M57.798,34.597
					c-3.98,0-3.144,2.856-6.053,2.77"/>
				<path fill="none" stroke="#666666" stroke-width="0.36" stroke-linecap="square" stroke-linejoin="round" d="M45.648,34.597
					c3.98,0,3.152,2.856,6.053,2.77"/>
			</g>
		</g>
	</g>
</g>
</svg>
