<?xml version="1.0" encoding="utf-8"?>
<!-- Generator: Adobe Illustrator 14.0.0, SVG Export Plug-In . SVG Version: 6.00 Build 43363)  -->
<!DOCTYPE svg PUBLIC "-//W3C//DTD SVG 1.1//EN" "http://www.w3.org/Graphics/SVG/1.1/DTD/svg11.dtd">
<svg version="1.1" id="Layer_1" xmlns="http://www.w3.org/2000/svg" xmlns:xlink="http://www.w3.org/1999/xlink" x="0px" y="0px"
	 width="80px" height="80px" viewBox="0 0 80 80" enable-background="new 0 0 80 80" xml:space="preserve">
<path fill="#51A425" stroke="#333333" stroke-linecap="square" d="M5.221,13.415c0-3.891,5.639-8.679,10.206-8.679h48.479
	c4.568,0,10.207,4.789,10.207,8.679V45.62c0,16.188-15.414,29.312-34.446,29.312c-19.033,0-34.446-13.123-34.446-29.312V13.415
	L5.221,13.415z"/>
<line fill="none" stroke="#333333" stroke-linecap="round" stroke-linejoin="round" x1="18.862" y1="17.083" x2="18.862" y2="59.984"/>
<path fill="#F5D04E" stroke="#333333" stroke-linecap="round" stroke-linejoin="round" d="M10.417,5.818
	c0-2.758,2.326-4.985,5.195-4.985c2.88,0,5.207,2.228,5.207,4.985c0,2.745-2.327,4.986-5.207,4.986
	C12.743,10.804,10.417,8.563,10.417,5.818z"/>
<path fill="#F5D04E" stroke="#333333" stroke-linecap="round" stroke-linejoin="round" d="M26.015,5.818
	c0-2.758,2.326-4.985,5.207-4.985c2.868,0,5.195,2.228,5.195,4.985c0,2.745-2.327,4.986-5.195,4.986
	C28.34,10.804,26.015,8.563,26.015,5.818z"/>
<path fill="#F5D04E" stroke="#333333" stroke-linecap="round" stroke-linejoin="round" d="M42.917,5.818
	c0-2.758,2.326-4.985,5.194-4.985c2.881,0,5.207,2.228,5.207,4.985c0,2.745-2.326,4.986-5.207,4.986
	C45.243,10.804,42.917,8.563,42.917,5.818z"/>
<path fill="#F5D04E" stroke="#333333" stroke-linecap="round" stroke-linejoin="round" d="M59.818,5.818
	c0-2.758,2.328-4.985,5.195-4.985s5.209,2.228,5.209,4.985c0,2.745-2.342,4.986-5.209,4.986S59.818,8.563,59.818,5.818z"/>
<path fill="#DF3800" stroke="#333333" stroke-linecap="round" stroke-linejoin="round" d="M34.299,73.847
	c0-2.863,2.339-5.199,5.207-5.199c2.869,0,5.195,2.336,5.195,5.199c0,2.878-2.326,5.202-5.195,5.202
	C36.638,79.049,34.299,76.723,34.299,73.847z"/>
<line fill="none" stroke="#333333" stroke-linecap="round" stroke-linejoin="round" x1="19.014" y1="39.278" x2="65.82" y2="39.278"/>
<g>
	<g>
		<g id="XMLID_1_">
			<g>
				<path fill="#0A0A0A" d="M26.16,34.95c3.34-0.1,2.38,3.18,6.95,3.18v0.15c-4.57,0-3.61,3.28-6.95,3.18h-0.05
					c-3.33,0.101-2.38-3.18-6.95-3.18v-0.15c4.57,0,3.62-3.28,6.95-3.18H26.16z"/>
			</g>
			<g>
				<path fill="none" stroke="#666666" stroke-width="0.36" stroke-linecap="square" stroke-linejoin="round" d="M19.16,38.13
					c4.57,0,3.62-3.28,6.95-3.18"/>
				<path fill="none" stroke="#666666" stroke-width="0.36" stroke-linecap="square" stroke-linejoin="round" d="M33.11,38.13
					c-4.57,0-3.61-3.28-6.95-3.18"/>
				<path fill="none" stroke="#666666" stroke-width="0.36" stroke-linecap="square" stroke-linejoin="round" d="M33.11,38.28
					c-4.57,0-3.61,3.28-6.95,3.18"/>
				<path fill="none" stroke="#666666" stroke-width="0.36" stroke-linecap="square" stroke-linejoin="round" d="M19.16,38.28
					c4.57,0,3.62,3.28,6.95,3.18"/>
			</g>
		</g>
	</g>
</g>
<g>
	<g>
		<g id="XMLID_2_">
			<g>
				<path fill="#0A0A0A" d="M40.11,35.296v0.15c-4.57,0-3.61,3.28-6.95,3.18h-0.05c-3.33,0.1-2.38-3.18-6.95-3.18v-0.15
					c4.57,0,3.62-3.28,6.95-3.18h0.05C36.5,32.016,35.54,35.296,40.11,35.296z"/>
			</g>
			<g>
				<path fill="none" stroke="#666666" stroke-width="0.36" stroke-linecap="square" stroke-linejoin="round" d="M26.16,35.296
					c4.57,0,3.62-3.28,6.95-3.18"/>
				<path fill="none" stroke="#666666" stroke-width="0.36" stroke-linecap="square" stroke-linejoin="round" d="M40.11,35.296
					c-4.57,0-3.61-3.28-6.95-3.18"/>
				<path fill="none" stroke="#666666" stroke-width="0.36" stroke-linecap="square" stroke-linejoin="round" d="M40.11,35.446
					c-4.57,0-3.61,3.28-6.95,3.18"/>
				<path fill="none" stroke="#666666" stroke-width="0.36" stroke-linecap="square" stroke-linejoin="round" d="M26.16,35.446
					c4.57,0,3.62,3.28,6.95,3.18"/>
			</g>
		</g>
	</g>
</g>
<g>
	<g>
		<g id="XMLID_3_">
			<g>
				<path fill="#0A0A0A" d="M42.568,41.129v0.15c-4.57,0-3.61,3.279-6.95,3.18h-0.05c-3.33,0.1-2.38-3.18-6.95-3.18v-0.15
					c4.57,0,3.62-3.28,6.95-3.18h0.05C38.958,37.849,37.998,41.129,42.568,41.129z"/>
			</g>
			<g>
				<path fill="none" stroke="#666666" stroke-width="0.36" stroke-linecap="square" stroke-linejoin="round" d="M28.618,41.129
					c4.57,0,3.62-3.28,6.95-3.18"/>
				<path fill="none" stroke="#666666" stroke-width="0.36" stroke-linecap="square" stroke-linejoin="round" d="M42.568,41.129
					c-4.57,0-3.61-3.28-6.95-3.18"/>
				<path fill="none" stroke="#666666" stroke-width="0.36" stroke-linecap="square" stroke-linejoin="round" d="M42.568,41.279
					c-4.57,0-3.61,3.279-6.95,3.18"/>
				<path fill="none" stroke="#666666" stroke-width="0.36" stroke-linecap="square" stroke-linejoin="round" d="M28.618,41.279
					c4.57,0,3.62,3.279,6.95,3.18"/>
			</g>
		</g>
	</g>
</g>
<g>
	<g>
		<g id="XMLID_4_">
			<g>
				<path fill="#0A0A0A" d="M49.609,36.879v0.15c-4.569,0-3.609,3.28-6.949,3.18h-0.051c-3.331,0.1-2.379-3.18-6.949-3.18v-0.15
					c4.57,0,3.62-3.28,6.949-3.18h0.051C46,33.599,45.04,36.879,49.609,36.879z"/>
			</g>
			<g>
				<path fill="none" stroke="#666666" stroke-width="0.36" stroke-linecap="square" stroke-linejoin="round" d="M35.66,36.879
					c4.57,0,3.62-3.28,6.949-3.18"/>
				<path fill="none" stroke="#666666" stroke-width="0.36" stroke-linecap="square" stroke-linejoin="round" d="M49.609,36.879
					c-4.569,0-3.609-3.28-6.949-3.18"/>
				<path fill="none" stroke="#666666" stroke-width="0.36" stroke-linecap="square" stroke-linejoin="round" d="M49.609,37.029
					c-4.569,0-3.609,3.28-6.949,3.18"/>
				<path fill="none" stroke="#666666" stroke-width="0.36" stroke-linecap="square" stroke-linejoin="round" d="M35.66,37.029
					c4.57,0,3.62,3.28,6.949,3.18"/>
			</g>
		</g>
	</g>
</g>
<g>
	<g>
		<g id="XMLID_5_">
			<g>
				<path fill="#0A0A0A" d="M53.609,42.754v0.15c-4.569,0-3.609,3.279-6.949,3.18h-0.051c-3.33,0.1-2.379-3.18-6.949-3.18v-0.15
					c4.57,0,3.619-3.28,6.949-3.18h0.051C50,39.474,49.04,42.754,53.609,42.754z"/>
			</g>
			<g>
				<path fill="none" stroke="#666666" stroke-width="0.36" stroke-linecap="square" stroke-linejoin="round" d="M39.66,42.754
					c4.57,0,3.619-3.28,6.949-3.18"/>
				<path fill="none" stroke="#666666" stroke-width="0.36" stroke-linecap="square" stroke-linejoin="round" d="M53.609,42.754
					c-4.569,0-3.609-3.28-6.949-3.18"/>
				<path fill="none" stroke="#666666" stroke-width="0.36" stroke-linecap="square" stroke-linejoin="round" d="M53.609,42.904
					c-4.569,0-3.609,3.279-6.949,3.18"/>
				<path fill="none" stroke="#666666" stroke-width="0.36" stroke-linecap="square" stroke-linejoin="round" d="M39.66,42.904
					c4.57,0,3.619,3.279,6.949,3.18"/>
			</g>
		</g>
	</g>
</g>
<g>
	<g>
		<g id="XMLID_6_">
			<g>
				<path fill="#0A0A0A" d="M49.318,32.629v0.15c-4.569,0-3.609,3.28-6.949,3.18h-0.051c-3.331,0.1-2.379-3.18-6.949-3.18v-0.15
					c4.57,0,3.62-3.28,6.949-3.18h0.051C45.709,29.349,44.749,32.629,49.318,32.629z"/>
			</g>
			<g>
				<path fill="none" stroke="#666666" stroke-width="0.36" stroke-linecap="square" stroke-linejoin="round" d="M35.369,32.629
					c4.57,0,3.62-3.28,6.949-3.18"/>
				<path fill="none" stroke="#666666" stroke-width="0.36" stroke-linecap="square" stroke-linejoin="round" d="M49.318,32.629
					c-4.569,0-3.609-3.28-6.949-3.18"/>
				<path fill="none" stroke="#666666" stroke-width="0.36" stroke-linecap="square" stroke-linejoin="round" d="M49.318,32.779
					c-4.569,0-3.609,3.28-6.949,3.18"/>
				<path fill="none" stroke="#666666" stroke-width="0.36" stroke-linecap="square" stroke-linejoin="round" d="M35.369,32.779
					c4.57,0,3.62,3.28,6.949,3.18"/>
			</g>
		</g>
	</g>
</g>
<g>
	<g>
		<g id="XMLID_7_">
			<g>
				<path fill="#0A0A0A" d="M58.652,37.17v0.15c-4.57,0-3.61,3.28-6.95,3.18h-0.05c-3.33,0.1-2.381-3.18-6.95-3.18v-0.15
					c4.569,0,3.62-3.28,6.95-3.18h0.05C55.042,33.89,54.082,37.17,58.652,37.17z"/>
			</g>
			<g>
				<path fill="none" stroke="#666666" stroke-width="0.36" stroke-linecap="square" stroke-linejoin="round" d="M44.702,37.17
					c4.569,0,3.62-3.28,6.95-3.18"/>
				<path fill="none" stroke="#666666" stroke-width="0.36" stroke-linecap="square" stroke-linejoin="round" d="M58.652,37.17
					c-4.57,0-3.61-3.28-6.95-3.18"/>
				<path fill="none" stroke="#666666" stroke-width="0.36" stroke-linecap="square" stroke-linejoin="round" d="M58.652,37.32
					c-4.57,0-3.61,3.28-6.95,3.18"/>
				<path fill="none" stroke="#666666" stroke-width="0.36" stroke-linecap="square" stroke-linejoin="round" d="M44.702,37.32
					c4.569,0,3.62,3.28,6.95,3.18"/>
			</g>
		</g>
	</g>
</g>
<g>
	<g>
		<g id="XMLID_8_">
			<g>
				<path fill="#0A0A0A" d="M64.277,41.587v0.149c-4.57,0-3.61,3.279-6.95,3.181h-0.05c-3.33,0.101-2.381-3.181-6.95-3.181v-0.149
					c4.569,0,3.62-3.28,6.95-3.18h0.05C60.667,38.307,59.707,41.587,64.277,41.587z"/>
			</g>
			<g>
				<path fill="none" stroke="#666666" stroke-width="0.36" stroke-linecap="square" stroke-linejoin="round" d="M50.327,41.587
					c4.569,0,3.62-3.28,6.95-3.18"/>
				<path fill="none" stroke="#666666" stroke-width="0.36" stroke-linecap="square" stroke-linejoin="round" d="M64.277,41.587
					c-4.57,0-3.61-3.28-6.95-3.18"/>
				<path fill="none" stroke="#666666" stroke-width="0.36" stroke-linecap="square" stroke-linejoin="round" d="M64.277,41.736
					c-4.57,0-3.61,3.279-6.95,3.181"/>
				<path fill="none" stroke="#666666" stroke-width="0.36" stroke-linecap="square" stroke-linejoin="round" d="M50.327,41.736
					c4.569,0,3.62,3.279,6.95,3.181"/>
			</g>
		</g>
	</g>
</g>
<g>
	<g>
		<g id="XMLID_9_">
			<g>
				<path fill="#0A0A0A" d="M60.484,33.671v0.15c-4.569,0-3.609,3.28-6.949,3.18h-0.051c-3.33,0.1-2.379-3.18-6.949-3.18v-0.15
					c4.57,0,3.619-3.28,6.949-3.18h0.051C56.875,30.391,55.915,33.671,60.484,33.671z"/>
			</g>
			<g>
				<path fill="none" stroke="#666666" stroke-width="0.36" stroke-linecap="square" stroke-linejoin="round" d="M46.535,33.671
					c4.57,0,3.619-3.28,6.949-3.18"/>
				<path fill="none" stroke="#666666" stroke-width="0.36" stroke-linecap="square" stroke-linejoin="round" d="M60.484,33.671
					c-4.569,0-3.609-3.28-6.949-3.18"/>
				<path fill="none" stroke="#666666" stroke-width="0.36" stroke-linecap="square" stroke-linejoin="round" d="M60.484,33.821
					c-4.569,0-3.609,3.28-6.949,3.18"/>
				<path fill="none" stroke="#666666" stroke-width="0.36" stroke-linecap="square" stroke-linejoin="round" d="M46.535,33.821
					c4.57,0,3.619,3.28,6.949,3.18"/>
			</g>
		</g>
	</g>
</g>
</svg>
