<?xml version="1.0" encoding="utf-8"?>
<!-- Generator: Adobe Illustrator 13.0.0, SVG Export Plug-In . SVG Version: 6.00 Build 14576)  -->
<!DOCTYPE svg PUBLIC "-//W3C//DTD SVG 1.1//EN" "http://www.w3.org/Graphics/SVG/1.1/DTD/svg11.dtd">
<svg version="1.1" id="Layer_1" xmlns="http://www.w3.org/2000/svg" xmlns:xlink="http://www.w3.org/1999/xlink" x="0px" y="0px"
	 width="80px" height="80px" viewBox="0 0 80 80" enable-background="new 0 0 80 80" xml:space="preserve">
<path fill="#51A425" stroke="#333333" stroke-linecap="square" d="M9.667,17.252c0-3.326,4.911-7.418,8.889-7.418h42.221
	c3.979,0,8.891,4.093,8.891,7.418v27.527c0,13.838-13.424,25.055-30,25.055c-16.577,0-30-11.217-30-25.055L9.667,17.252
	L9.667,17.252z"/>
<circle fill="none" stroke="#333333" stroke-width="3" stroke-linecap="round" stroke-linejoin="round" cx="51.269" cy="27.362" r="6.745"/>
<rect x="36.157" y="28.813" transform="matrix(0.7071 0.7071 -0.7071 0.7071 39.2253 -15.8988)" fill="none" stroke="#333333" stroke-width="3" stroke-linecap="round" stroke-linejoin="round" width="5.294" height="21.173"/>
<path fill="none" stroke="#333333" stroke-width="2" stroke-linecap="round" stroke-linejoin="round" d="M31.167,46.604
	c-1.088,1.088-4.799,1.872-2.312,5.85c0.68,1.088,2.857,2.855,0.953,6.257"/>
<path fill="none" stroke="#333333" stroke-width="2" stroke-linecap="round" stroke-linejoin="round" d="M47.899,23.342
	c0.545,5.305,4.354,7.074,8.026,8.707"/>
<path fill="none" stroke="#333333" stroke-width="2" stroke-linecap="round" stroke-linejoin="round" d="M38.445,33.29
	c-0.702,0.426-1.471,1.247-2.083,1.811c-0.224,0.206-0.413,0.394-0.519,0.638"/>
</svg>
