<?xml version="1.0" encoding="utf-8"?>
<!-- Generator: Adobe Illustrator 13.0.0, SVG Export Plug-In . SVG Version: 6.00 Build 14576)  -->
<!DOCTYPE svg PUBLIC "-//W3C//DTD SVG 1.1//EN" "http://www.w3.org/Graphics/SVG/1.1/DTD/svg11.dtd">
<svg version="1.1" id="Layer_1" xmlns="http://www.w3.org/2000/svg" xmlns:xlink="http://www.w3.org/1999/xlink" x="0px" y="0px"
	 width="80px" height="80px" viewBox="0 0 80 80" enable-background="new 0 0 80 80" xml:space="preserve">
<g>
	<path fill="#51A425" stroke="#333333" stroke-linecap="square" d="M9.667,17.252c0-3.326,4.911-7.418,8.889-7.418h42.222
		c3.979,0,8.89,4.093,8.89,7.418v27.527c0,13.838-13.424,25.055-30,25.055c-16.577,0-30-11.217-30-25.055V17.252z"/>
	
		<line fill="none" stroke="#333333" stroke-linecap="round" stroke-linejoin="round" x1="21.547" y1="20.388" x2="21.547" y2="57.058"/>
	
		<line fill="none" stroke="#333333" stroke-linecap="round" stroke-linejoin="round" x1="21.68" y1="39.358" x2="62.444" y2="39.358"/>
	<g>
		<g>
			<path fill="none" stroke="#000000" stroke-linecap="round" stroke-linejoin="round" d="M22.273,37.378
				c1.792-28.814,3.465,0,3.465,0"/>
			<path fill="none" stroke="#000000" stroke-linecap="round" stroke-linejoin="round" d="M28.99,35.39
				c-1.791,28.816-3.465,0-3.465,0"/>
		</g>
	</g>
	<g>
		<g>
			<path fill="none" stroke="#000000" stroke-linecap="round" stroke-linejoin="round" d="M41.316,40.343
				c1.792-28.837,3.439,0,3.439,0"/>
			<path fill="none" stroke="#000000" stroke-linecap="round" stroke-linejoin="round" d="M48.032,38.332
				c-1.792,28.834-3.466,0-3.466,0"/>
		</g>
	</g>
	<g>
		<g>
			<path fill="none" stroke="#000000" stroke-linecap="round" stroke-linejoin="round" d="M26.75,40.343
				c1.792-28.837,3.465,0,3.465,0"/>
			<path fill="none" stroke="#000000" stroke-linecap="round" stroke-linejoin="round" d="M33.467,38.332
				c-1.791,28.834-3.464,0-3.464,0"/>
		</g>
	</g>
	<g>
		<g>
			<path fill="none" stroke="#000000" stroke-linecap="round" stroke-linejoin="round" d="M48.032,38.372
				c1.79-28.834,3.463,0,3.463,0"/>
			<path fill="none" stroke="#000000" stroke-linecap="round" stroke-linejoin="round" d="M54.747,36.364
				c-1.791,28.835-3.464,0-3.464,0"/>
		</g>
	</g>
	<g>
		<g>
			<path fill="none" stroke="#000000" stroke-linecap="round" stroke-linejoin="round" d="M34.598,39.347
				c1.792-28.814,3.441,0,3.441,0"/>
			<path fill="none" stroke="#000000" stroke-linecap="round" stroke-linejoin="round" d="M41.316,37.358
				c-1.792,28.812-3.464,0-3.464,0"/>
		</g>
	</g>
	<g>
		<g>
			<path fill="none" stroke="#000000" stroke-linecap="round" stroke-linejoin="round" d="M27.881,36.983
				c1.792-17.296,3.442,0,3.442,0"/>
			<path fill="none" stroke="#000000" stroke-linecap="round" stroke-linejoin="round" d="M34.598,35.782
				c-1.791,17.299-3.463,0-3.463,0"/>
		</g>
	</g>
	<g>
		<g>
			<path fill="none" stroke="#000000" stroke-linecap="round" stroke-linejoin="round" d="M23.381,39.947
				c1.814-17.318,3.464,0,3.464,0"/>
			<path fill="none" stroke="#000000" stroke-linecap="round" stroke-linejoin="round" d="M30.121,38.746
				c-1.814,17.298-3.463,0-3.463,0"/>
		</g>
	</g>
	<g>
		<g>
			<path fill="none" stroke="#000000" stroke-linecap="round" stroke-linejoin="round" d="M40.185,41.916
				c1.792-17.319,3.466,0,3.466,0"/>
			<path fill="none" stroke="#000000" stroke-linecap="round" stroke-linejoin="round" d="M46.902,40.714
				c-1.793,17.297-3.441,0-3.441,0"/>
		</g>
	</g>
	<g>
		<g>
			<path fill="none" stroke="#000000" stroke-linecap="round" stroke-linejoin="round" d="M52.509,42.889
				c1.793-17.298,3.465,0,3.465,0"/>
			<path fill="none" stroke="#000000" stroke-linecap="round" stroke-linejoin="round" d="M59.228,41.688
				c-1.794,17.298-3.466,0-3.466,0"/>
		</g>
	</g>
	<g>
		<g>
			<path fill="none" stroke="#000000" stroke-linecap="round" stroke-linejoin="round" d="M35.707,45.853
				c1.79-17.298,3.464,0,3.464,0"/>
			<path fill="none" stroke="#000000" stroke-linecap="round" stroke-linejoin="round" d="M42.424,44.652
				c-1.791,17.295-3.441,0-3.441,0"/>
		</g>
	</g>
	<g>
		<g>
			<path fill="none" stroke="#000000" stroke-linecap="round" stroke-linejoin="round" d="M37.944,31.081
				c1.792-17.296,3.466,0,3.466,0"/>
			<path fill="none" stroke="#000000" stroke-linecap="round" stroke-linejoin="round" d="M44.662,29.879
				c-1.791,17.296-3.441,0-3.441,0"/>
		</g>
	</g>
	<g>
		<g>
			<path fill="none" stroke="#000000" stroke-linecap="round" stroke-linejoin="round" d="M51.378,35.018
				c1.813-17.297,3.465,0,3.465,0"/>
			<path fill="none" stroke="#000000" stroke-linecap="round" stroke-linejoin="round" d="M58.117,33.815
				c-1.812,17.296-3.463,0-3.463,0"/>
		</g>
	</g>
	<g>
		<g>
			<path fill="none" stroke="#000000" stroke-linecap="round" stroke-linejoin="round" d="M23.381,45.853
				c1.814-17.298,3.464,0,3.464,0"/>
			<path fill="none" stroke="#000000" stroke-linecap="round" stroke-linejoin="round" d="M30.121,44.652
				c-1.814,17.295-3.463,0-3.463,0"/>
		</g>
	</g>
	<g>
		<g>
			<path fill="none" stroke="#000000" stroke-linecap="round" stroke-linejoin="round" d="M39.076,46.824
				c1.792-17.297,3.442,0,3.442,0"/>
			<path fill="none" stroke="#000000" stroke-linecap="round" stroke-linejoin="round" d="M45.792,45.622
				c-1.792,17.298-3.464,0-3.464,0"/>
		</g>
	</g>
	<g>
		<g>
			<path fill="none" stroke="#000000" stroke-linecap="round" stroke-linejoin="round" d="M44.662,36.983
				c1.791-17.296,3.464,0,3.464,0"/>
			<path fill="none" stroke="#000000" stroke-linecap="round" stroke-linejoin="round" d="M51.378,35.782
				c-1.791,17.299-3.441,0-3.441,0"/>
		</g>
	</g>
	<g>
		<g>
			<path fill="none" stroke="#000000" stroke-linecap="round" stroke-linejoin="round" d="M31.229,33.796
				c1.791-10.378,3.464,0,3.464,0"/>
			<path fill="none" stroke="#000000" stroke-linecap="round" stroke-linejoin="round" d="M37.944,33.069
				c-1.791,10.381-3.464,0-3.464,0"/>
		</g>
	</g>
	<g>
		<g>
			<path fill="none" stroke="#000000" stroke-linecap="round" stroke-linejoin="round" d="M52.509,33.796
				c1.793-10.378,3.465,0,3.465,0"/>
			<path fill="none" stroke="#000000" stroke-linecap="round" stroke-linejoin="round" d="M59.228,33.069
				c-1.794,10.381-3.466,0-3.466,0"/>
		</g>
	</g>
	<g>
		<g>
			<path fill="none" stroke="#000000" stroke-linecap="round" stroke-linejoin="round" d="M34.598,39.699
				c1.792-10.378,3.441,0,3.441,0"/>
			<path fill="none" stroke="#000000" stroke-linecap="round" stroke-linejoin="round" d="M41.316,38.974
				c-1.792,10.379-3.464,0-3.464,0"/>
		</g>
	</g>
	<g>
		<g>
			<path fill="none" stroke="#000000" stroke-linecap="round" stroke-linejoin="round" d="M50.271,39.699
				c1.791-10.378,3.465,0,3.465,0"/>
			<path fill="none" stroke="#000000" stroke-linecap="round" stroke-linejoin="round" d="M56.986,38.974
				c-1.791,10.379-3.464,0-3.464,0"/>
		</g>
	</g>
	<g>
		<g>
			<path fill="none" stroke="#000000" stroke-linecap="round" stroke-linejoin="round" d="M37.944,40.674
				c1.792-10.381,3.466,0,3.466,0"/>
			<path fill="none" stroke="#000000" stroke-linecap="round" stroke-linejoin="round" d="M44.662,39.967
				c-1.791,10.38-3.441,0-3.441,0"/>
		</g>
	</g>
	<g>
		<g>
			<path fill="none" stroke="#000000" stroke-linecap="round" stroke-linejoin="round" d="M42.424,46.597
				c1.789-10.378,3.463,0,3.463,0"/>
			<path fill="none" stroke="#000000" stroke-linecap="round" stroke-linejoin="round" d="M49.139,45.872
				c-1.792,10.378-3.439,0-3.439,0"/>
		</g>
	</g>
	<g>
		<g>
			<path fill="none" stroke="#000000" stroke-linecap="round" stroke-linejoin="round" d="M40.185,36.591
				c1.792-6.215,3.466,0,3.466,0"/>
			<path fill="none" stroke="#000000" stroke-linecap="round" stroke-linejoin="round" d="M46.902,36.177
				c-1.793,6.215-3.441,0-3.441,0"/>
		</g>
	</g>
	<g>
		<g>
			<path fill="none" stroke="#000000" stroke-linecap="round" stroke-linejoin="round" d="M39.076,33.65
				c1.792-6.234,3.442,0,3.442,0"/>
			<path fill="none" stroke="#000000" stroke-linecap="round" stroke-linejoin="round" d="M45.792,33.215
				c-1.792,6.235-3.464,0-3.464,0"/>
		</g>
	</g>
	<g>
		<g>
			<path fill="none" stroke="#000000" stroke-linecap="round" stroke-linejoin="round" d="M46.902,36.508
				c1.789-3.728,3.463,0,3.463,0"/>
			<path fill="none" stroke="#000000" stroke-linecap="round" stroke-linejoin="round" d="M53.618,36.259
				c-1.793,3.73-3.441,0-3.441,0"/>
		</g>
	</g>
	<g>
		<g>
			<path fill="none" stroke="#000000" stroke-linecap="round" stroke-linejoin="round" d="M44.662,40.443
				c1.791-3.726,3.464,0,3.464,0"/>
			<path fill="none" stroke="#000000" stroke-linecap="round" stroke-linejoin="round" d="M51.378,40.196
				c-1.791,3.729-3.441,0-3.441,0"/>
		</g>
	</g>
	<g>
		<g>
			<path fill="none" stroke="#000000" stroke-linecap="round" stroke-linejoin="round" d="M54.747,36.466
				c1.792-2.258,3.466,0,3.466,0"/>
			<path fill="none" stroke="#000000" stroke-linecap="round" stroke-linejoin="round" d="M61.465,36.3
				c-1.791,2.237-3.465,0-3.465,0"/>
		</g>
	</g>
</g>
</svg>
