<?xml version="1.0" encoding="utf-8"?>
<!-- Generator: Adobe Illustrator 14.0.0, SVG Export Plug-In . SVG Version: 6.00 Build 43363)  -->
<!DOCTYPE svg PUBLIC "-//W3C//DTD SVG 1.1//EN" "http://www.w3.org/Graphics/SVG/1.1/DTD/svg11.dtd">
<svg version="1.1" id="Layer_1" xmlns="http://www.w3.org/2000/svg" xmlns:xlink="http://www.w3.org/1999/xlink" x="0px" y="0px"
	 width="80px" height="80px" viewBox="0 0 80 80" enable-background="new 0 0 80 80" xml:space="preserve">
<path fill="#51A425" stroke="#333333" stroke-linecap="square" d="M5.221,13.415c0-3.891,5.639-8.679,10.206-8.679h48.479
	c4.568,0,10.207,4.789,10.207,8.679V45.62c0,16.188-15.414,29.312-34.446,29.312c-19.033,0-34.446-13.123-34.446-29.312V13.415
	L5.221,13.415z"/>
<line fill="none" stroke="#333333" stroke-linecap="round" stroke-linejoin="round" x1="18.862" y1="17.083" x2="18.862" y2="59.984"/>
<path fill="#F5D04E" stroke="#333333" stroke-linecap="round" stroke-linejoin="round" d="M10.417,5.818
	c0-2.758,2.326-4.985,5.195-4.985c2.88,0,5.207,2.228,5.207,4.985c0,2.745-2.327,4.986-5.207,4.986
	C12.743,10.804,10.417,8.563,10.417,5.818z"/>
<path fill="#F5D04E" stroke="#333333" stroke-linecap="round" stroke-linejoin="round" d="M26.015,5.818
	c0-2.758,2.326-4.985,5.207-4.985c2.868,0,5.195,2.228,5.195,4.985c0,2.745-2.327,4.986-5.195,4.986
	C28.34,10.804,26.015,8.563,26.015,5.818z"/>
<path fill="#F5D04E" stroke="#333333" stroke-linecap="round" stroke-linejoin="round" d="M42.917,5.818
	c0-2.758,2.326-4.985,5.194-4.985c2.881,0,5.207,2.228,5.207,4.985c0,2.745-2.326,4.986-5.207,4.986
	C45.243,10.804,42.917,8.563,42.917,5.818z"/>
<path fill="#F5D04E" stroke="#333333" stroke-linecap="round" stroke-linejoin="round" d="M59.818,5.818
	c0-2.758,2.328-4.985,5.195-4.985c2.868,0,5.209,2.228,5.209,4.985c0,2.745-2.341,4.986-5.209,4.986
	C62.146,10.804,59.818,8.563,59.818,5.818z"/>
<path fill="#DF3800" stroke="#333333" stroke-linecap="round" stroke-linejoin="round" d="M34.299,73.848
	c0-2.863,2.339-5.2,5.207-5.2c2.869,0,5.195,2.337,5.195,5.2c0,2.878-2.326,5.202-5.195,5.202
	C36.638,79.05,34.299,76.724,34.299,73.848z"/>
<line fill="none" stroke="#333333" stroke-linecap="round" stroke-linejoin="round" x1="19.014" y1="39.278" x2="65.82" y2="39.278"/>
<g>
	<g>
		<path fill="none" stroke="#000000" stroke-linecap="round" stroke-linejoin="round" d="M19.695,36.961
			c2.058-33.71,3.979,0,3.979,0"/>
		<path fill="none" stroke="#000000" stroke-linecap="round" stroke-linejoin="round" d="M27.407,34.635
			c-2.056,33.713-3.978,0-3.978,0"/>
	</g>
</g>
<g>
	<g>
		<path fill="none" stroke="#000000" stroke-linecap="round" stroke-linejoin="round" d="M41.561,40.429
			c2.058-33.737,3.949,0,3.949,0"/>
		<path fill="none" stroke="#000000" stroke-linecap="round" stroke-linejoin="round" d="M49.271,38.076
			c-2.058,33.734-3.979,0-3.979,0"/>
	</g>
</g>
<g>
	<g>
		<path fill="none" stroke="#000000" stroke-linecap="round" stroke-linejoin="round" d="M24.836,40.429
			c2.057-33.737,3.979,0,3.979,0"/>
		<path fill="none" stroke="#000000" stroke-linecap="round" stroke-linejoin="round" d="M32.548,38.076
			c-2.056,33.734-3.977,0-3.977,0"/>
	</g>
</g>
<g>
	<g>
		<path fill="none" stroke="#000000" stroke-linecap="round" stroke-linejoin="round" d="M49.271,38.123
			c2.056-33.734,3.977,0,3.977,0"/>
		<path fill="none" stroke="#000000" stroke-linecap="round" stroke-linejoin="round" d="M56.982,35.775
			c-2.057,33.735-3.978,0-3.978,0"/>
	</g>
</g>
<g>
	<g>
		<path fill="none" stroke="#000000" stroke-linecap="round" stroke-linejoin="round" d="M33.847,39.264
			c2.057-33.711,3.951,0,3.951,0"/>
		<path fill="none" stroke="#000000" stroke-linecap="round" stroke-linejoin="round" d="M41.561,36.938
			c-2.057,33.708-3.978,0-3.978,0"/>
	</g>
</g>
<g>
	<g>
		<path fill="none" stroke="#000000" stroke-linecap="round" stroke-linejoin="round" d="M26.135,36.499
			c2.057-20.235,3.952,0,3.952,0"/>
		<path fill="none" stroke="#000000" stroke-linecap="round" stroke-linejoin="round" d="M33.847,35.094
			c-2.056,20.238-3.977,0-3.977,0"/>
	</g>
</g>
<g>
	<g>
		<path fill="none" stroke="#000000" stroke-linecap="round" stroke-linejoin="round" d="M20.968,39.967
			c2.083-20.262,3.977,0,3.977,0"/>
		<path fill="none" stroke="#000000" stroke-linecap="round" stroke-linejoin="round" d="M28.706,38.561
			c-2.083,20.238-3.977,0-3.977,0"/>
	</g>
</g>
<g>
	<g>
		<path fill="none" stroke="#000000" stroke-linecap="round" stroke-linejoin="round" d="M40.261,42.27
			c2.057-20.262,3.979,0,3.979,0"/>
		<path fill="none" stroke="#000000" stroke-linecap="round" stroke-linejoin="round" d="M47.975,40.863
			c-2.059,20.236-3.951,0-3.951,0"/>
	</g>
</g>
<g>
	<g>
		<path fill="none" stroke="#000000" stroke-linecap="round" stroke-linejoin="round" d="M54.412,43.408
			c2.059-20.238,3.979,0,3.979,0"/>
		<path fill="none" stroke="#000000" stroke-linecap="round" stroke-linejoin="round" d="M62.126,42.002
			c-2.06,20.238-3.979,0-3.979,0"/>
	</g>
</g>
<g>
	<g>
		<path fill="none" stroke="#000000" stroke-linecap="round" stroke-linejoin="round" d="M35.12,46.875
			c2.055-20.237,3.977,0,3.977,0"/>
		<path fill="none" stroke="#000000" stroke-linecap="round" stroke-linejoin="round" d="M42.832,45.47
			c-2.057,20.235-3.951,0-3.951,0"/>
	</g>
</g>
<g>
	<g>
		<path fill="none" stroke="#000000" stroke-linecap="round" stroke-linejoin="round" d="M37.689,29.594
			c2.058-20.236,3.979,0,3.979,0"/>
		<path fill="none" stroke="#000000" stroke-linecap="round" stroke-linejoin="round" d="M45.402,28.188
			c-2.057,20.235-3.951,0-3.951,0"/>
	</g>
</g>
<g>
	<g>
		<path fill="none" stroke="#000000" stroke-linecap="round" stroke-linejoin="round" d="M53.113,34.199
			c2.082-20.236,3.979,0,3.979,0"/>
		<path fill="none" stroke="#000000" stroke-linecap="round" stroke-linejoin="round" d="M60.852,32.793
			c-2.08,20.234-3.977,0-3.977,0"/>
	</g>
</g>
<g>
	<g>
		<path fill="none" stroke="#000000" stroke-linecap="round" stroke-linejoin="round" d="M20.968,46.875
			c2.083-20.237,3.977,0,3.977,0"/>
		<path fill="none" stroke="#000000" stroke-linecap="round" stroke-linejoin="round" d="M28.706,45.47
			c-2.083,20.235-3.977,0-3.977,0"/>
	</g>
</g>
<g>
	<g>
		<path fill="none" stroke="#000000" stroke-linecap="round" stroke-linejoin="round" d="M38.988,48.012
			c2.057-20.236,3.952,0,3.952,0"/>
		<path fill="none" stroke="#000000" stroke-linecap="round" stroke-linejoin="round" d="M46.7,46.605
			c-2.058,20.237-3.978,0-3.978,0"/>
	</g>
</g>
<g>
	<g>
		<path fill="none" stroke="#000000" stroke-linecap="round" stroke-linejoin="round" d="M45.402,36.499
			c2.057-20.235,3.978,0,3.978,0"/>
		<path fill="none" stroke="#000000" stroke-linecap="round" stroke-linejoin="round" d="M53.113,35.094
			c-2.057,20.238-3.951,0-3.951,0"/>
	</g>
</g>
<g>
	<g>
		<path fill="none" stroke="#000000" stroke-linecap="round" stroke-linejoin="round" d="M29.978,32.77
			c2.056-12.142,3.977,0,3.977,0"/>
		<path fill="none" stroke="#000000" stroke-linecap="round" stroke-linejoin="round" d="M37.689,31.92
			c-2.056,12.145-3.977,0-3.977,0"/>
	</g>
</g>
<g>
	<g>
		<path fill="none" stroke="#000000" stroke-linecap="round" stroke-linejoin="round" d="M54.412,32.77
			c2.059-12.142,3.979,0,3.979,0"/>
		<path fill="none" stroke="#000000" stroke-linecap="round" stroke-linejoin="round" d="M62.126,31.92
			c-2.06,12.145-3.979,0-3.979,0"/>
	</g>
</g>
<g>
	<g>
		<path fill="none" stroke="#000000" stroke-linecap="round" stroke-linejoin="round" d="M33.847,39.676
			c2.057-12.142,3.951,0,3.951,0"/>
		<path fill="none" stroke="#000000" stroke-linecap="round" stroke-linejoin="round" d="M41.561,38.828
			c-2.057,12.142-3.978,0-3.978,0"/>
	</g>
</g>
<g>
	<g>
		<path fill="none" stroke="#000000" stroke-linecap="round" stroke-linejoin="round" d="M51.842,39.676
			c2.057-12.142,3.979,0,3.979,0"/>
		<path fill="none" stroke="#000000" stroke-linecap="round" stroke-linejoin="round" d="M59.553,38.828
			c-2.057,12.142-3.977,0-3.977,0"/>
	</g>
</g>
<g>
	<g>
		<path fill="none" stroke="#000000" stroke-linecap="round" stroke-linejoin="round" d="M37.689,40.816
			c2.058-12.145,3.979,0,3.979,0"/>
		<path fill="none" stroke="#000000" stroke-linecap="round" stroke-linejoin="round" d="M45.402,39.99
			c-2.057,12.144-3.951,0-3.951,0"/>
	</g>
</g>
<g>
	<g>
		<path fill="none" stroke="#000000" stroke-linecap="round" stroke-linejoin="round" d="M42.832,47.746
			c2.055-12.142,3.977,0,3.977,0"/>
		<path fill="none" stroke="#000000" stroke-linecap="round" stroke-linejoin="round" d="M50.542,46.898
			c-2.058,12.142-3.949,0-3.949,0"/>
	</g>
</g>
<g>
	<g>
		<path fill="none" stroke="#000000" stroke-linecap="round" stroke-linejoin="round" d="M40.261,36.04c2.057-7.271,3.979,0,3.979,0
			"/>
		<path fill="none" stroke="#000000" stroke-linecap="round" stroke-linejoin="round" d="M47.975,35.555
			c-2.059,7.271-3.951,0-3.951,0"/>
	</g>
</g>
<g>
	<g>
		<path fill="none" stroke="#000000" stroke-linecap="round" stroke-linejoin="round" d="M38.988,32.599
			c2.057-7.294,3.952,0,3.952,0"/>
		<path fill="none" stroke="#000000" stroke-linecap="round" stroke-linejoin="round" d="M46.7,32.09c-2.058,7.295-3.978,0-3.978,0"
			/>
	</g>
</g>
<g>
	<g>
		<path fill="none" stroke="#000000" stroke-linecap="round" stroke-linejoin="round" d="M47.975,35.943
			c2.055-4.362,3.977,0,3.977,0"/>
		<path fill="none" stroke="#000000" stroke-linecap="round" stroke-linejoin="round" d="M55.686,35.652
			c-2.059,4.364-3.951,0-3.951,0"/>
	</g>
</g>
<g>
	<g>
		<path fill="none" stroke="#000000" stroke-linecap="round" stroke-linejoin="round" d="M45.402,40.547
			c2.057-4.359,3.978,0,3.978,0"/>
		<path fill="none" stroke="#000000" stroke-linecap="round" stroke-linejoin="round" d="M53.113,40.258
			c-2.057,4.362-3.951,0-3.951,0"/>
	</g>
</g>
<g>
	<g>
		<path fill="none" stroke="#000000" stroke-linecap="round" stroke-linejoin="round" d="M56.982,35.894
			c2.058-2.642,3.979,0,3.979,0"/>
		<path fill="none" stroke="#000000" stroke-linecap="round" stroke-linejoin="round" d="M64.695,35.699
			c-2.057,2.618-3.979,0-3.979,0"/>
	</g>
</g>
</svg>
