<?xml version="1.0" encoding="utf-8"?>
<!-- Generator: Adobe Illustrator 13.0.0, SVG Export Plug-In . SVG Version: 6.00 Build 14576)  -->
<!DOCTYPE svg PUBLIC "-//W3C//DTD SVG 1.1//EN" "http://www.w3.org/Graphics/SVG/1.1/DTD/svg11.dtd">
<svg version="1.1" id="Layer_1" xmlns="http://www.w3.org/2000/svg" xmlns:xlink="http://www.w3.org/1999/xlink" x="0px" y="0px"
	 width="80px" height="80px" viewBox="0 0 80 80" enable-background="new 0 0 80 80" xml:space="preserve">
<g>
	<path fill="#51A425" stroke="#333333" stroke-linecap="square" d="M9.667,17.252c0-3.326,4.911-7.418,8.889-7.418h42.222
		c3.979,0,8.89,4.093,8.89,7.418v27.527c0,13.838-13.424,25.055-30,25.055c-16.577,0-30-11.217-30-25.055V17.252z"/>
	
		<line fill="none" stroke="#333333" stroke-linecap="round" stroke-linejoin="round" x1="21.547" y1="20.388" x2="21.547" y2="57.058"/>
	
		<line fill="none" stroke="#333333" stroke-linecap="round" stroke-linejoin="round" x1="21.68" y1="39.358" x2="62.444" y2="39.358"/>
	<g>
		<g>
			<path fill="none" stroke="#000000" stroke-linecap="square" stroke-linejoin="round" d="M22.103,40.798
				c1.797-35.63,3.438,0,3.438,0"/>
			<path fill="none" stroke="#000000" stroke-linecap="square" stroke-linejoin="round" d="M28.793,38.298
				c-1.796,35.633-3.438,0-3.438,0"/>
		</g>
	</g>
	<g>
		<g>
			<path fill="none" stroke="#000000" stroke-linecap="square" stroke-linejoin="round" d="M28.582,40.152
				c1.796-21.379,3.438,0,3.438,0"/>
			<path fill="none" stroke="#000000" stroke-linecap="square" stroke-linejoin="round" d="M35.272,38.664
				c-1.796,21.379-3.439,0-3.439,0"/>
		</g>
	</g>
	<g>
		<g>
			<path fill="none" stroke="#000000" stroke-linecap="square" stroke-linejoin="round" d="M35.19,39.564
				c1.796-12.797,3.434,0,3.434,0"/>
			<path fill="none" stroke="#000000" stroke-linecap="square" stroke-linejoin="round" d="M41.877,38.687
				c-1.793,12.803-3.436,0-3.436,0"/>
		</g>
	</g>
	<g>
		<g>
			<path fill="none" stroke="#000000" stroke-linecap="square" stroke-linejoin="round" d="M41.491,39.257
				c1.797-7.701,3.438,0,3.438,0"/>
			<path fill="none" stroke="#000000" stroke-linecap="square" stroke-linejoin="round" d="M48.18,38.717
				c-1.796,7.7-3.436,0-3.436,0"/>
		</g>
	</g>
	<g>
		<g>
			<path fill="none" stroke="#000000" stroke-linecap="square" stroke-linejoin="round" d="M47.793,39.716
				c1.797-4.624,3.438,0,3.438,0"/>
			<path fill="none" stroke="#000000" stroke-linecap="square" stroke-linejoin="round" d="M54.483,39.379
				c-1.796,4.628-3.439,0-3.439,0"/>
		</g>
	</g>
	<g>
		<g>
			<path fill="none" stroke="#000000" stroke-linecap="square" stroke-linejoin="round" d="M54.604,39.538
				c1.797-2.771,3.437,0,3.437,0"/>
			<path fill="none" stroke="#000000" stroke-linecap="square" stroke-linejoin="round" d="M61.295,39.334
				c-1.797,2.771-3.438,0-3.438,0"/>
		</g>
	</g>
</g>
</svg>
