<?xml version="1.0" encoding="utf-8"?>
<!-- Generator: Adobe Illustrator 14.0.0, SVG Export Plug-In . SVG Version: 6.00 Build 43363)  -->
<!DOCTYPE svg PUBLIC "-//W3C//DTD SVG 1.1//EN" "http://www.w3.org/Graphics/SVG/1.1/DTD/svg11.dtd">
<svg version="1.1" id="Layer_1" xmlns="http://www.w3.org/2000/svg" xmlns:xlink="http://www.w3.org/1999/xlink" x="0px" y="0px"
	 width="80px" height="80px" viewBox="0 0 80 80" enable-background="new 0 0 80 80" xml:space="preserve">
<path fill="#51A425" stroke="#333333" stroke-linecap="square" d="M5.221,13.415c0-3.891,5.639-8.679,10.206-8.679h48.479
	c4.568,0,10.207,4.789,10.207,8.679V45.62c0,16.188-15.414,29.312-34.446,29.312c-19.033,0-34.446-13.123-34.446-29.312V13.415
	L5.221,13.415z"/>
<line fill="none" stroke="#333333" stroke-linecap="round" stroke-linejoin="round" x1="18.862" y1="17.083" x2="18.862" y2="59.984"/>
<path fill="#F5D04E" stroke="#333333" stroke-linecap="round" stroke-linejoin="round" d="M10.417,5.818
	c0-2.758,2.326-4.985,5.195-4.985c2.88,0,5.207,2.228,5.207,4.985c0,2.745-2.327,4.986-5.207,4.986
	C12.743,10.804,10.417,8.563,10.417,5.818z"/>
<path fill="#F5D04E" stroke="#333333" stroke-linecap="round" stroke-linejoin="round" d="M26.015,5.818
	c0-2.758,2.326-4.985,5.207-4.985c2.868,0,5.195,2.228,5.195,4.985c0,2.745-2.327,4.986-5.195,4.986
	C28.34,10.804,26.015,8.563,26.015,5.818z"/>
<path fill="#F5D04E" stroke="#333333" stroke-linecap="round" stroke-linejoin="round" d="M42.917,5.818
	c0-2.758,2.326-4.985,5.194-4.985c2.881,0,5.207,2.228,5.207,4.985c0,2.745-2.326,4.986-5.207,4.986
	C45.243,10.804,42.917,8.563,42.917,5.818z"/>
<path fill="#F5D04E" stroke="#333333" stroke-linecap="round" stroke-linejoin="round" d="M59.818,5.818
	c0-2.758,2.328-4.985,5.195-4.985c2.868,0,5.209,2.228,5.209,4.985c0,2.745-2.341,4.986-5.209,4.986
	C62.146,10.804,59.818,8.563,59.818,5.818z"/>
<path fill="#DF3800" stroke="#333333" stroke-linecap="round" stroke-linejoin="round" d="M34.299,73.848
	c0-2.863,2.339-5.2,5.207-5.2c2.869,0,5.195,2.337,5.195,5.2c0,2.878-2.326,5.202-5.195,5.202
	C36.638,79.05,34.299,76.724,34.299,73.848z"/>
<line fill="none" stroke="#333333" stroke-linecap="round" stroke-linejoin="round" x1="19.014" y1="39.278" x2="65.82" y2="39.278"/>
<g>
	<g>
		<path fill="none" stroke="#000000" stroke-linecap="square" stroke-linejoin="round" d="M19.5,40.962
			c2.063-41.685,3.948,0,3.948,0"/>
		<path fill="none" stroke="#000000" stroke-linecap="square" stroke-linejoin="round" d="M27.182,38.037
			c-2.063,41.688-3.948,0-3.948,0"/>
	</g>
</g>
<g>
	<g>
		<path fill="none" stroke="#000000" stroke-linecap="square" stroke-linejoin="round" d="M26.939,40.206
			c2.062-25.012,3.948,0,3.948,0"/>
		<path fill="none" stroke="#000000" stroke-linecap="square" stroke-linejoin="round" d="M34.621,38.465
			c-2.062,25.012-3.949,0-3.949,0"/>
	</g>
</g>
<g>
	<g>
		<path fill="none" stroke="#000000" stroke-linecap="square" stroke-linejoin="round" d="M34.527,39.518
			c2.062-14.971,3.943,0,3.943,0"/>
		<path fill="none" stroke="#000000" stroke-linecap="square" stroke-linejoin="round" d="M42.204,38.492
			c-2.059,14.979-3.944,0-3.944,0"/>
	</g>
</g>
<g>
	<g>
		<path fill="none" stroke="#000000" stroke-linecap="square" stroke-linejoin="round" d="M41.762,39.159
			c2.062-9.009,3.947,0,3.947,0"/>
		<path fill="none" stroke="#000000" stroke-linecap="square" stroke-linejoin="round" d="M49.441,38.527
			c-2.062,9.009-3.944,0-3.944,0"/>
	</g>
</g>
<g>
	<g>
		<path fill="none" stroke="#000000" stroke-linecap="square" stroke-linejoin="round" d="M48.997,39.696
			c2.063-5.41,3.948,0,3.948,0"/>
		<path fill="none" stroke="#000000" stroke-linecap="square" stroke-linejoin="round" d="M56.68,39.302
			c-2.062,5.414-3.949,0-3.949,0"/>
	</g>
</g>
<g>
	<g>
		<path fill="none" stroke="#000000" stroke-linecap="square" stroke-linejoin="round" d="M56.818,39.488
			c2.062-3.242,3.945,0,3.945,0"/>
		<path fill="none" stroke="#000000" stroke-linecap="square" stroke-linejoin="round" d="M64.5,39.249
			c-2.062,3.241-3.948,0-3.948,0"/>
	</g>
</g>
</svg>
