<?xml version="1.0" encoding="utf-8"?>
<!-- Generator: Adobe Illustrator 13.0.0, SVG Export Plug-In . SVG Version: 6.00 Build 14576)  -->
<!DOCTYPE svg PUBLIC "-//W3C//DTD SVG 1.1//EN" "http://www.w3.org/Graphics/SVG/1.1/DTD/svg11.dtd">
<svg version="1.1" id="Layer_1" xmlns="http://www.w3.org/2000/svg" xmlns:xlink="http://www.w3.org/1999/xlink" x="0px" y="0px"
	 width="80px" height="80px" viewBox="0 0 80 80" enable-background="new 0 0 80 80" xml:space="preserve">
<g>
	<g>
		<path fill="#3399FF" stroke="#333333" stroke-linecap="round" stroke-linejoin="round" d="M9.396,25c0-8.282,6.72-15,15.003-15
			h30.006c8.284,0,14.991,6.719,14.991,15v30.001c0,8.28-6.707,14.998-14.991,14.998H24.398c-8.283,0-15.003-6.718-15.003-14.998V25
			z"/>
	</g>
	
		<line fill="none" stroke="#333333" stroke-linecap="square" stroke-linejoin="round" x1="18.677" y1="57.451" x2="58.621" y2="57.451"/>
	
		<linearGradient id="SVGID_1_" gradientUnits="userSpaceOnUse" x1="291.9277" y1="-316.1196" x2="318.5566" y2="-316.1196" gradientTransform="matrix(1 0 0 -1 -266 -277)">
		<stop  offset="0" style="stop-color:#FFFFFF"/>
		<stop  offset="0.0799" style="stop-color:#DBDBDB"/>
		<stop  offset="0.2375" style="stop-color:#999999"/>
		<stop  offset="0.3876" style="stop-color:#636363"/>
		<stop  offset="0.526" style="stop-color:#383838"/>
		<stop  offset="0.6501" style="stop-color:#191919"/>
		<stop  offset="0.7555" style="stop-color:#070707"/>
		<stop  offset="0.8297" style="stop-color:#000000"/>
	</linearGradient>
	<path fill="url(#SVGID_1_)" stroke="#000000" d="M25.927,39.109c0-7.351,5.953-13.3,13.303-13.3c7.376,0,13.327,5.95,13.327,13.3
		c0,7.372-5.95,13.322-13.327,13.322C31.88,52.431,25.927,46.48,25.927,39.109z"/>
</g>
</svg>
