<?xml version="1.0" encoding="utf-8"?>
<!-- Generator: Adobe Illustrator 14.0.0, SVG Export Plug-In . SVG Version: 6.00 Build 43363)  -->
<!DOCTYPE svg PUBLIC "-//W3C//DTD SVG 1.1//EN" "http://www.w3.org/Graphics/SVG/1.1/DTD/svg11.dtd">
<svg version="1.1" id="Layer_1" xmlns="http://www.w3.org/2000/svg" xmlns:xlink="http://www.w3.org/1999/xlink" x="0px" y="0px"
	 width="80px" height="80px" viewBox="0 0 80 80" enable-background="new 0 0 80 80" xml:space="preserve">
<path fill="#FF0000" stroke="#333333" stroke-linecap="square" d="M28.519,20.354h23.383c0,0,15.074,31.692,15.125,31.841
	c0.904,2.764-2.504,4.238-2.373,4.238c2.787,0-31.639-0.082-49.518-0.108c-4.499-0.007-1.047-5.316-1.12-5.175
	C12.688,53.729,28.519,20.354,28.519,20.354z"/>
<path fill="#FF0000" stroke="#333333" stroke-linecap="round" stroke-linejoin="round" d="M64.43,5.702
	c3.082,0,5.568,1.493,5.568,3.358v11.194c0,1.866-2.486,3.358-5.568,3.358H15.573c-3.084,0-5.571-1.493-5.571-3.358V9.061
	c0-1.866,2.487-3.358,5.571-3.358L64.43,5.702L64.43,5.702z"/>
<circle fill="#DF3800" stroke="#333333" stroke-linecap="round" stroke-linejoin="round" cx="39.5" cy="6.201" r="5.201"/>
</svg>
