<?xml version="1.0" encoding="utf-8"?>
<!-- Generator: Adobe Illustrator 13.0.0, SVG Export Plug-In . SVG Version: 6.00 Build 14576)  -->
<!DOCTYPE svg PUBLIC "-//W3C//DTD SVG 1.1//EN" "http://www.w3.org/Graphics/SVG/1.1/DTD/svg11.dtd">
<svg version="1.1" id="Layer_1" xmlns="http://www.w3.org/2000/svg" xmlns:xlink="http://www.w3.org/1999/xlink" x="0px" y="0px"
	 width="80px" height="80px" viewBox="0 0 80 80" enable-background="new 0 0 80 80" xml:space="preserve">
<g>
	<path fill="#51A425" stroke="#333333" stroke-linecap="square" d="M9.667,17.252c0-3.326,4.911-7.418,8.889-7.418h42.222
		c3.979,0,8.89,4.093,8.89,7.418v27.527c0,13.838-13.424,25.055-30,25.055c-16.577,0-30-11.217-30-25.055V17.252z"/>
	
		<line fill="none" stroke="#333333" stroke-linecap="round" stroke-linejoin="round" x1="21.547" y1="20.388" x2="21.547" y2="57.058"/>
	
		<line fill="none" stroke="#333333" stroke-linecap="round" stroke-linejoin="round" x1="21.68" y1="39.358" x2="62.444" y2="39.358"/>
	<path fill="#333333" d="M42.3,38.765c-0.713,1.068-2.852,1.068-2.852,4.273c-0.712,3.206,0,6.411-1.425,9.616
		c0-4.273,0-8.548-0.712-12.821c-0.712,0-1.424,2.137-2.138,4.273c-0.712-2.137-2.138-4.273-4.275-4.273
		c-1.425,0-2.138,5.343-2.85,8.548c-1.425-2.137-2.138-5.343-4.276-8.548c0.712-1.068,2.138-4.273,2.851-7.479
		c3.563,2.137,1.425,6.411,4.988,6.411c2.138,0,2.851-1.068,3.563-3.205c0.713,0,0.713,2.137,2.138,4.273
		c1.425-4.273-1.425-9.616,2.138-11.753C39.449,31.286,37.311,37.696,42.3,38.765z"/>
	<path fill="#333333" d="M45.15,27.012c0,3.206,0,7.479,1.424,10.685c3.563-1.068,0.713-7.479,4.99-10.685
		c0,3.206-1.427,8.548,4.273,11.753c0-3.205-1.426-8.547,2.851-11.753c0,3.206-0.713,6.411,0.713,9.616
		c0.713,1.068,2.85,2.137,3.562,3.205c-7.126-1.068-2.85,9.616-6.413,11.753c0-3.205-0.713-7.479-0.713-10.685
		c0,0,0-1.068-1.426-1.068c-3.562,0-3.562,10.685-3.562,12.821c-1.426-4.273-2.139-8.548-2.851-12.821
		c-4.988,2.137-1.426,7.479-4.988,11.753c0-2.137-0.712-5.342,0-24.574H45.15z"/>
</g>
</svg>
