<?xml version="1.0" encoding="utf-8"?>
<!-- Generator: Adobe Illustrator 13.0.0, SVG Export Plug-In . SVG Version: 6.00 Build 14576)  -->
<!DOCTYPE svg PUBLIC "-//W3C//DTD SVG 1.1//EN" "http://www.w3.org/Graphics/SVG/1.1/DTD/svg11.dtd">
<svg version="1.1" id="Layer_1" xmlns="http://www.w3.org/2000/svg" xmlns:xlink="http://www.w3.org/1999/xlink" x="0px" y="0px"
	 width="80px" height="80px" viewBox="0 0 80 80" enable-background="new 0 0 80 80" xml:space="preserve">
<path fill-rule="evenodd" clip-rule="evenodd" fill="#FF0000" stroke="#333333" stroke-linecap="square" d="M29.528,20.354h23.383
	c0,0,15.076,31.692,15.125,31.841c0.906,2.764-2.504,4.239-2.372,4.239c2.787,0-31.64-0.082-49.519-0.109
	c-4.499-0.007-1.047-5.316-1.12-5.175C13.697,53.729,29.528,20.354,29.528,20.354z"/>
<path fill-rule="evenodd" clip-rule="evenodd" fill="#FF0000" stroke="#333333" stroke-linecap="round" stroke-linejoin="round" d="
	M65.648,5.702c3.083,0,5.57,1.493,5.57,3.358v11.194c0,1.866-2.487,3.358-5.57,3.358H16.792c-3.084,0-5.572-1.493-5.572-3.358V9.061
	c0-1.866,2.488-3.358,5.572-3.358H65.648z"/>
<circle fill-rule="evenodd" clip-rule="evenodd" fill="#FF0000" stroke="#333333" stroke-linecap="round" stroke-linejoin="round" cx="41.816" cy="5.479" r="4.726"/>
</svg>
