<?xml version="1.0" encoding="utf-8"?>
<!-- Generator: Adobe Illustrator 14.0.0, SVG Export Plug-In . SVG Version: 6.00 Build 43363)  -->
<!DOCTYPE svg PUBLIC "-//W3C//DTD SVG 1.1//EN" "http://www.w3.org/Graphics/SVG/1.1/DTD/svg11.dtd">
<svg version="1.1" id="Layer_1" xmlns="http://www.w3.org/2000/svg" xmlns:xlink="http://www.w3.org/1999/xlink" x="0px" y="0px"
	 width="80px" height="80px" viewBox="0 0 80 80" enable-background="new 0 0 80 80" xml:space="preserve">
<path fill="#51A425" stroke="#333333" stroke-linecap="square" d="M5.221,13.415c0-3.891,5.639-8.679,10.206-8.679h48.479
	c4.568,0,10.207,4.789,10.207,8.679V45.62c0,16.188-15.414,29.312-34.446,29.312c-19.033,0-34.446-13.123-34.446-29.312V13.415
	L5.221,13.415z"/>
<line fill="none" stroke="#333333" stroke-linecap="round" stroke-linejoin="round" x1="18.862" y1="17.083" x2="18.862" y2="59.984"/>
<path fill="#F5D04E" stroke="#333333" stroke-linecap="round" stroke-linejoin="round" d="M10.417,5.818
	c0-2.758,2.326-4.985,5.195-4.985c2.88,0,5.207,2.228,5.207,4.985c0,2.745-2.327,4.986-5.207,4.986
	C12.743,10.804,10.417,8.563,10.417,5.818z"/>
<path fill="#F5D04E" stroke="#333333" stroke-linecap="round" stroke-linejoin="round" d="M26.015,5.818
	c0-2.758,2.326-4.985,5.207-4.985c2.868,0,5.195,2.228,5.195,4.985c0,2.745-2.327,4.986-5.195,4.986
	C28.34,10.804,26.015,8.563,26.015,5.818z"/>
<path fill="#F5D04E" stroke="#333333" stroke-linecap="round" stroke-linejoin="round" d="M42.917,5.818
	c0-2.758,2.326-4.985,5.194-4.985c2.881,0,5.207,2.228,5.207,4.985c0,2.745-2.326,4.986-5.207,4.986
	C45.243,10.804,42.917,8.563,42.917,5.818z"/>
<path fill="#F5D04E" stroke="#333333" stroke-linecap="round" stroke-linejoin="round" d="M59.818,5.818
	c0-2.758,2.328-4.985,5.195-4.985c2.868,0,5.209,2.228,5.209,4.985c0,2.745-2.341,4.986-5.209,4.986
	C62.146,10.804,59.818,8.563,59.818,5.818z"/>
<path fill="#DF3800" stroke="#333333" stroke-linecap="round" stroke-linejoin="round" d="M34.299,73.848
	c0-2.863,2.339-5.2,5.207-5.2c2.869,0,5.195,2.337,5.195,5.2c0,2.878-2.326,5.202-5.195,5.202
	C36.638,79.05,34.299,76.724,34.299,73.848z"/>
<line fill="none" stroke="#333333" stroke-linecap="round" stroke-linejoin="round" x1="19.014" y1="39.278" x2="65.82" y2="39.278"/>
<path fill="#333333" d="M42.689,38.583c-0.818,1.25-3.273,1.25-3.273,5c-0.818,3.75,0,7.5-1.636,11.25c0-5,0-10-0.818-15
	c-0.818,0-1.636,2.5-2.455,5c-0.818-2.5-2.455-5-4.909-5c-1.636,0-2.455,6.25-3.272,10c-1.636-2.5-2.455-6.25-4.909-10
	c0.818-1.25,2.455-5,3.273-8.75c4.091,2.5,1.636,7.5,5.727,7.5c2.455,0,3.273-1.25,4.091-3.75c0.818,0,0.818,2.5,2.455,5
	c1.636-5-1.636-11.25,2.455-13.75C39.417,29.833,36.962,37.333,42.689,38.583z"/>
<path fill="#333333" d="M45.963,24.833c0,3.75,0,8.75,1.635,12.5c4.092-1.25,0.818-8.75,5.729-12.5c0,3.75-1.638,10,4.907,13.75
	c0-3.75-1.637-10,3.273-13.75c0,3.75-0.818,7.5,0.818,11.25c0.818,1.25,3.271,2.5,4.09,3.75c-8.182-1.25-3.271,11.25-7.363,13.75
	c0-3.75-0.818-8.75-0.818-12.5c0,0,0-1.25-1.637-1.25c-4.09,0-4.09,12.5-4.09,15c-1.637-5-2.455-10-3.273-15
	c-5.727,2.5-1.637,8.75-5.727,13.75c0-2.5-0.818-6.25,0-28.75H45.963z"/>
</svg>
