<?xml version="1.0" encoding="utf-8"?>
<!-- Generator: Adobe Illustrator 13.0.0, SVG Export Plug-In . SVG Version: 6.00 Build 14576)  -->
<!DOCTYPE svg PUBLIC "-//W3C//DTD SVG 1.1//EN" "http://www.w3.org/Graphics/SVG/1.1/DTD/svg11.dtd">
<svg version="1.1" id="Layer_1" xmlns="http://www.w3.org/2000/svg" xmlns:xlink="http://www.w3.org/1999/xlink" x="0px" y="0px"
	 width="80px" height="80px" viewBox="0 0 80 80" enable-background="new 0 0 80 80" xml:space="preserve">
<g>
	<path fill="#51A425" stroke="#333333" stroke-linecap="square" d="M9.667,17.252c0-3.326,4.911-7.418,8.889-7.418h42.222
		c3.979,0,8.89,4.093,8.89,7.418v27.527c0,13.838-13.424,25.055-30,25.055c-16.577,0-30-11.217-30-25.055V17.252z"/>
	
		<line fill="none" stroke="#333333" stroke-linecap="round" stroke-linejoin="round" x1="21.547" y1="20.388" x2="21.547" y2="57.058"/>
	<path fill="#333333" d="M27.4,27.898c0.871,1.709,1.96,3.419,2.831,5.983c2.613-1.709,3.484-4.273,4.354-6.838
		c1.742,0.855,3.484,5.128,5.226,6.838c1.742-1.709,2.613-4.273,3.484-6.838c2.612,1.709,2.612,4.274,5.226,6.838
		c1.741-1.709,2.612-4.273,3.483-6.838h2.612c0,1.709,1.742,4.274,2.613,6.838c0.871,0,1.741-1.709,2.612-2.564v13.676
		c-0.871-0.854-0.871-1.709-1.741-2.564c-1.742,2.564-3.484,5.983-4.355,8.548c-1.741-1.709-2.612-5.129-5.225-8.548
		c-1.742,2.564-2.613,5.983-4.355,8.548c-1.741-2.564-2.612-5.983-4.354-8.548c-1.742,2.564-2.613,5.983-4.354,8.548
		c-1.742-2.564-2.613-5.983-4.354-8.548c-1.742,2.564-3.484,5.983-4.354,8.548c-4.355-4.273-3.484-8.548-3.484-12.821v-2.564
		c0.218-5.231,3.266-8.65,2.282-9.933L27.4,27.898z"/>
	
		<line fill="none" stroke="#333333" stroke-linecap="round" stroke-linejoin="round" x1="21.68" y1="39.358" x2="62.444" y2="39.358"/>
</g>
</svg>
