<?xml version="1.0" encoding="utf-8"?>
<!-- Generator: Adobe Illustrator 13.0.0, SVG Export Plug-In . SVG Version: 6.00 Build 14576)  -->
<!DOCTYPE svg PUBLIC "-//W3C//DTD SVG 1.1//EN" "http://www.w3.org/Graphics/SVG/1.1/DTD/svg11.dtd">
<svg version="1.1" id="Layer_1" xmlns="http://www.w3.org/2000/svg" xmlns:xlink="http://www.w3.org/1999/xlink" x="0px" y="0px"
	 width="45.395px" height="45.395px" viewBox="0 0 45.395 45.395" enable-background="new 0 0 45.395 45.395" xml:space="preserve">
<circle fill="#808284" cx="22.297" cy="23.037" r="22.5"/>
<circle fill="none" stroke="#4C4D4F" stroke-width="2.25" cx="22.295" cy="23.129" r="21.572"/>
<circle fill="none" stroke="#4C4D4F" cx="22.628" cy="22.89" r="17.085"/>
<g>
	<path fill="#FFFFFF" stroke="#FFFFFF" d="M18.717,15.967c1.383-0.625,2.621-0.938,3.715-0.938c1.477,0,2.617,0.332,3.422,0.996
		s1.207,1.645,1.207,2.941c0,1.344-0.871,2.738-2.613,4.184c-0.758,0.625-1.221,1.041-1.389,1.248s-0.303,0.459-0.404,0.756
		s-0.152,0.668-0.152,1.113v0.645h-1.605v-0.668c0-1.359,0.434-2.418,1.301-3.176l1.547-1.359c0.5-0.422,0.867-0.85,1.102-1.283
		s0.352-0.896,0.352-1.389c0-0.812-0.258-1.436-0.773-1.869s-1.219-0.65-2.109-0.65c-0.805,0-1.82,0.289-3.047,0.867L18.717,15.967z
		 M21.905,29.198c0.414,0,0.762,0.141,1.043,0.422s0.422,0.629,0.422,1.043c0,0.422-0.143,0.783-0.428,1.084
		s-0.631,0.451-1.037,0.451c-0.398,0-0.738-0.15-1.02-0.451s-0.422-0.662-0.422-1.084s0.139-0.771,0.416-1.049
		S21.498,29.198,21.905,29.198z"/>
</g>
</svg>
