<?xml version="1.0" encoding="UTF-8"?>
<svg xmlns="http://www.w3.org/2000/svg" xmlns:xlink="http://www.w3.org/1999/xlink" clip-rule="evenodd" stroke-miterlimit="10" viewBox="850.39 283.46 283.46 283.48">
    <desc>SVG generated by Lineform</desc>
    <defs/>
    <g>
        <path d="M 992.12 283.46 C 955.85 283.46 919.58 297.32 891.91 325.00 C 836.56 380.35 836.56 470.08 891.91 525.43 C 947.26 580.78 1036.99 580.78 1092.34 525.43 C 1147.69 470.08 1147.69 380.35 1092.34 325.00 C 1064.67 297.32 1028.40 283.46 992.12 283.46 Z M 992.12 283.46 " fill="#000000" fill-opacity="0.90"/>
        <path d="M 933.12 408.18 L 944.34 408.18 C 960.87 409.00 977.23 413.45 992.19 421.46 C 1007.15 413.45 1023.54 409.00 1040.06 408.18 L 1051.28 408.18 C 1070.19 409.11 1088.91 414.80 1105.53 425.15 L 1105.53 425.21 L 1105.53 442.21 L 878.75 442.21 L 878.75 425.21 L 878.78 425.21 C 895.43 414.83 914.18 409.12 933.12 408.18 Z M 933.12 408.18 " fill="#FFFFFF"/>
    </g>
</svg>