<?xml version="1.0" encoding="UTF-8"?>
<svg xmlns="http://www.w3.org/2000/svg" xmlns:xlink="http://www.w3.org/1999/xlink" clip-rule="evenodd" stroke-miterlimit="10" viewBox="566.93 283.46 283.46 283.45">
    <desc>SVG generated by Lineform</desc>
    <defs/>
    <path d="M 708.66 283.46 C 672.39 283.46 636.12 297.29 608.44 324.96 C 553.09 380.31 553.09 470.05 608.44 525.40 C 663.79 580.75 753.53 580.75 808.88 525.40 C 864.23 470.05 864.23 380.31 808.88 324.96 C 781.20 297.29 744.93 283.46 708.66 283.46 Z M 623.63 349.28 L 624.41 349.28 C 633.86 350.97 643.75 351.96 654.00 351.96 C 664.26 351.96 674.15 350.97 683.60 349.28 L 684.38 349.28 L 684.38 498.31 C 674.70 500.09 664.54 501.12 654.00 501.12 C 643.47 501.12 633.31 500.09 623.63 498.31 L 623.63 349.28 Z M 739.04 364.46 L 739.75 364.46 C 748.26 365.99 757.15 366.87 766.38 366.87 C 775.61 366.87 784.50 365.99 793.00 364.46 L 793.72 364.46 L 793.72 498.59 C 785.01 500.20 775.86 501.12 766.38 501.12 C 756.90 501.12 747.75 500.20 739.04 498.59 L 739.04 364.46 Z M 687.41 379.65 L 688.04 379.65 C 695.59 381.01 703.52 381.78 711.72 381.78 C 719.92 381.78 727.82 381.01 735.38 379.65 L 736.00 379.65 L 736.00 498.87 C 728.26 500.30 720.15 501.12 711.72 501.12 C 703.30 501.12 695.16 500.30 687.41 498.87 L 687.41 379.65 Z M 687.41 379.65 " fill="#000000" fill-opacity="0.90"/>
</svg>