<?xml version="1.0" encoding="UTF-8"?>
<svg xmlns="http://www.w3.org/2000/svg" xmlns:xlink="http://www.w3.org/1999/xlink" clip-rule="evenodd" stroke-miterlimit="10" viewBox="1417.32 283.46 283.46 283.45">
    <desc>SVG generated by Lineform</desc>
    <defs/>
    <path d="M 1559.05 283.46 C 1522.78 283.46 1486.51 297.29 1458.84 324.96 C 1403.49 380.31 1403.49 470.05 1458.84 525.40 C 1514.19 580.75 1603.92 580.75 1659.27 525.40 C 1714.62 470.05 1714.62 380.31 1659.27 324.96 C 1631.60 297.29 1595.33 283.46 1559.05 283.46 Z M 1495.93 353.03 L 1513.96 353.03 L 1513.96 371.09 L 1531.99 371.09 L 1531.99 389.12 L 1550.05 389.12 L 1568.09 389.12 L 1586.12 389.12 L 1586.12 371.09 L 1604.15 371.09 L 1604.15 353.03 L 1622.21 353.03 L 1622.21 371.09 L 1604.15 371.09 L 1604.15 389.12 L 1622.21 389.12 L 1622.21 407.15 L 1640.24 407.15 L 1640.24 425.18 L 1658.27 425.18 L 1658.27 443.25 L 1658.27 461.28 L 1658.27 479.31 L 1640.24 479.31 L 1640.24 461.28 L 1640.24 443.25 L 1622.21 443.25 L 1622.21 461.28 L 1622.21 479.31 L 1604.15 479.31 L 1604.15 497.34 L 1586.12 497.34 L 1568.09 497.34 L 1568.09 479.31 L 1586.12 479.31 L 1604.15 479.31 L 1604.15 461.28 L 1586.12 461.28 L 1568.09 461.28 L 1550.05 461.28 L 1531.99 461.28 L 1513.96 461.28 L 1513.96 479.31 L 1531.99 479.31 L 1550.05 479.31 L 1550.05 497.34 L 1531.99 497.34 L 1513.96 497.34 L 1513.96 479.31 L 1495.93 479.31 L 1495.93 461.28 L 1495.93 443.25 L 1477.90 443.25 L 1477.90 461.28 L 1477.90 479.31 L 1459.84 479.31 L 1459.84 461.28 L 1459.84 443.25 L 1459.84 425.18 L 1477.90 425.18 L 1477.90 407.15 L 1495.93 407.15 L 1495.93 389.12 L 1513.96 389.12 L 1513.96 371.09 L 1495.93 371.09 L 1495.93 353.03 Z M 1513.96 407.15 L 1513.96 425.18 L 1531.99 425.18 L 1531.99 407.15 L 1513.96 407.15 Z M 1586.12 407.15 L 1586.12 425.18 L 1604.15 425.18 L 1604.15 407.15 L 1586.12 407.15 Z M 1586.12 407.15 " fill="#000000" fill-opacity="0.90"/>
</svg>