<?xml version="1.0" encoding="UTF-8"?>
<svg xmlns="http://www.w3.org/2000/svg" xmlns:xlink="http://www.w3.org/1999/xlink" clip-rule="evenodd" stroke-miterlimit="10" viewBox="2551.16 1417.32 283.46 283.48">
    <desc>SVG generated by Lineform</desc>
    <defs/>
    <g>
        <path d="M 2692.89 1417.32 C 2656.62 1417.32 2620.34 1431.18 2592.67 1458.85 C 2537.32 1514.20 2537.32 1603.94 2592.67 1659.29 C 2648.02 1714.64 2737.76 1714.64 2793.11 1659.29 C 2848.46 1603.94 2848.46 1514.20 2793.11 1458.85 C 2765.43 1431.18 2729.16 1417.32 2692.89 1417.32 Z M 2692.89 1417.32 " fill="#000000" fill-opacity="0.90"/>
        <path d="M 2692.89 1459.89 C 2718.28 1459.89 2743.67 1469.58 2763.05 1488.95 C 2782.41 1508.31 2792.10 1533.70 2792.11 1559.07 L 2742.51 1559.07 C 2742.51 1546.39 2737.66 1533.69 2727.98 1524.01 C 2718.30 1514.32 2705.59 1509.48 2692.89 1509.48 C 2680.19 1509.48 2667.51 1514.33 2657.83 1524.01 C 2638.45 1543.38 2638.45 1574.80 2657.83 1594.17 C 2677.20 1613.54 2708.61 1613.54 2727.98 1594.17 C 2731.13 1591.02 2733.61 1587.48 2735.73 1583.79 L 2778.76 1608.64 C 2774.52 1615.99 2769.33 1622.94 2763.05 1629.23 C 2724.30 1667.97 2661.51 1667.97 2622.76 1629.23 C 2584.02 1590.49 2584.02 1527.69 2622.76 1488.95 C 2642.14 1469.58 2667.50 1459.89 2692.89 1459.89 Z M 2692.89 1459.89 " fill="#FFFFFF"/>
        <path d="M 2692.88 1521.84 C 2683.35 1521.84 2673.83 1525.48 2666.56 1532.75 C 2652.03 1547.28 2652.03 1570.85 2666.56 1585.38 C 2681.09 1599.90 2704.66 1599.90 2719.19 1585.38 C 2733.72 1570.85 2733.72 1547.28 2719.19 1532.75 C 2711.92 1525.49 2702.40 1521.84 2692.88 1521.84 Z M 2692.88 1534.25 C 2699.22 1534.25 2705.56 1536.66 2710.41 1541.50 C 2720.09 1551.19 2720.09 1566.91 2710.41 1576.59 C 2700.72 1586.28 2685.00 1586.28 2675.31 1576.59 C 2665.63 1566.91 2665.63 1551.19 2675.31 1541.50 C 2680.16 1536.66 2686.53 1534.25 2692.88 1534.25 Z M 2692.88 1534.25 " fill="#FFFFFF"/>
    </g>
</svg>