<?xml version="1.0" encoding="UTF-8"?>
<svg xmlns="http://www.w3.org/2000/svg" xmlns:xlink="http://www.w3.org/1999/xlink" clip-rule="evenodd" stroke-miterlimit="10" viewBox="2267.69 1417.32 283.46 283.48">
    <desc>SVG generated by Lineform</desc>
    <defs/>
    <g>
        <path d="M 2409.42 1417.32 C 2373.15 1417.32 2336.88 1431.18 2309.20 1458.85 C 2253.85 1514.20 2253.85 1603.94 2309.20 1659.29 C 2364.55 1714.64 2454.29 1714.64 2509.64 1659.29 C 2564.99 1603.94 2564.99 1514.20 2509.64 1458.85 C 2481.96 1431.18 2445.69 1417.32 2409.42 1417.32 Z M 2409.42 1417.32 " fill="#000000" fill-opacity="0.90"/>
        <path d="M 2409.41 1459.88 C 2384.02 1459.88 2358.65 1469.57 2339.28 1488.94 C 2300.54 1527.68 2300.54 1590.47 2339.28 1629.22 C 2378.03 1667.96 2440.82 1667.96 2479.56 1629.22 C 2518.31 1590.47 2518.31 1527.68 2479.56 1488.94 C 2460.19 1469.57 2434.80 1459.88 2409.41 1459.88 Z M 2409.41 1509.47 C 2422.10 1509.47 2434.81 1514.31 2444.50 1524.00 C 2463.87 1543.37 2463.87 1574.79 2444.50 1594.16 C 2425.13 1613.53 2393.72 1613.53 2374.34 1594.16 C 2354.97 1574.79 2354.97 1543.37 2374.34 1524.00 C 2384.03 1514.31 2396.71 1509.47 2409.41 1509.47 Z M 2409.41 1509.47 " fill="#FFFFFF"/>
        <path d="M 2409.41 1521.84 C 2399.88 1521.84 2390.36 1525.48 2383.09 1532.75 C 2368.56 1547.28 2368.56 1570.85 2383.09 1585.38 C 2397.62 1599.90 2421.19 1599.90 2435.72 1585.38 C 2450.25 1570.85 2450.25 1547.28 2435.72 1532.75 C 2428.45 1525.49 2418.93 1521.84 2409.41 1521.84 Z M 2409.41 1534.25 C 2415.75 1534.25 2422.09 1536.66 2426.94 1541.50 C 2436.62 1551.19 2436.62 1566.91 2426.94 1576.59 C 2417.25 1586.28 2401.53 1586.28 2391.84 1576.59 C 2382.16 1566.91 2382.16 1551.19 2391.84 1541.50 C 2396.69 1536.66 2403.06 1534.25 2409.41 1534.25 Z M 2409.41 1534.25 " fill="#FFFFFF"/>
    </g>
</svg>