<?xml version="1.0" encoding="UTF-8"?>
<svg xmlns="http://www.w3.org/2000/svg" xmlns:xlink="http://www.w3.org/1999/xlink" clip-rule="evenodd" stroke-miterlimit="10" viewBox="0.00 0.00 283.46 283.45">
    <desc>SVG generated by Lineform</desc>
    <defs/>
    <g>
        <path d="M 141.73 0.00 C 105.46 0.00 69.19 13.83 41.51 41.50 C -13.84 96.85 -13.84 186.59 41.51 241.94 C 96.86 297.29 186.60 297.29 241.95 241.94 C 297.30 186.59 297.30 96.85 241.95 41.50 C 214.27 13.83 178.00 0.00 141.73 0.00 Z M 141.73 0.00 " fill="#000000" fill-opacity="0.90"/>
        <path d="M 141.72 46.12 C 117.21 46.12 92.73 55.46 74.09 74.09 C 36.82 111.37 36.82 172.10 74.09 209.38 C 111.37 246.65 172.10 246.65 209.38 209.38 C 246.65 172.10 246.65 111.37 209.38 74.09 C 190.74 55.46 166.22 46.12 141.72 46.12 Z M 141.72 67.25 C 160.74 67.25 179.77 74.55 194.34 89.12 C 223.49 118.27 223.49 165.20 194.34 194.34 C 165.20 223.49 118.27 223.49 89.12 194.34 C 59.98 165.20 59.98 118.27 89.12 89.12 C 103.70 74.55 122.70 67.25 141.72 67.25 Z M 141.72 67.25 " fill="#FFFFFF"/>
    </g>
</svg>