<?xml version="1.0" encoding="UTF-8"?>
<svg xmlns="http://www.w3.org/2000/svg" xmlns:xlink="http://www.w3.org/1999/xlink" clip-rule="evenodd" stroke-miterlimit="10" viewBox="1984.25 1417.32 283.46 283.48">
    <desc>SVG generated by Lineform</desc>
    <defs/>
    <g>
        <path d="M 2125.98 1417.32 C 2089.71 1417.32 2053.44 1431.18 2025.76 1458.85 C 1970.41 1514.20 1970.41 1603.94 2025.76 1659.29 C 2081.11 1714.64 2170.85 1714.64 2226.20 1659.29 C 2281.55 1603.94 2281.55 1514.20 2226.20 1458.85 C 2198.53 1431.18 2162.26 1417.32 2125.98 1417.32 Z M 2125.98 1417.32 " fill="#000000" fill-opacity="0.90"/>
        <path d="M 2125.97 1459.84 C 2100.58 1459.84 2075.18 1469.53 2055.81 1488.91 C 2017.07 1527.65 2017.07 1590.47 2055.81 1629.22 C 2094.56 1667.96 2157.38 1667.96 2196.12 1629.22 C 2234.87 1590.47 2234.87 1527.65 2196.12 1488.91 C 2176.75 1469.53 2151.36 1459.84 2125.97 1459.84 Z M 2125.97 1516.53 C 2136.85 1516.53 2147.73 1520.70 2156.03 1529.00 C 2172.64 1545.60 2172.64 1572.52 2156.03 1589.12 C 2139.43 1605.73 2112.51 1605.73 2095.91 1589.12 C 2079.30 1572.52 2079.30 1545.61 2095.91 1529.00 C 2104.21 1520.70 2115.09 1516.53 2125.97 1516.53 Z M 2125.97 1516.53 " fill="#FFFFFF"/>
        <path d="M 2125.98 1530.73 C 2133.24 1530.73 2140.48 1533.48 2146.01 1539.01 C 2157.08 1550.08 2157.08 1568.03 2146.01 1579.10 C 2134.94 1590.17 2116.99 1590.17 2105.92 1579.10 C 2094.85 1568.03 2094.85 1550.08 2105.92 1539.01 C 2111.46 1533.48 2118.73 1530.73 2125.98 1530.73 Z M 2125.98 1530.73 " fill="#FFFFFF"/>
    </g>
</svg>