<?xml version="1.0" encoding="UTF-8"?>
<svg xmlns="http://www.w3.org/2000/svg" xmlns:xlink="http://www.w3.org/1999/xlink" clip-rule="evenodd" stroke-miterlimit="10" viewBox="0.00 0.00 283.46 283.45">
    <desc>SVG generated by Lineform</desc>
    <defs/>
    <path d="M 141.73 0.00 C 105.46 0.00 69.19 13.83 41.51 41.50 C -13.84 96.85 -13.84 186.59 41.51 241.94 C 96.86 297.29 186.60 297.29 241.95 241.94 C 297.30 186.59 297.30 96.85 241.95 41.50 C 214.27 13.83 178.00 0.00 141.73 0.00 Z M 141.73 46.12 C 166.24 46.12 190.75 55.46 209.39 74.09 C 246.66 111.37 246.66 172.10 209.39 209.38 C 172.12 246.65 111.38 246.65 74.11 209.38 C 36.83 172.10 36.83 111.37 74.11 74.09 C 92.74 55.46 117.23 46.12 141.73 46.12 Z M 141.73 67.25 C 122.71 67.25 103.71 74.55 89.14 89.12 C 59.99 118.27 59.99 165.20 89.14 194.34 C 118.29 223.49 165.21 223.49 194.36 194.34 C 223.50 165.20 223.50 118.27 194.36 89.12 C 179.78 74.55 160.75 67.25 141.73 67.25 Z M 141.73 67.25 " fill="#000000" fill-opacity="0.90"/>
</svg>