<?xml version="1.0" encoding="UTF-8"?>
<svg xmlns="http://www.w3.org/2000/svg" xmlns:xlink="http://www.w3.org/1999/xlink" clip-rule="evenodd" stroke-miterlimit="10" viewBox="2551.18 283.46 283.46 283.45">
    <desc>SVG generated by Lineform</desc>
    <defs/>
    <path d="M 2692.91 283.46 C 2656.64 283.46 2620.37 297.29 2592.70 324.96 C 2537.35 380.31 2537.35 470.05 2592.70 525.40 C 2648.05 580.75 2737.78 580.75 2793.13 525.40 C 2848.48 470.05 2848.48 380.31 2793.13 324.96 C 2765.46 297.29 2729.19 283.46 2692.91 283.46 Z M 2691.32 306.18 C 2702.75 305.58 2713.60 311.46 2719.32 321.37 L 2798.70 458.84 C 2801.37 463.47 2802.76 468.74 2802.76 474.09 C 2802.76 490.79 2788.99 504.56 2772.29 504.56 L 2613.57 504.56 C 2608.22 504.56 2602.95 503.14 2598.32 500.46 C 2583.85 492.12 2578.81 473.31 2587.16 458.84 L 2666.54 321.37 C 2671.69 312.45 2681.03 306.72 2691.32 306.18 Z M 2692.45 327.40 C 2689.32 327.57 2686.51 329.28 2684.95 332.00 L 2605.57 469.46 C 2602.96 473.98 2604.43 479.45 2608.95 482.06 C 2610.35 482.87 2611.95 483.31 2613.57 483.31 L 2772.29 483.31 C 2777.50 483.31 2781.51 479.30 2781.51 474.09 C 2781.51 472.47 2781.07 470.87 2780.26 469.46 L 2700.91 332.00 C 2699.17 328.98 2695.93 327.22 2692.45 327.40 Z M 2692.91 356.78 C 2699.05 356.78 2704.04 361.73 2704.04 367.87 L 2704.04 412.34 C 2704.04 418.48 2699.05 423.46 2692.91 423.46 C 2686.77 423.46 2681.82 418.48 2681.82 412.34 L 2681.82 367.87 C 2681.82 361.73 2686.77 356.78 2692.91 356.78 Z M 2692.91 428.40 C 2702.12 428.40 2709.60 435.88 2709.60 445.09 L 2707.91 448.43 C 2697.36 462.27 2704.26 469.87 2702.85 470.03 C 2684.88 472.07 2676.26 450.35 2676.26 445.09 C 2676.26 435.88 2683.71 428.40 2692.91 428.40 Z M 2692.91 428.40 " fill="#000000" fill-opacity="0.90"/>
</svg>