<?xml version="1.0" encoding="UTF-8"?>
<svg xmlns="http://www.w3.org/2000/svg" xmlns:xlink="http://www.w3.org/1999/xlink" clip-rule="evenodd" stroke-miterlimit="10" viewBox="1984.25 0.00 283.46 283.46">
    <desc>SVG generated by Lineform</desc>
    <defs/>
    <g>
        <path d="M 2226.19 41.52 C 2200.54 15.87 2165.12 0.00 2125.98 0.00 C 2047.71 0.00 1984.25 63.45 1984.25 141.73 C 1984.25 220.01 2047.71 283.46 2125.98 283.46 C 2204.26 283.46 2267.71 220.01 2267.71 141.73 C 2267.71 102.59 2251.84 67.17 2226.19 41.52 Z M 2226.19 41.52 " fill="#000000" fill-opacity="0.90"/>
        <path d="M 2178.60 74.09 L 2193.62 89.12 L 2141.01 141.73 L 2193.62 194.34 L 2178.60 209.37 L 2125.98 156.76 L 2073.35 209.39 L 2058.32 194.37 L 2110.96 141.73 L 2058.34 89.12 L 2073.37 74.09 L 2125.98 126.70 L 2178.60 74.09 Z M 2178.60 74.09 " fill="#FFFFFF"/>
    </g>
</svg>