<?xml version="1.0" encoding="UTF-8"?>
<svg xmlns="http://www.w3.org/2000/svg" xmlns:xlink="http://www.w3.org/1999/xlink" clip-rule="evenodd" stroke-miterlimit="10" viewBox="0.00 566.93 283.46 283.45">
    <desc>SVG generated by Lineform</desc>
    <defs/>
    <path d="M 141.73 566.93 C 105.46 566.93 69.19 580.76 41.51 608.43 C -13.84 663.78 -13.84 753.52 41.51 808.87 C 96.86 864.22 186.60 864.22 241.95 808.87 C 297.30 753.52 297.30 663.78 241.95 608.43 C 214.27 580.76 178.00 566.93 141.73 566.93 Z M 200.07 655.21 L 226.79 655.21 L 226.79 762.12 L 200.07 762.12 L 200.07 712.49 L 132.67 751.43 L 132.67 707.56 L 56.70 751.43 L 56.70 661.65 L 132.67 705.49 L 132.67 661.65 L 200.07 700.56 L 200.07 655.21 Z M 200.07 655.21 " fill="#000000" fill-opacity="0.90"/>
</svg>