<?xml version="1.0" encoding="UTF-8"?>
<svg xmlns="http://www.w3.org/2000/svg" xmlns:xlink="http://www.w3.org/1999/xlink" clip-rule="evenodd" stroke-miterlimit="10" viewBox="1700.79 283.46 283.46 283.45">
    <desc>SVG generated by Lineform</desc>
    <defs/>
    <g>
        <path d="M 1842.52 283.46 C 1806.25 283.46 1769.98 297.29 1742.30 324.96 C 1686.95 380.31 1686.95 470.05 1742.30 525.40 C 1797.65 580.75 1887.39 580.75 1942.74 525.40 C 1998.09 470.05 1998.09 380.31 1942.74 324.96 C 1915.06 297.29 1878.79 283.46 1842.52 283.46 Z M 1842.52 283.46 " fill="#000000" fill-opacity="0.90"/>
        <path d="M 1779.41 353.03 L 1779.41 371.09 L 1797.44 371.09 L 1797.44 353.03 L 1779.41 353.03 Z M 1797.44 371.09 L 1797.44 389.12 L 1779.41 389.12 L 1779.41 407.16 L 1761.38 407.16 L 1761.38 425.19 L 1743.31 425.19 L 1743.31 479.31 L 1761.38 479.31 L 1761.38 443.25 L 1779.41 443.25 L 1779.41 479.31 L 1797.44 479.31 L 1797.44 461.28 L 1887.62 461.28 L 1887.62 479.31 L 1905.69 479.31 L 1905.69 443.25 L 1923.72 443.25 L 1923.72 479.31 L 1941.75 479.31 L 1941.75 443.25 L 1941.75 425.19 L 1923.72 425.19 L 1923.72 407.16 L 1905.69 407.16 L 1905.69 389.12 L 1887.62 389.12 L 1887.62 371.09 L 1869.59 371.09 L 1869.59 389.12 L 1815.47 389.12 L 1815.47 371.09 L 1797.44 371.09 Z M 1887.62 371.09 L 1905.69 371.09 L 1905.69 353.03 L 1887.62 353.03 L 1887.62 371.09 Z M 1887.62 479.31 L 1851.56 479.31 L 1851.56 497.34 L 1887.62 497.34 L 1887.62 479.31 Z M 1797.44 479.31 L 1797.44 497.34 L 1833.53 497.34 L 1833.53 479.31 L 1797.44 479.31 Z M 1797.44 407.16 L 1815.47 407.16 L 1815.47 425.19 L 1797.44 425.19 L 1797.44 407.16 Z M 1869.59 407.16 L 1887.62 407.16 L 1887.62 425.19 L 1869.59 425.19 L 1869.59 407.16 Z M 1869.59 407.16 " fill="#FFFFFF"/>
    </g>
</svg>