<?xml version="1.0" encoding="UTF-8"?>
<svg xmlns="http://www.w3.org/2000/svg" xmlns:xlink="http://www.w3.org/1999/xlink" clip-rule="evenodd" stroke-miterlimit="10" viewBox="1133.86 283.46 283.46 283.45">
    <desc>SVG generated by Lineform</desc>
    <defs/>
    <path d="M 1275.59 283.46 C 1239.32 283.46 1203.05 297.29 1175.37 324.96 C 1120.02 380.31 1120.02 470.05 1175.37 525.40 C 1230.72 580.75 1320.46 580.75 1375.81 525.40 C 1431.16 470.05 1431.16 380.31 1375.81 324.96 C 1348.13 297.29 1311.86 283.46 1275.59 283.46 Z M 1275.59 332.18 C 1317.36 332.18 1351.78 364.63 1355.03 405.59 C 1373.95 413.72 1387.21 432.53 1387.21 454.43 C 1387.21 483.79 1363.41 507.59 1334.06 507.59 L 1334.06 454.43 L 1334.06 411.90 C 1334.06 379.49 1308.00 353.43 1275.59 353.43 C 1243.17 353.43 1217.15 379.49 1217.15 411.90 L 1217.15 454.43 L 1217.15 507.59 C 1187.80 507.59 1164.00 483.79 1164.00 454.43 C 1164.00 432.53 1177.26 413.72 1196.18 405.59 C 1199.43 364.63 1233.82 332.18 1275.59 332.18 Z M 1275.59 332.18 " fill="#000000" fill-opacity="0.90"/>
</svg>