<?xml version="1.0" encoding="UTF-8"?>
<svg xmlns="http://www.w3.org/2000/svg" xmlns:xlink="http://www.w3.org/1999/xlink" clip-rule="evenodd" stroke-miterlimit="10" viewBox="566.93 283.47 283.46 283.45">
    <desc>SVG generated by Lineform</desc>
    <defs/>
    <g>
        <g>
            <path d="M 708.66 283.47 C 672.38 283.47 636.11 297.29 608.44 324.97 C 553.09 380.32 553.09 470.06 608.44 525.41 C 663.79 580.76 753.53 580.76 808.88 525.41 C 864.23 470.06 864.23 380.32 808.88 324.97 C 781.20 297.29 744.93 283.47 708.66 283.47 Z M 708.66 283.47 " fill="#000000" fill-opacity="0.90"/>
            <path d="M 745.50 364.47 L 746.22 364.47 C 754.72 365.99 763.62 366.88 772.84 366.88 C 782.07 366.88 790.96 365.99 799.47 364.47 L 800.19 364.47 L 800.19 498.59 C 791.47 500.20 782.32 501.13 772.84 501.12 C 763.36 501.12 754.21 500.20 745.50 498.59 L 745.50 364.47 Z M 745.50 364.47 " fill="#FFFFFF"/>
            <path d="M 684.38 379.66 L 685.00 379.66 C 692.56 381.01 700.49 381.78 708.69 381.78 C 716.89 381.78 724.78 381.01 732.34 379.66 L 732.97 379.66 L 732.97 498.88 C 725.22 500.30 717.11 501.12 708.69 501.12 C 700.26 501.12 692.12 500.30 684.38 498.88 L 684.38 379.66 Z M 684.38 379.66 " fill="#FFFFFF"/>
        </g>
        <path d="M 611.06 349.28 L 611.84 349.28 C 621.29 350.97 631.19 351.97 641.44 351.97 C 651.69 351.97 661.58 350.97 671.03 349.28 L 671.81 349.28 L 671.81 498.31 C 662.13 500.10 651.97 501.13 641.44 501.12 C 630.90 501.12 620.75 500.10 611.06 498.31 L 611.06 349.28 Z M 611.06 349.28 " fill="#FFFFFF"/>
    </g>
</svg>