<?xml version="1.0" encoding="UTF-8"?>
<svg xmlns="http://www.w3.org/2000/svg" xmlns:xlink="http://www.w3.org/1999/xlink" clip-rule="evenodd" stroke-miterlimit="10" viewBox="1417.32 283.46 283.46 283.45">
    <desc>SVG generated by Lineform</desc>
    <defs/>
    <g>
        <path d="M 1559.06 283.46 C 1522.78 283.46 1486.51 297.29 1458.84 324.96 C 1403.49 380.31 1403.49 470.05 1458.84 525.40 C 1514.19 580.75 1603.92 580.75 1659.27 525.40 C 1714.62 470.05 1714.62 380.31 1659.27 324.96 C 1631.60 297.29 1595.33 283.46 1559.06 283.46 Z M 1559.06 283.46 " fill="#000000" fill-opacity="0.90"/>
        <path d="M 1559.06 332.18 C 1600.83 332.18 1635.24 364.63 1638.49 405.59 C 1657.42 413.72 1670.68 432.53 1670.68 454.43 C 1670.68 483.79 1646.88 507.59 1617.52 507.59 L 1617.52 454.43 L 1617.52 411.90 C 1617.52 379.49 1591.47 353.43 1559.06 353.43 C 1526.64 353.43 1500.62 379.49 1500.62 411.90 L 1500.62 454.43 L 1500.62 507.59 C 1471.26 507.59 1447.46 483.79 1447.46 454.43 C 1447.46 432.53 1460.72 413.72 1479.65 405.59 C 1482.90 364.63 1517.28 332.18 1559.06 332.18 Z M 1559.06 332.18 " fill="#FFFFFF"/>
    </g>
</svg>