<?xml version="1.0" encoding="UTF-8"?>
<svg xmlns="http://www.w3.org/2000/svg" xmlns:xlink="http://www.w3.org/1999/xlink" clip-rule="evenodd" stroke-miterlimit="10" viewBox="283.46 283.46 283.46 283.45">
    <desc>SVG generated by Lineform</desc>
    <defs/>
    <g>
        <path d="M 425.20 283.46 C 388.92 283.46 352.65 297.29 324.98 324.96 C 269.63 380.31 269.63 470.05 324.98 525.40 C 380.33 580.75 470.06 580.75 525.41 525.40 C 580.76 470.05 580.76 380.31 525.41 324.96 C 497.74 297.29 461.47 283.46 425.20 283.46 Z M 425.20 283.46 " fill="#000000" fill-opacity="0.90"/>
        <path d="M 425.22 325.97 C 422.55 325.97 419.94 325.98 417.31 326.00 L 412.53 326.03 C 412.56 326.03 412.45 326.03 412.22 326.03 C 412.08 326.03 411.95 326.03 411.81 326.03 L 407.84 326.09 L 407.84 326.12 C 400.81 326.24 393.85 326.39 387.22 326.62 L 382.69 326.78 L 382.69 391.91 L 425.19 524.41 L 467.72 391.91 L 467.72 326.78 L 463.16 326.62 C 456.53 326.39 449.56 326.24 442.53 326.12 L 442.53 326.09 L 437.88 326.03 L 433.06 325.97 L 433.06 326.00 C 430.46 325.99 427.87 325.97 425.22 325.97 Z M 407.84 334.69 L 407.84 383.31 L 392.16 383.31 L 392.16 335.06 C 397.27 334.90 402.49 334.77 407.84 334.69 Z M 442.53 334.69 C 447.88 334.77 453.14 334.90 458.25 335.06 L 458.25 383.31 L 442.53 383.31 L 442.53 334.69 Z M 394.88 400.41 L 455.47 400.41 L 433.94 467.50 L 416.44 467.50 L 394.88 400.41 Z M 394.88 400.41 " fill="#FFFFFF"/>
    </g>
</svg>