<?xml version="1.0" encoding="UTF-8"?>
<svg xmlns="http://www.w3.org/2000/svg" xmlns:xlink="http://www.w3.org/1999/xlink" clip-rule="evenodd" stroke-miterlimit="10" viewBox="283.46 283.46 283.46 283.45">
    <desc>SVG generated by Lineform</desc>
    <defs/>
    <path d="M 425.20 283.46 C 388.92 283.46 352.65 297.29 324.98 324.96 C 269.63 380.31 269.63 470.05 324.98 525.40 C 380.33 580.75 470.06 580.75 525.41 525.40 C 580.76 470.05 580.76 380.31 525.41 324.96 C 497.74 297.29 461.47 283.46 425.20 283.46 Z M 425.22 325.98 C 427.87 325.98 430.46 326.00 433.07 326.01 L 433.07 325.98 L 437.88 326.04 L 442.53 326.11 L 442.53 326.14 C 449.57 326.25 456.54 326.40 463.16 326.64 L 467.72 326.79 L 467.72 391.91 L 425.19 524.41 L 382.69 391.91 L 382.69 326.79 L 387.22 326.64 C 393.85 326.40 400.81 326.25 407.84 326.14 L 407.84 326.11 L 411.81 326.04 C 411.95 326.04 412.08 326.04 412.22 326.04 C 412.45 326.04 412.56 326.04 412.53 326.04 L 417.31 326.01 C 419.94 326.00 422.56 325.98 425.22 325.98 Z M 407.84 334.70 C 402.49 334.78 397.27 334.91 392.16 335.07 L 392.16 383.32 L 407.84 383.32 L 407.84 334.70 Z M 442.53 334.70 L 442.53 383.32 L 458.26 383.32 L 458.26 335.07 C 453.14 334.91 447.89 334.78 442.53 334.70 Z M 394.87 400.41 L 416.44 467.50 L 433.94 467.50 L 455.47 400.41 L 394.87 400.41 Z M 394.88 400.40 " fill="#000000" fill-opacity="0.90"/>
</svg>