<?xml version="1.0" encoding="UTF-8"?>
<svg xmlns="http://www.w3.org/2000/svg" xmlns:xlink="http://www.w3.org/1999/xlink" clip-rule="evenodd" stroke-miterlimit="10" viewBox="1133.86 283.47 283.48 283.45">
    <desc>SVG generated by Lineform</desc>
    <defs/>
    <g>
        <path d="M 1275.62 283.47 C 1239.35 283.47 1203.05 297.29 1175.37 324.97 C 1120.02 380.32 1120.02 470.05 1175.37 525.41 C 1230.73 580.76 1320.49 580.76 1375.84 525.41 C 1403.52 497.73 1417.34 461.46 1417.34 425.19 C 1417.34 388.91 1403.52 352.65 1375.84 324.97 C 1348.17 297.29 1311.90 283.47 1275.62 283.47 Z M 1275.62 283.47 " fill="#000000" fill-opacity="0.90"/>
        <path d="M 1237.81 379.03 L 1313.40 379.03 L 1313.40 379.06 L 1322.84 379.06 L 1322.84 435.75 L 1296.84 435.75 L 1296.84 473.59 C 1299.96 475.41 1303.01 477.51 1305.69 480.19 C 1322.29 496.80 1322.30 523.70 1305.69 540.31 C 1303.00 542.99 1299.97 545.12 1296.84 546.94 L 1296.84 510.22 L 1254.34 510.22 L 1254.34 546.94 C 1251.22 545.13 1248.23 542.98 1245.56 540.31 C 1228.95 523.70 1228.95 496.80 1245.56 480.19 C 1248.23 477.51 1251.22 475.41 1254.34 473.59 L 1254.34 435.75 L 1228.37 435.75 L 1228.37 379.06 L 1237.81 379.06 L 1237.81 379.03 Z M 1237.81 379.03 " fill="#FFFFFF"/>
    </g>
    <path d="M 1237.81 303.47 L 1237.81 373.38 L 1313.41 373.38 L 1313.41 303.47 L 1237.81 303.47 Z M 1243.00 308.47 L 1253.88 308.47 L 1253.88 346.25 L 1243.00 346.25 L 1243.00 308.47 Z M 1261.12 308.47 L 1271.97 308.47 L 1271.97 346.25 L 1261.12 346.25 L 1261.12 308.47 Z M 1279.22 308.47 L 1290.09 308.47 L 1290.09 346.25 L 1279.22 346.25 L 1279.22 308.47 Z M 1297.34 308.47 L 1308.19 308.47 L 1308.19 346.25 L 1297.34 346.25 L 1297.34 308.47 Z M 1297.34 308.47 " fill="#FFFFFF"/>
</svg>