<?xml version="1.0" encoding="UTF-8"?>
<svg xmlns="http://www.w3.org/2000/svg" xmlns:xlink="http://www.w3.org/1999/xlink" clip-rule="evenodd" stroke-miterlimit="10" viewBox="1984.25 283.46 283.46 283.45">
    <desc>SVG generated by Lineform</desc>
    <defs/>
    <g>
        <path d="M 2125.98 283.46 C 2089.71 283.46 2053.44 297.29 2025.77 324.96 C 1970.42 380.31 1970.42 470.05 2025.77 525.40 C 2081.12 580.75 2170.85 580.75 2226.20 525.40 C 2281.55 470.05 2281.55 380.31 2226.20 324.96 C 2198.53 297.29 2162.26 283.46 2125.98 283.46 Z M 2125.98 283.46 " fill="#000000" fill-opacity="0.90"/>
        <path d="M 2088.50 323.06 L 2082.28 340.16 L 2055.16 340.16 L 2055.16 414.69 L 2030.34 482.88 L 2055.16 491.91 L 2055.16 510.25 L 2105.56 510.25 L 2163.53 531.34 L 2171.22 510.25 L 2196.88 510.25 L 2196.88 439.72 L 2221.69 371.53 L 2196.88 362.50 L 2196.88 340.16 L 2135.47 340.16 L 2088.50 323.06 Z M 2069.31 354.34 L 2182.72 354.34 L 2182.72 467.72 L 2069.31 467.72 L 2069.31 354.34 Z M 2196.88 377.56 L 2203.53 380.00 L 2196.88 398.28 L 2196.88 377.56 Z M 2196.88 377.56 " fill="#FFFFFF"/>
    </g>
</svg>