<?xml version="1.0" encoding="UTF-8"?>
<svg xmlns="http://www.w3.org/2000/svg" xmlns:xlink="http://www.w3.org/1999/xlink" clip-rule="evenodd" stroke-miterlimit="10" viewBox="1700.79 283.46 283.46 283.45">
    <desc>SVG generated by Lineform</desc>
    <defs/>
    <path d="M 1842.52 283.46 C 1806.25 283.46 1769.97 297.29 1742.30 324.96 C 1686.95 380.31 1686.95 470.05 1742.30 525.40 C 1797.65 580.75 1887.39 580.75 1942.74 525.40 C 1998.09 470.05 1998.09 380.31 1942.74 324.96 C 1915.06 297.29 1878.79 283.46 1842.52 283.46 Z M 1805.02 323.06 L 1851.99 340.15 L 1913.39 340.15 L 1913.39 362.50 L 1938.21 371.53 L 1913.39 439.71 L 1913.39 510.25 L 1887.74 510.25 L 1880.05 531.34 L 1822.08 510.25 L 1771.67 510.25 L 1771.67 491.90 L 1746.86 482.87 L 1771.67 414.68 L 1771.67 340.15 L 1798.80 340.15 L 1805.02 323.06 Z M 1785.83 354.34 L 1785.83 467.71 L 1899.24 467.71 L 1899.24 354.34 L 1785.83 354.34 Z M 1913.39 377.56 L 1913.39 398.28 L 1920.05 380.00 L 1913.39 377.56 Z M 1913.39 377.56 " fill="#000000" fill-opacity="0.90"/>
</svg>