<?xml version="1.0" encoding="UTF-8"?>
<svg xmlns="http://www.w3.org/2000/svg" xmlns:xlink="http://www.w3.org/1999/xlink" clip-rule="evenodd" stroke-miterlimit="10" viewBox="1700.79 0.00 283.46 283.45">
    <desc>SVG generated by Lineform</desc>
    <defs/>
    <g>
        <path d="M 1842.52 0.00 C 1806.25 0.00 1769.97 13.83 1742.30 41.50 C 1686.95 96.85 1686.95 186.59 1742.30 241.94 C 1797.65 297.29 1887.39 297.29 1942.74 241.94 C 1998.09 186.59 1998.09 96.85 1942.74 41.50 C 1915.06 13.83 1878.79 0.00 1842.52 0.00 Z M 1842.52 0.00 " fill="#000000" fill-opacity="0.90"/>
        <path d="M 1831.89 56.69 L 1853.14 56.69 L 1853.14 131.09 L 1927.55 131.09 L 1927.55 152.34 L 1853.14 152.34 L 1853.14 226.78 L 1831.89 226.78 L 1831.89 152.34 L 1757.49 152.34 L 1757.49 131.09 L 1831.89 131.09 L 1831.89 56.69 Z M 1831.89 56.69 " fill="#FFFFFF"/>
    </g>
</svg>