<?xml version="1.0" encoding="UTF-8"?>
<svg xmlns="http://www.w3.org/2000/svg" xmlns:xlink="http://www.w3.org/1999/xlink" clip-rule="evenodd" stroke-miterlimit="10" viewBox="0.00 283.46 283.46 283.45">
    <desc>SVG generated by Lineform</desc>
    <defs/>
    <g>
        <path d="M 141.73 283.46 C 105.46 283.46 69.19 297.29 41.51 324.96 C -13.84 380.31 -13.84 470.05 41.51 525.40 C 96.86 580.75 186.60 580.75 241.95 525.40 C 297.30 470.05 297.30 380.31 241.95 324.96 C 214.27 297.29 178.00 283.46 141.73 283.46 Z M 141.73 283.46 " fill="#000000" fill-opacity="0.90"/>
        <path d="M 131.11 311.81 L 152.39 311.81 L 152.39 425.18 L 131.11 425.18 L 131.11 311.81 Z M 131.11 311.81 " fill="#FFFFFF"/>
        <path d="M 120.48 342.93 L 120.48 365.12 C 111.78 368.19 103.60 373.13 96.64 380.09 C 71.73 405.00 71.73 445.40 96.64 470.31 C 121.54 495.22 161.95 495.22 186.86 470.31 C 211.76 445.40 211.76 405.00 186.86 380.09 C 179.90 373.14 171.71 368.22 163.01 365.15 L 163.01 342.93 C 177.24 346.60 190.74 353.91 201.89 365.06 C 235.10 398.27 235.10 452.13 201.89 485.34 C 168.68 518.55 114.82 518.55 81.61 485.34 C 48.40 452.13 48.40 398.27 81.61 365.06 C 92.75 353.91 106.25 346.60 120.48 342.93 Z M 120.48 342.93 " fill="#FFFFFF"/>
    </g>
</svg>