<?xml version="1.0" encoding="UTF-8"?>
<svg xmlns="http://www.w3.org/2000/svg" xmlns:xlink="http://www.w3.org/1999/xlink" clip-rule="evenodd" stroke-miterlimit="10" viewBox="2267.72 283.46 283.46 283.45">
    <desc>SVG generated by Lineform</desc>
    <defs/>
    <g>
        <path d="M 2409.45 283.46 C 2373.18 283.46 2336.91 297.29 2309.23 324.96 C 2253.88 380.31 2253.88 470.05 2309.23 525.40 C 2364.58 580.75 2454.32 580.75 2509.67 525.40 C 2565.02 470.05 2565.02 380.31 2509.67 324.96 C 2481.99 297.29 2445.72 283.46 2409.45 283.46 Z M 2409.45 283.46 " fill="#000000" fill-opacity="0.90"/>
        <path d="M 2324.39 382.68 C 2335.27 382.68 2346.18 386.82 2354.48 395.12 C 2357.15 397.79 2359.26 400.84 2361.07 403.96 L 2457.86 403.96 C 2459.67 400.84 2461.78 397.79 2464.45 395.12 C 2481.06 378.51 2507.97 378.51 2524.57 395.12 C 2527.26 397.80 2529.35 400.83 2531.17 403.96 L 2494.48 403.96 L 2494.48 446.46 L 2531.17 446.46 C 2529.36 449.58 2527.24 452.58 2524.57 455.25 C 2507.97 471.85 2481.06 471.85 2464.45 455.25 C 2461.78 452.57 2459.67 449.59 2457.86 446.46 L 2361.07 446.46 C 2359.26 449.59 2357.15 452.57 2354.48 455.25 C 2337.87 471.85 2310.96 471.85 2294.36 455.25 C 2291.69 452.58 2289.57 449.58 2287.76 446.46 L 2324.42 446.46 L 2324.42 403.96 L 2287.76 403.96 C 2289.58 400.83 2291.67 397.80 2294.36 395.12 C 2302.66 386.82 2313.50 382.68 2324.39 382.68 Z M 2324.39 382.68 " fill="#FFFFFF"/>
    </g>
</svg>