<?xml version="1.0" encoding="UTF-8"?>
<svg xmlns="http://www.w3.org/2000/svg" xmlns:xlink="http://www.w3.org/1999/xlink" clip-rule="evenodd" stroke-miterlimit="10" viewBox="0.00 1417.31 283.47 283.47">
    <desc>SVG generated by Lineform</desc>
    <defs/>
    <g>
        <path d="M 141.72 1417.31 C 63.44 1417.31 0.00 1480.79 0.00 1559.06 C -0.00 1637.34 63.44 1700.78 141.72 1700.78 C 220.00 1700.78 283.47 1637.34 283.47 1559.06 C 283.47 1480.79 220.00 1417.31 141.72 1417.31 Z M 141.72 1417.31 " fill="#000000" fill-opacity="0.90"/>
        <path d="M 163.59 1472.44 C 127.96 1472.44 98.84 1501.56 98.84 1537.19 C 98.84 1549.90 102.59 1561.76 108.97 1571.78 L 51.53 1629.22 L 71.59 1649.25 L 129.00 1591.81 C 139.03 1598.19 150.89 1601.94 163.59 1601.94 C 199.23 1601.94 228.34 1572.82 228.34 1537.19 C 228.34 1501.56 199.23 1472.44 163.59 1472.44 Z M 163.59 1493.69 C 187.74 1493.69 207.09 1513.04 207.09 1537.19 C 207.09 1561.33 187.74 1580.69 163.59 1580.69 C 139.45 1580.69 120.13 1561.33 120.12 1537.19 C 120.12 1513.04 139.45 1493.69 163.59 1493.69 Z M 163.59 1493.69 " fill="#FFFFFF"/>
    </g>
</svg>