<?xml version="1.0" encoding="UTF-8"?>
<svg xmlns="http://www.w3.org/2000/svg" xmlns:xlink="http://www.w3.org/1999/xlink" clip-rule="evenodd" stroke-miterlimit="10" viewBox="283.46 1133.85 283.46 283.45">
    <desc>SVG generated by Lineform</desc>
    <defs/>
    <g>
        <path d="M 425.20 1133.85 C 388.92 1133.85 352.65 1147.68 324.98 1175.35 C 269.63 1230.70 269.63 1320.44 324.98 1375.79 C 380.33 1431.14 470.06 1431.14 525.41 1375.79 C 580.76 1320.44 580.76 1230.70 525.41 1175.35 C 497.74 1147.68 461.47 1133.85 425.20 1133.85 Z M 425.20 1133.85 " fill="#000000" fill-opacity="0.90"/>
        <path d="M 425.20 1190.54 L 425.20 1360.60 L 368.51 1303.91 L 340.16 1303.91 L 340.16 1247.23 L 368.51 1247.23 L 425.20 1190.54 Z M 425.20 1190.54 " fill="#FFFFFF"/>
        <path d="M 439.38 1194.07 C 484.27 1194.07 520.88 1230.69 520.88 1275.57 C 520.88 1320.45 484.27 1357.07 439.38 1357.07 L 439.38 1335.82 C 472.78 1335.82 499.60 1308.96 499.60 1275.57 C 499.60 1242.18 472.78 1215.35 439.38 1215.35 L 439.38 1194.07 Z M 439.38 1194.07 " fill="#FFFFFF"/>
    </g>
</svg>