<?xml version="1.0" encoding="UTF-8"?>
<svg xmlns="http://www.w3.org/2000/svg" xmlns:xlink="http://www.w3.org/1999/xlink" clip-rule="evenodd" stroke-miterlimit="10" viewBox="566.93 0.00 283.46 283.45">
    <desc>SVG generated by Lineform</desc>
    <defs/>
    <g>
        <path d="M 708.66 0.00 C 672.39 0.00 636.12 13.83 608.44 41.50 C 553.09 96.85 553.09 186.59 608.44 241.94 C 663.79 297.29 753.53 297.29 808.88 241.94 C 864.23 186.59 864.23 96.85 808.88 41.50 C 781.20 13.83 744.93 0.00 708.66 0.00 Z M 708.66 0.00 " fill="#000000" fill-opacity="0.90"/>
        <path d="M 666.19 60.25 C 644.77 60.25 627.16 77.83 627.16 99.25 L 627.16 184.22 C 627.16 205.63 644.77 223.22 666.19 223.22 L 751.16 223.22 C 772.57 223.22 790.16 205.63 790.16 184.22 L 790.16 99.25 C 790.16 77.83 772.57 60.25 751.16 60.25 L 666.19 60.25 Z M 666.19 81.50 L 751.16 81.50 C 761.08 81.50 768.91 89.32 768.91 99.25 L 768.91 184.22 C 768.91 194.15 761.08 201.97 751.16 201.97 L 666.19 201.97 C 656.26 201.97 648.44 194.14 648.44 184.22 L 648.44 99.25 C 648.44 89.32 656.26 81.50 666.19 81.50 Z M 666.19 81.50 " fill="#FFFFFF"/>
    </g>
</svg>