<?xml version="1.0" encoding="UTF-8"?>
<svg xmlns="http://www.w3.org/2000/svg" xmlns:xlink="http://www.w3.org/1999/xlink" clip-rule="evenodd" stroke-miterlimit="10" viewBox="283.46 0.00 283.46 283.45">
    <desc>SVG generated by Lineform</desc>
    <defs/>
    <path d="M 425.20 0.00 C 388.92 0.00 352.65 13.83 324.98 41.50 C 269.63 96.85 269.63 186.59 324.98 241.94 C 380.33 297.29 470.06 297.29 525.41 241.94 C 580.76 186.59 580.76 96.85 525.41 41.50 C 497.74 13.83 461.47 0.00 425.20 0.00 Z M 343.73 60.22 L 354.35 60.22 L 496.07 60.22 L 506.70 60.22 L 506.70 70.88 L 506.70 212.59 L 506.70 223.22 L 496.07 223.22 L 354.35 223.22 L 343.73 223.22 L 343.73 212.59 L 343.73 70.88 L 343.73 60.22 Z M 364.98 81.50 L 364.98 201.97 L 485.45 201.97 L 485.45 81.50 L 364.98 81.50 Z M 364.98 81.50 " fill="#000000" fill-opacity="0.90"/>
</svg>