<?xml version="1.0" encoding="UTF-8"?>
<svg xmlns="http://www.w3.org/2000/svg" xmlns:xlink="http://www.w3.org/1999/xlink" clip-rule="evenodd" stroke-miterlimit="10" viewBox="850.39 283.47 283.48 283.45">
    <desc>SVG generated by Lineform</desc>
    <defs/>
    <path d="M 992.16 283.47 C 955.88 283.47 919.58 297.29 891.91 324.97 C 836.55 380.32 836.55 470.05 891.91 525.41 C 947.26 580.76 1037.02 580.76 1092.38 525.41 C 1120.05 497.73 1133.88 461.46 1133.88 425.19 C 1133.88 388.91 1120.05 352.65 1092.38 324.97 C 1064.70 297.29 1028.43 283.47 992.16 283.47 Z M 954.34 303.47 L 1029.94 303.47 L 1029.94 373.38 L 954.34 373.38 L 954.34 303.47 Z M 959.53 308.47 L 959.53 346.25 L 970.41 346.25 L 970.41 308.47 L 959.53 308.47 Z M 977.66 308.47 L 977.66 346.25 L 988.50 346.25 L 988.50 308.47 L 977.66 308.47 Z M 995.75 308.47 L 995.75 346.25 L 1006.62 346.25 L 1006.62 308.47 L 995.75 308.47 Z M 1013.88 308.47 L 1013.88 346.25 L 1024.72 346.25 L 1024.72 308.47 L 1013.88 308.47 Z M 954.34 379.03 L 1029.94 379.03 L 1029.94 379.06 L 1039.38 379.06 L 1039.38 435.75 L 1013.38 435.75 L 1013.38 473.59 C 1016.50 475.41 1019.55 477.51 1022.22 480.19 C 1038.83 496.80 1038.83 523.70 1022.22 540.31 C 1019.54 542.99 1016.51 545.12 1013.38 546.94 L 1013.38 510.22 L 970.88 510.22 L 970.88 546.94 C 967.76 545.13 964.76 542.98 962.09 540.31 C 945.48 523.70 945.48 496.80 962.09 480.19 C 964.77 477.51 967.75 475.41 970.88 473.59 L 970.88 435.75 L 944.91 435.75 L 944.91 379.06 L 954.34 379.06 L 954.34 379.03 Z M 954.34 379.03 " fill="#000000" fill-opacity="0.90"/>
</svg>