<?xml version="1.0" encoding="UTF-8"?>
<svg xmlns="http://www.w3.org/2000/svg" xmlns:xlink="http://www.w3.org/1999/xlink" clip-rule="evenodd" stroke-miterlimit="10" viewBox="566.93 1417.32 283.47 283.47">
    <desc>SVG generated by Lineform</desc>
    <defs/>
    <g>
        <path d="M 708.65 1417.32 C 630.37 1417.32 566.93 1480.77 566.93 1559.04 C 566.93 1637.32 630.37 1700.79 708.65 1700.79 C 786.92 1700.79 850.40 1637.32 850.40 1559.04 C 850.40 1519.90 834.52 1484.50 808.87 1458.85 C 783.22 1433.21 747.79 1417.32 708.65 1417.32 Z M 708.65 1417.32 " fill="#000000" fill-opacity="0.90"/>
        <path d="M 763.09 1474.01 L 812.24 1502.35 L 763.09 1530.73 L 763.09 1517.82 L 721.65 1559.29 L 763.09 1600.73 L 763.09 1587.42 L 812.24 1615.73 L 763.09 1644.10 L 763.09 1630.35 L 762.87 1630.57 L 706.62 1574.32 L 650.34 1630.57 L 629.09 1630.57 L 629.09 1609.32 L 641.52 1609.32 L 691.59 1559.29 L 641.55 1509.26 L 629.09 1509.26 L 629.09 1487.98 L 650.34 1487.98 L 706.62 1544.26 L 762.87 1487.98 L 763.09 1488.20 L 763.09 1474.01 Z M 763.09 1474.01 " fill="#FFFFFF"/>
    </g>
</svg>