<?xml version="1.0" encoding="UTF-8"?>
<svg xmlns="http://www.w3.org/2000/svg" xmlns:xlink="http://www.w3.org/1999/xlink" clip-rule="evenodd" stroke-miterlimit="10" viewBox="0.00 850.40 283.46 283.45">
    <desc>SVG generated by Lineform</desc>
    <defs/>
    <g>
        <path d="M 141.73 850.40 C 105.46 850.40 69.19 864.22 41.51 891.90 C -13.84 947.25 -13.84 1036.99 41.51 1092.34 C 96.86 1147.69 186.60 1147.69 241.95 1092.34 C 297.30 1036.99 297.30 947.25 241.95 891.90 C 214.27 864.22 178.00 850.40 141.73 850.40 Z M 141.73 850.40 " fill="#000000" fill-opacity="0.90"/>
        <path d="M 158.76 938.68 L 185.48 938.68 L 185.48 1045.55 L 158.76 1045.55 L 158.76 938.68 Z M 158.76 938.68 " fill="#FFFFFF"/>
        <path d="M 206.67 938.68 L 233.39 938.68 L 233.39 1045.55 L 206.67 1045.55 L 206.67 938.68 Z M 206.67 938.68 " fill="#FFFFFF"/>
        <path d="M 50.11 945.65 L 127.86 990.52 L 50.11 1035.43 L 50.11 945.65 Z M 50.11 945.65 " fill="#FFFFFF"/>
    </g>
</svg>