<?xml version="1.0" encoding="UTF-8"?>
<svg xmlns="http://www.w3.org/2000/svg" xmlns:xlink="http://www.w3.org/1999/xlink" clip-rule="evenodd" stroke-miterlimit="10" viewBox="283.47 566.93 283.46 283.45">
    <desc>SVG generated by Lineform</desc>
    <defs/>
    <g>
        <path d="M 369.10 750.62 " fill="#FFFFFF"/>
        <path d="M 425.20 566.93 C 388.93 566.93 352.66 580.76 324.98 608.43 C 269.63 663.78 269.63 753.52 324.98 808.87 C 380.33 864.22 470.07 864.22 525.42 808.87 C 580.77 753.52 580.77 663.78 525.42 608.43 C 497.74 580.76 461.47 566.93 425.20 566.93 Z M 425.20 566.93 " fill="#000000" fill-opacity="0.90"/>
        <path d="M 340.17 655.21 L 366.89 655.21 L 366.89 700.52 L 434.29 661.65 L 434.29 705.49 L 510.26 661.65 L 510.26 751.43 L 434.29 707.56 L 434.29 751.43 L 366.89 712.52 L 366.89 762.12 L 340.17 762.12 L 340.17 655.21 Z M 340.17 655.21 " fill="#FFFFFF"/>
    </g>
</svg>