<?xml version="1.0" encoding="UTF-8"?>
<svg xmlns="http://www.w3.org/2000/svg" xmlns:xlink="http://www.w3.org/1999/xlink" clip-rule="evenodd" stroke-miterlimit="10" viewBox="283.46 1417.32 283.46 283.45">
    <desc>SVG generated by Lineform</desc>
    <defs/>
    <g>
        <path d="M 425.20 1417.32 C 388.92 1417.32 352.65 1431.15 324.98 1458.82 C 269.63 1514.17 269.63 1603.91 324.98 1659.26 C 380.33 1714.61 470.06 1714.61 525.41 1659.26 C 580.76 1603.91 580.76 1514.17 525.41 1458.82 C 497.74 1431.15 461.47 1417.32 425.20 1417.32 Z M 425.20 1417.32 " fill="#000000" fill-opacity="0.90"/>
        <path d="M 449.76 1459.54 L 449.76 1477.85 C 462.77 1481.76 475.08 1488.64 485.35 1498.92 C 518.56 1532.13 518.56 1585.99 485.35 1619.20 C 452.14 1652.41 398.28 1652.41 365.07 1619.20 C 331.86 1585.99 331.86 1532.13 365.07 1498.92 L 380.10 1513.95 C 355.19 1538.86 355.19 1579.26 380.10 1604.17 C 405.01 1629.07 445.41 1629.07 470.32 1604.17 C 495.23 1579.26 495.23 1538.86 470.32 1513.95 C 464.25 1507.88 457.22 1503.45 449.76 1500.35 L 449.76 1516.26 L 400.63 1487.89 L 449.76 1459.54 Z M 449.76 1459.54 " fill="#FFFFFF"/>
    </g>
</svg>