<?xml version="1.0" encoding="UTF-8"?>
<svg xmlns="http://www.w3.org/2000/svg" xmlns:xlink="http://www.w3.org/1999/xlink" clip-rule="evenodd" stroke-miterlimit="10" viewBox="850.39 0.00 283.46 283.45">
    <desc>SVG generated by Lineform</desc>
    <defs/>
    <g>
        <path d="M 992.12 0.00 C 955.85 0.00 919.58 13.83 891.91 41.50 C 836.56 96.85 836.56 186.59 891.91 241.94 C 947.26 297.29 1036.99 297.29 1092.34 241.94 C 1147.69 186.59 1147.69 96.85 1092.34 41.50 C 1064.67 13.83 1028.40 0.00 992.12 0.00 Z M 992.12 0.00 " fill="#000000" fill-opacity="0.90"/>
        <path d="M 992.12 27.81 L 982.94 43.78 L 897.88 191.06 L 888.69 207.00 L 907.09 207.00 L 1077.19 207.00 L 1095.59 207.00 L 1086.38 191.06 L 1001.34 43.78 L 992.12 27.81 Z M 992.16 70.34 L 1058.78 185.75 L 925.50 185.75 L 992.16 70.34 Z M 992.16 70.34 " fill="#FFFFFF"/>
    </g>
</svg>