<?xml version="1.0" encoding="UTF-8"?>
<svg xmlns="http://www.w3.org/2000/svg" xmlns:xlink="http://www.w3.org/1999/xlink" clip-rule="evenodd" stroke-miterlimit="10" viewBox="1133.86 0.00 283.46 283.45">
    <desc>SVG generated by Lineform</desc>
    <defs/>
    <g>
        <path d="M 1275.59 0.00 C 1239.32 0.00 1203.05 13.83 1175.37 41.50 C 1120.02 96.85 1120.02 186.59 1175.37 241.94 C 1230.72 297.29 1320.46 297.29 1375.81 241.94 C 1431.16 186.59 1431.16 96.85 1375.81 41.50 C 1348.13 13.83 1311.86 0.00 1275.59 0.00 Z M 1275.59 0.00 " fill="#000000" fill-opacity="0.90"/>
        <path d="M 1273.53 26.59 C 1260.21 27.29 1248.13 34.71 1241.47 46.25 L 1173.44 164.09 C 1162.63 182.82 1169.11 207.13 1187.84 217.94 C 1193.83 221.39 1200.64 223.22 1207.56 223.22 L 1343.62 223.22 C 1365.25 223.22 1383.00 205.41 1383.00 183.81 C 1383.00 176.95 1381.23 170.13 1377.75 164.09 L 1309.72 46.25 C 1302.32 33.43 1288.32 25.82 1273.53 26.59 Z M 1274.91 53.16 C 1279.71 52.90 1284.31 55.40 1286.72 59.56 L 1354.75 177.41 C 1355.85 179.31 1356.44 181.51 1356.44 183.81 C 1356.44 190.85 1350.64 196.66 1343.62 196.66 L 1207.56 196.66 C 1205.32 196.66 1203.11 196.06 1201.16 194.94 C 1195.08 191.43 1192.93 183.48 1196.44 177.41 L 1264.47 59.56 C 1266.64 55.80 1270.58 53.38 1274.91 53.16 Z M 1274.91 53.16 " fill="#FFFFFF"/>
    </g>
</svg>