<?xml version="1.0" encoding="UTF-8"?>
<svg xmlns="http://www.w3.org/2000/svg" xmlns:xlink="http://www.w3.org/1999/xlink" clip-rule="evenodd" stroke-miterlimit="10" viewBox="1984.25 283.46 283.46 283.45">
    <desc>SVG generated by Lineform</desc>
    <defs/>
    <path d="M 2125.98 283.46 C 2089.71 283.46 2053.44 297.29 2025.76 324.96 C 1970.41 380.31 1970.41 470.05 2025.76 525.40 C 2081.11 580.75 2170.85 580.75 2226.20 525.40 C 2281.55 470.05 2281.55 380.31 2226.20 324.96 C 2198.53 297.29 2162.26 283.46 2125.98 283.46 Z M 2040.92 382.68 C 2051.81 382.68 2062.71 386.82 2071.01 395.12 C 2073.69 397.79 2075.80 400.84 2077.61 403.96 L 2174.39 403.96 C 2176.20 400.84 2178.31 397.79 2180.98 395.12 C 2197.59 378.51 2224.50 378.51 2241.11 395.12 C 2243.79 397.80 2245.89 400.83 2247.70 403.96 L 2211.01 403.96 L 2211.01 446.46 L 2247.70 446.46 C 2245.89 449.58 2243.78 452.58 2241.11 455.25 C 2224.50 471.85 2197.59 471.85 2180.98 455.25 C 2178.31 452.57 2176.20 449.59 2174.39 446.46 L 2077.61 446.46 C 2075.80 449.59 2073.69 452.57 2071.01 455.25 C 2054.41 471.85 2027.50 471.85 2010.89 455.25 C 2008.22 452.58 2006.11 449.58 2004.30 446.46 L 2040.95 446.46 L 2040.95 403.96 L 2004.30 403.96 C 2006.11 400.83 2008.21 397.80 2010.89 395.12 C 2019.19 386.82 2030.04 382.68 2040.92 382.68 Z M 2040.92 382.68 " fill="#000000" fill-opacity="0.90"/>
</svg>