# Blender3D v248 OBJ File: 
# www.blender3d.org
mtllib crayon.mtl
v 0.182659 0.243639 -0.182659
v 0.214785 0.243639 -0.143514
v 0.238656 0.243639 -0.098854
v 0.253356 0.243639 -0.050396
v 0.258319 0.243639 -0.000000
v 0.253356 0.243640 0.050396
v 0.238656 0.243640 0.098854
v 0.214785 0.243640 0.143514
v 0.182659 0.243640 0.182659
v 0.143514 0.243640 0.214785
v 0.098854 0.243640 0.238656
v 0.050396 0.243640 0.253356
v -0.000000 0.243640 0.258319
v -0.050396 0.243640 0.253356
v -0.098855 0.243640 0.238656
v -0.143515 0.243640 0.214784
v -0.182659 0.243640 0.182659
v -0.214785 0.243640 0.143514
v -0.238656 0.243640 0.098854
v -0.253356 0.243640 0.050395
v -0.258319 0.243639 -0.000000
v -0.253356 0.243639 -0.050396
v -0.238656 0.243639 -0.098855
v -0.214784 0.243639 -0.143515
v -0.182659 0.243639 -0.182659
v -0.143514 0.243639 -0.214785
v -0.098854 0.243639 -0.238656
v -0.050395 0.243639 -0.253356
v 0.000000 0.243639 -0.258319
v 0.050396 0.243639 -0.253356
v 0.098855 0.243639 -0.238656
v 0.143515 0.243639 -0.214784
v 0.182660 2.667410 -0.182659
v 0.214785 2.667410 -0.143514
v 0.238656 2.667410 -0.098854
v 0.253356 2.667410 -0.050395
v 0.258319 2.667410 0.000000
v 0.253356 2.667410 0.050396
v 0.238656 2.667410 0.098855
v 0.214784 2.667410 0.143515
v 0.182659 2.667410 0.182659
v 0.143514 2.667410 0.214784
v 0.098854 2.667410 0.238656
v 0.050396 2.667410 0.253355
v 0.000000 2.667410 0.258319
v -0.050395 2.667410 0.253356
v -0.098854 2.667410 0.238656
v -0.143514 2.667410 0.214785
v -0.182659 2.667410 0.182660
v -0.214784 2.667410 0.143515
v -0.238655 2.667410 0.098855
v -0.253355 2.667410 0.050396
v -0.258319 2.667410 0.000001
v -0.253356 2.667410 -0.050395
v -0.238656 2.667410 -0.098853
v -0.214785 2.667410 -0.143513
v -0.182660 2.667410 -0.182658
v -0.143516 2.667410 -0.214784
v -0.098856 2.667410 -0.238655
v -0.050397 2.667410 -0.253355
v -0.000002 2.667410 -0.258319
v 0.050394 2.667410 -0.253356
v 0.098853 2.667410 -0.238657
v 0.143513 2.667410 -0.214786
v -0.000000 2.667410 -0.000000
v 0.109108 0.237302 -0.163290
v 0.075155 0.237302 -0.181439
v 0.038314 0.237302 -0.192614
v 0.000000 0.237302 -0.196388
v -0.038313 0.237302 -0.192614
v -0.075154 0.237302 -0.181439
v -0.109107 0.237302 -0.163291
v -0.138867 0.237302 -0.138867
v -0.163290 0.237302 -0.109107
v -0.181439 0.237302 -0.075155
v -0.192614 0.237302 -0.038314
v -0.196388 0.237302 -0.000000
v -0.192614 0.237302 0.038313
v -0.181439 0.237302 0.075154
v -0.163291 0.237302 0.109107
v -0.138867 0.237302 0.138867
v -0.109107 0.237302 0.163290
v -0.075154 0.237302 0.181439
v -0.038313 0.237302 0.192614
v -0.000000 0.237302 0.196388
v 0.038313 0.237302 0.192614
v 0.075154 0.237302 0.181439
v 0.109107 0.237302 0.163290
v 0.138867 0.237302 0.138867
v 0.163291 0.237302 0.109107
v 0.181439 0.237302 0.075154
v 0.192614 0.237302 0.038313
v 0.196388 0.237302 -0.000000
v 0.192614 0.237302 -0.038313
v 0.181439 0.237302 -0.075154
v 0.163291 0.237302 -0.109107
v 0.138867 0.237302 -0.138867
v 0.138867 0.182358 -0.138867
v 0.163291 0.182358 -0.109107
v 0.181439 0.182358 -0.075154
v 0.192614 0.182358 -0.038313
v 0.196388 0.182358 -0.000000
v 0.192614 0.182358 0.038313
v 0.181439 0.182358 0.075154
v 0.163291 0.182358 0.109107
v 0.138867 0.182358 0.138867
v 0.109107 0.182358 0.163290
v 0.075154 0.182358 0.181439
v 0.038313 0.182358 0.192614
v -0.000000 0.182358 0.196388
v -0.038313 0.182358 0.192614
v -0.075154 0.182358 0.181439
v -0.109107 0.182358 0.163290
v -0.138867 0.182358 0.138867
v -0.163291 0.182358 0.109107
v -0.181439 0.182358 0.075154
v -0.192614 0.182358 0.038313
v -0.196388 0.182358 -0.000000
v -0.192614 0.182358 -0.038314
v -0.181439 0.182358 -0.075155
v -0.163290 0.182358 -0.109107
v -0.138867 0.182358 -0.138867
v -0.109107 0.182358 -0.163291
v -0.075154 0.182358 -0.181439
v -0.038313 0.182358 -0.192614
v 0.000000 0.182358 -0.196388
v 0.038314 0.182358 -0.192614
v 0.075155 0.182358 -0.181439
v 0.109108 0.182358 -0.163290
v 0.000000 -0.231820 -0.000000
v 0.043909 -0.231820 -0.065714
v 0.030245 -0.231820 -0.073018
v 0.015419 -0.231820 -0.077515
v 0.000000 -0.231820 -0.079034
v -0.015419 -0.231820 -0.077515
v -0.030245 -0.231820 -0.073018
v -0.043909 -0.231820 -0.065714
v -0.055885 -0.231820 -0.055885
v -0.065714 -0.231820 -0.043909
v -0.073018 -0.231820 -0.030245
v -0.077515 -0.231820 -0.015419
v -0.079034 -0.231820 -0.000000
v -0.077515 -0.231820 0.015419
v -0.073018 -0.231820 0.030245
v -0.065714 -0.231820 0.043909
v -0.055885 -0.231820 0.055885
v -0.043909 -0.231820 0.065714
v -0.030245 -0.231820 0.073018
v -0.015419 -0.231820 0.077515
v 0.000000 -0.231820 0.079034
v 0.015419 -0.231820 0.077515
v 0.030245 -0.231820 0.073018
v 0.043909 -0.231820 0.065714
v 0.055885 -0.231820 0.055885
v 0.065714 -0.231820 0.043909
v 0.073018 -0.231820 0.030245
v 0.077515 -0.231820 0.015419
v 0.079034 -0.231820 -0.000000
v 0.077515 -0.231820 -0.015419
v 0.073018 -0.231820 -0.030245
v 0.065714 -0.231820 -0.043909
v 0.055885 -0.231820 -0.055885
vn 0.000000 1.000000 0.000000
vn 0.773011 -0.000000 -0.634393
vn 0.881922 -0.000000 -0.471396
vn 0.956941 -0.000000 -0.290284
vn 0.995185 -0.000000 -0.098016
vn 0.995185 0.000000 0.098018
vn 0.956940 0.000000 0.290286
vn 0.881921 0.000000 0.471397
vn 0.773010 0.000000 0.634394
vn 0.634393 0.000000 0.773011
vn 0.471397 0.000000 0.881921
vn 0.290285 0.000000 0.956940
vn 0.098018 0.000000 0.995185
vn -0.098017 0.000000 0.995185
vn -0.290284 0.000000 0.956940
vn -0.471396 0.000000 0.881922
vn -0.634392 0.000000 0.773011
vn -0.773010 0.000000 0.634394
vn -0.881921 0.000000 0.471398
vn -0.956940 0.000000 0.290286
vn -0.995185 -0.000000 0.098018
vn -0.995185 -0.000000 -0.098015
vn -0.956941 -0.000000 -0.290283
vn -0.881922 -0.000000 -0.471395
vn -0.773012 -0.000000 -0.634392
vn -0.634395 -0.000000 -0.773009
vn -0.471399 -0.000000 -0.881920
vn -0.290287 -0.000000 -0.956940
vn -0.098020 -0.000000 -0.995184
vn 0.098014 -0.000000 -0.995185
vn 0.290282 -0.000000 -0.956941
vn 0.471394 -0.000000 -0.881923
vn 0.634392 0.000000 -0.773011
vn 0.064895 -0.994754 -0.079075
vn 0.048221 -0.994754 -0.090216
vn 0.029695 -0.994754 -0.097890
vn 0.010027 -0.994754 -0.101802
vn -0.010026 -0.994754 -0.101802
vn -0.029694 -0.994754 -0.097890
vn -0.048221 -0.994754 -0.090216
vn -0.064895 -0.994754 -0.079075
vn -0.079074 -0.994754 -0.064895
vn -0.090216 -0.994754 -0.048221
vn -0.097890 -0.994754 -0.029695
vn -0.101802 -0.994754 -0.010027
vn -0.101802 -0.994754 0.010027
vn -0.097890 -0.994754 0.029694
vn -0.090216 -0.994754 0.048221
vn -0.079075 -0.994754 0.064895
vn -0.064895 -0.994754 0.079075
vn -0.048221 -0.994754 0.090216
vn -0.029695 -0.994754 0.097890
vn -0.010027 -0.994754 0.101802
vn 0.010027 -0.994754 0.101802
vn 0.029694 -0.994754 0.097890
vn 0.048221 -0.994754 0.090216
vn 0.064895 -0.994754 0.079075
vn 0.079075 -0.994754 0.064895
vn 0.090216 -0.994754 0.048221
vn 0.097890 -0.994754 0.029695
vn 0.101802 -0.994754 0.010027
vn 0.101802 -0.994754 -0.010027
vn 0.097890 -0.994754 -0.029695
vn 0.090216 -0.994754 -0.048221
vn 0.079075 -0.994754 -0.064895
vn 0.773010 0.000000 -0.634393
vn 0.881921 -0.000000 -0.471397
vn 0.956940 -0.000000 -0.290285
vn 0.995185 -0.000000 -0.098017
vn 0.995185 0.000000 0.098017
vn 0.956940 0.000000 0.290285
vn 0.773010 0.000000 0.634393
vn 0.290284 0.000000 0.956940
vn 0.098017 0.000000 0.995185
vn -0.098018 0.000000 0.995185
vn -0.290285 0.000000 0.956940
vn -0.471397 0.000000 0.881921
vn -0.634394 0.000000 0.773010
vn -0.773011 0.000000 0.634393
vn -0.881921 0.000000 0.471397
vn -0.956941 0.000000 0.290283
vn -0.995185 0.000000 0.098016
vn -0.995185 -0.000000 -0.098018
vn -0.956940 -0.000000 -0.290286
vn -0.881921 -0.000000 -0.471397
vn -0.773009 0.000000 -0.634395
vn -0.634393 0.000000 -0.773011
vn -0.471396 -0.000000 -0.881922
vn -0.290283 -0.000000 -0.956941
vn -0.098016 0.000000 -0.995185
vn 0.098019 0.000000 -0.995185
vn 0.290286 0.000000 -0.956940
vn 0.471398 0.000000 -0.881920
vn 0.634394 0.000000 -0.773010
vn 0.610584 -0.271394 -0.743997
vn 0.453706 -0.271394 -0.848820
vn 0.279392 -0.271395 -0.921024
vn 0.094340 -0.271394 -0.957833
vn -0.094337 -0.271395 -0.957834
vn -0.279389 -0.271395 -0.921025
vn -0.453703 -0.271395 -0.848822
vn -0.610583 -0.271395 -0.743998
vn -0.743997 -0.271395 -0.610585
vn -0.848821 -0.271395 -0.453705
vn -0.921024 -0.271395 -0.279391
vn -0.957834 -0.271395 -0.094339
vn -0.957834 -0.271395 0.094338
vn -0.921025 -0.271395 0.279388
vn -0.848821 -0.271395 0.453705
vn -0.743999 -0.271395 0.610583
vn -0.610584 -0.271395 0.743998
vn -0.453704 -0.271395 0.848821
vn -0.279390 -0.271395 0.921024
vn -0.094339 -0.271395 0.957834
vn 0.094338 -0.271395 0.957834
vn 0.279389 -0.271394 0.921025
vn 0.453704 -0.271395 0.848821
vn 0.610583 -0.271394 0.743998
vn 0.743998 -0.271394 0.610583
vn 0.848821 -0.271395 0.453704
vn 0.921025 -0.271394 0.279390
vn 0.957834 -0.271394 0.094338
vn 0.957834 -0.271394 -0.094339
vn 0.921025 -0.271394 -0.279390
vn 0.848821 -0.271394 -0.453704
vn 0.743998 -0.271394 -0.610583
vn 0.000000 -1.000000 0.000000
vn -0.000000 -1.000000 0.000001
usemtl (null)
s off
f 65//1 34//1 33//1
f 65//1 35//1 34//1
f 65//1 36//1 35//1
f 65//1 37//1 36//1
f 65//1 38//1 37//1
f 65//1 39//1 38//1
f 65//1 40//1 39//1
f 65//1 41//1 40//1
f 65//1 42//1 41//1
f 65//1 43//1 42//1
f 65//1 44//1 43//1
f 65//1 45//1 44//1
f 65//1 46//1 45//1
f 65//1 47//1 46//1
f 65//1 48//1 47//1
f 65//1 49//1 48//1
f 65//1 50//1 49//1
f 65//1 51//1 50//1
f 65//1 52//1 51//1
f 65//1 53//1 52//1
f 65//1 54//1 53//1
f 65//1 55//1 54//1
f 65//1 56//1 55//1
f 65//1 57//1 56//1
f 65//1 58//1 57//1
f 65//1 59//1 58//1
f 65//1 60//1 59//1
f 65//1 61//1 60//1
f 65//1 62//1 61//1
f 65//1 63//1 62//1
f 65//1 64//1 63//1
f 65//1 33//1 64//1
f 1//2 33//2 34//2 2//2
f 2//3 34//3 35//3 3//3
f 3//4 35//4 36//4 4//4
f 4//5 36//5 37//5 5//5
f 5//6 37//6 38//6 6//6
f 6//7 38//7 39//7 7//7
f 7//8 39//8 40//8 8//8
f 8//9 40//9 41//9 9//9
f 9//10 41//10 42//10 10//10
f 10//11 42//11 43//11 11//11
f 11//12 43//12 44//12 12//12
f 12//13 44//13 45//13 13//13
f 13//14 45//14 46//14 14//14
f 14//15 46//15 47//15 15//15
f 15//16 47//16 48//16 16//16
f 16//17 48//17 49//17 17//17
f 17//18 49//18 50//18 18//18
f 18//19 50//19 51//19 19//19
f 19//20 51//20 52//20 20//20
f 20//21 52//21 53//21 21//21
f 21//22 53//22 54//22 22//22
f 22//23 54//23 55//23 23//23
f 23//24 55//24 56//24 24//24
f 24//25 56//25 57//25 25//25
f 25//26 57//26 58//26 26//26
f 26//27 58//27 59//27 27//27
f 27//28 59//28 60//28 28//28
f 28//29 60//29 61//29 29//29
f 29//30 61//30 62//30 30//30
f 30//31 62//31 63//31 31//31
f 31//32 63//32 64//32 32//32
f 33//33 1//33 32//33 64//33
f 32//34 1//34 97//34 66//34
f 31//35 32//35 66//35 67//35
f 30//36 31//36 67//36 68//36
f 29//37 30//37 68//37 69//37
f 28//38 29//38 69//38 70//38
f 27//39 28//39 70//39 71//39
f 26//40 27//40 71//40 72//40
f 25//41 26//41 72//41 73//41
f 24//42 25//42 73//42 74//42
f 23//43 24//43 74//43 75//43
f 22//44 23//44 75//44 76//44
f 21//45 22//45 76//45 77//45
f 20//46 21//46 77//46 78//46
f 19//47 20//47 78//47 79//47
f 18//48 19//48 79//48 80//48
f 17//49 18//49 80//49 81//49
f 16//50 17//50 81//50 82//50
f 15//51 16//51 82//51 83//51
f 14//52 15//52 83//52 84//52
f 13//53 14//53 84//53 85//53
f 12//54 13//54 85//54 86//54
f 11//55 12//55 86//55 87//55
f 10//56 11//56 87//56 88//56
f 9//57 10//57 88//57 89//57
f 8//58 9//58 89//58 90//58
f 7//59 8//59 90//59 91//59
f 6//60 7//60 91//60 92//60
f 5//61 6//61 92//61 93//61
f 4//62 5//62 93//62 94//62
f 3//63 4//63 94//63 95//63
f 2//64 3//64 95//64 96//64
f 1//65 2//65 96//65 97//65
f 97//66 96//66 99//66 98//66
f 96//67 95//67 100//67 99//67
f 95//68 94//68 101//68 100//68
f 94//69 93//69 102//69 101//69
f 93//70 92//70 103//70 102//70
f 92//71 91//71 104//71 103//71
f 91//8 90//8 105//8 104//8
f 90//72 89//72 106//72 105//72
f 89//10 88//10 107//10 106//10
f 88//11 87//11 108//11 107//11
f 87//73 86//73 109//73 108//73
f 86//74 85//74 110//74 109//74
f 85//75 84//75 111//75 110//75
f 84//76 83//76 112//76 111//76
f 83//77 82//77 113//77 112//77
f 82//78 81//78 114//78 113//78
f 81//79 80//79 115//79 114//79
f 80//80 79//80 116//80 115//80
f 79//81 78//81 117//81 116//81
f 78//82 77//82 118//82 117//82
f 77//83 76//83 119//83 118//83
f 76//84 75//84 120//84 119//84
f 75//85 74//85 121//85 120//85
f 74//86 73//86 122//86 121//86
f 73//87 72//87 123//87 122//87
f 72//88 71//88 124//88 123//88
f 71//89 70//89 125//89 124//89
f 70//90 69//90 126//90 125//90
f 69//91 68//91 127//91 126//91
f 68//92 67//92 128//92 127//92
f 67//93 66//93 129//93 128//93
f 66//94 97//94 98//94 129//94
f 129//95 98//95 162//95 131//95
f 128//96 129//96 131//96 132//96
f 127//97 128//97 132//97 133//97
f 126//98 127//98 133//98 134//98
f 125//99 126//99 134//99 135//99
f 124//100 125//100 135//100 136//100
f 123//101 124//101 136//101 137//101
f 122//102 123//102 137//102 138//102
f 121//103 122//103 138//103 139//103
f 120//104 121//104 139//104 140//104
f 119//105 120//105 140//105 141//105
f 118//106 119//106 141//106 142//106
f 117//107 118//107 142//107 143//107
f 116//108 117//108 143//108 144//108
f 115//109 116//109 144//109 145//109
f 114//110 115//110 145//110 146//110
f 113//111 114//111 146//111 147//111
f 112//112 113//112 147//112 148//112
f 111//113 112//113 148//113 149//113
f 110//114 111//114 149//114 150//114
f 109//115 110//115 150//115 151//115
f 108//116 109//116 151//116 152//116
f 107//117 108//117 152//117 153//117
f 106//118 107//118 153//118 154//118
f 105//119 106//119 154//119 155//119
f 104//120 105//120 155//120 156//120
f 103//121 104//121 156//121 157//121
f 102//122 103//122 157//122 158//122
f 101//123 102//123 158//123 159//123
f 100//124 101//124 159//124 160//124
f 99//125 100//125 160//125 161//125
f 98//126 99//126 161//126 162//126
f 130//127 162//127 161//127
f 130//127 161//127 160//127
f 130//127 160//127 159//127
f 130//127 159//127 158//127
f 130//127 158//127 157//127
f 130//127 157//127 156//127
f 130//128 156//128 155//128
f 130//127 155//127 154//127
f 130//127 154//127 153//127
f 130//127 153//127 152//127
f 130//127 152//127 151//127
f 130//127 151//127 150//127
f 130//127 150//127 149//127
f 130//127 149//127 148//127
f 130//127 148//127 147//127
f 130//127 147//127 146//127
f 130//127 146//127 145//127
f 130//128 145//128 144//128
f 130//127 144//127 143//127
f 130//127 143//127 142//127
f 130//127 142//127 141//127
f 130//127 141//127 140//127
f 130//127 140//127 139//127
f 130//127 139//127 138//127
f 130//127 138//127 137//127
f 130//127 137//127 136//127
f 130//127 136//127 135//127
f 130//127 135//127 134//127
f 130//127 134//127 133//127
f 130//127 133//127 132//127
f 130//127 132//127 131//127
f 131//127 162//127 130//127
